<?xml version="1.0" standalone="no"?>
<!DOCTYPE svg PUBLIC "-//W3C//DTD SVG 20010904//EN"
 "http://www.w3.org/TR/2001/REC-SVG-20010904/DTD/svg10.dtd">
<svg version="1.0" xmlns="http://www.w3.org/2000/svg"
 width="512.000000pt" height="512.000000pt" viewBox="0 0 512.000000 512.000000"
 preserveAspectRatio="xMidYMid meet">
<metadata>
Created by potrace 1.14, written by Peter Selinger 2001-2017
</metadata>
<g transform="translate(0.000000,512.000000) scale(0.100000,-0.100000)"
fill="#000000" stroke="none">
<path d="M2786 4977 c-19 -19 -38 -46 -42 -61 -3 -14 -9 -24 -13 -22 -4 3 -8
-5 -10 -17 -3 -30 -3 -38 4 -72 3 -16 6 -34 7 -40 1 -5 9 -18 18 -28 16 -16
19 -16 53 12 20 15 34 31 30 35 -3 3 -2 6 4 6 6 0 16 13 23 30 23 54 11 141
-25 176 -12 13 -19 10 -49 -19z"/>
<path d="M1949 4954 c-41 -67 -30 -152 28 -212 29 -30 73 39 73 117 0 53 -42
131 -70 131 -5 0 -18 -16 -31 -36z"/>
<path d="M2238 4790 c-20 -17 -42 -46 -48 -65 -15 -45 -20 -105 -9 -105 5 0 9
-8 9 -18 0 -27 9 -32 39 -21 31 12 70 57 71 82 0 9 6 17 13 17 8 0 7 4 -3 10
-8 5 -10 10 -4 10 13 0 8 74 -7 102 -13 24 -18 23 -61 -12z"/>
<path d="M2610 4810 c-16 -10 -23 -100 -8 -100 4 0 7 -3 7 -7 -3 -19 3 -32 29
-61 16 -18 36 -32 45 -32 10 0 17 -4 17 -9 0 -5 9 -7 19 -4 11 3 20 12 20 21
0 10 2 29 5 45 2 15 1 27 -3 27 -4 0 -7 9 -8 20 -2 29 -44 77 -73 85 -14 4
-27 10 -30 15 -3 5 -12 5 -20 0z"/>
<path d="M2096 4774 c-3 -9 -10 -13 -15 -9 -11 6 -80 -62 -82 -82 -2 -21 -4
-27 -10 -38 -3 -5 -2 -25 3 -43 6 -24 13 -32 24 -28 9 3 12 1 9 -4 -3 -6 -1
-10 4 -10 6 0 11 5 11 10 0 6 5 10 11 10 12 0 76 50 72 56 -3 4 -2 7 15 61 8
23 7 33 -1 37 -9 3 -8 5 1 5 9 1 10 6 3 20 -14 25 -38 33 -45 15z"/>
<path d="M2877 4763 c-41 -23 -77 -69 -77 -99 0 -9 -4 -13 -8 -10 -4 2 -7 -21
-5 -52 1 -40 7 -60 19 -69 10 -7 20 -10 23 -5 3 4 22 15 41 25 62 32 97 112
91 212 -1 28 -31 27 -84 -2z"/>
<path d="M3405 4748 c-26 -64 -8 -218 26 -218 6 0 8 -4 5 -9 -3 -5 9 -16 28
-25 39 -18 50 -20 42 -7 -4 5 -1 11 4 13 6 2 12 13 13 26 0 12 5 22 9 22 13 0
0 116 -16 148 -16 31 -70 82 -87 82 -6 0 -16 -14 -24 -32z"/>
<path d="M1569 4762 c0 -4 -3 -16 -5 -27 -3 -11 -6 -27 -8 -35 -4 -19 26 -80
50 -102 29 -25 109 -57 124 -48 18 11 20 67 4 104 -18 41 -78 94 -116 102 -5
1 -9 2 -10 4 -8 6 -38 7 -39 2z"/>
<path d="M1885 4720 c-3 -6 -11 -8 -16 -5 -5 4 -9 2 -9 -3 0 -5 -11 -15 -25
-22 -14 -7 -25 -17 -25 -22 0 -5 -9 -18 -19 -29 -11 -12 -18 -30 -16 -40 2
-10 0 -19 -5 -19 -5 0 -6 -12 -4 -27 3 -16 6 -36 7 -45 1 -17 37 -34 37 -17 0
5 3 8 8 7 15 -3 62 26 62 39 0 8 4 12 9 9 5 -4 17 14 26 38 18 46 26 106 14
106 -4 0 -6 8 -5 17 1 19 -29 30 -39 13z"/>
<path d="M3612 4602 c-39 -36 -60 -79 -60 -127 -1 -49 18 -116 29 -109 5 3 9
-4 9 -15 0 -12 5 -20 12 -18 13 2 77 74 79 88 2 13 6 29 9 32 7 9 4 77 -5 77
-5 0 -3 5 5 10 10 6 11 10 3 10 -7 0 -13 9 -13 19 0 11 -5 23 -10 26 -6 4 -8
10 -5 15 13 21 -26 15 -53 -8z"/>
<path d="M3116 4589 c3 -5 -3 -9 -13 -9 -26 0 -92 -64 -110 -108 -18 -42 -23
-65 -23 -107 -1 -86 11 -100 61 -71 60 35 75 49 109 100 29 42 33 57 33 111 0
41 -5 68 -14 77 -16 15 -52 21 -43 7z"/>
<path d="M2430 4552 c0 -7 -6 -12 -13 -12 -15 0 -59 -45 -76 -77 -12 -23 -15
-94 -5 -130 11 -40 42 -33 95 21 24 25 38 96 29 146 -7 40 -30 79 -30 52z"/>
<path d="M2650 4549 c0 -5 -3 -8 -7 -8 -20 3 -33 -3 -62 -33 -17 -17 -31 -38
-31 -45 0 -7 -4 -13 -10 -13 -15 0 -12 -70 3 -71 12 -1 15 -1 45 4 35 7 88 35
108 59 35 41 51 92 32 104 -17 11 -78 13 -78 3z"/>
<path d="M1916 4518 c3 -4 0 -8 -7 -8 -10 0 -10 -3 -2 -11 6 -6 9 -17 6 -24
-2 -7 3 -27 11 -44 17 -32 66 -89 66 -76 0 4 6 3 13 -3 12 -10 39 -15 67 -13
18 1 19 52 2 94 -12 28 -66 81 -86 83 -6 0 -13 2 -16 3 -14 8 -59 7 -54 -1z"/>
<path d="M1652 4512 c1 -4 -4 -17 -11 -30 -7 -13 -13 -43 -14 -67 -1 -26 -6
-41 -12 -37 -5 3 -5 -1 2 -9 6 -8 13 -25 15 -39 4 -32 65 -100 90 -100 16 0
20 6 17 26 0 4 5 10 11 14 7 4 13 19 13 34 0 14 7 31 15 38 13 11 15 10 9 -4
-3 -10 -2 -20 4 -23 5 -4 7 -11 4 -16 -4 -5 -1 -9 4 -9 6 0 11 -5 11 -10 0
-48 142 -105 188 -77 6 5 12 5 12 2 0 -3 6 0 14 7 8 7 11 15 7 18 -3 3 -12 16
-19 29 -11 19 -11 22 0 15 14 -8 -20 34 -60 74 -29 30 -79 49 -117 47 -16 -1
-31 -4 -32 -5 -2 -1 -9 -3 -15 -4 -7 0 -13 -6 -13 -13 0 -6 -2 -14 -5 -17 -5
-4 -10 21 -13 62 0 6 -4 12 -9 12 -4 0 -8 6 -8 13 0 8 -12 25 -28 38 -28 26
-63 44 -60 31z"/>
<path d="M2112 4492 c-19 -3 -23 -9 -20 -30 2 -15 8 -33 13 -40 23 -30 59 -61
66 -56 4 2 10 0 14 -6 9 -15 115 -13 116 3 3 25 -3 41 -27 73 -35 45 -98 67
-162 56z"/>
<path d="M2860 4492 c0 -4 -13 -13 -28 -20 -51 -22 -76 -69 -77 -141 0 -53 3
-64 17 -67 39 -5 112 58 125 108 10 45 12 91 4 106 -9 16 -41 26 -41 14z"/>
<path d="M3772 4449 c-22 -10 -49 -26 -59 -36 -18 -18 -18 -19 2 -41 11 -12
28 -22 38 -22 9 0 17 -3 17 -8 0 -9 71 -9 87 1 6 4 14 1 16 -5 4 -10 6 -10 6
0 1 6 7 12 15 12 19 0 59 34 62 52 1 13 -74 67 -83 60 -2 -1 -4 -2 -5 -1 -21
7 -64 1 -96 -12z"/>
<path d="M1444 4398 c-5 -13 -9 -26 -10 -30 -1 -5 -2 -9 -4 -10 -9 -13 -3 -88
11 -114 9 -19 12 -31 7 -28 -5 3 3 -12 19 -34 15 -22 30 -38 32 -37 2 2 14 -7
28 -21 13 -13 30 -24 38 -24 8 0 15 -4 15 -10 0 -16 27 0 37 23 14 33 16 118
3 152 -6 17 -10 31 -8 31 2 1 -5 11 -15 21 -9 11 -14 23 -10 28 5 4 2 5 -4 1
-7 -4 -13 -2 -13 3 0 12 -65 56 -97 65 -16 5 -23 2 -29 -16z"/>
<path d="M3169 4401 c-1 -12 -1 -31 -2 -43 -1 -28 24 -98 35 -98 4 0 8 -7 8
-16 0 -8 4 -13 8 -10 5 3 14 -4 22 -14 8 -10 18 -17 22 -14 5 3 15 1 22 -5 10
-8 15 -5 23 12 13 28 8 108 -7 117 -7 4 -10 9 -9 11 7 8 -27 44 -51 56 -53 25
-70 26 -71 4z"/>
<path d="M1130 4403 c-45 -13 -59 -26 -49 -44 5 -11 7 -19 3 -19 -4 0 1 -9 11
-20 10 -11 15 -20 12 -20 -4 0 6 -12 21 -27 34 -34 87 -65 96 -56 3 3 6 2 6
-4 0 -5 12 -9 28 -8 15 1 32 -1 37 -5 9 -5 31 -6 38 0 1 1 10 3 20 5 47 9 49
12 27 56 -27 51 -82 105 -128 125 -38 15 -97 24 -122 17z"/>
<path d="M3462 4396 c-29 -15 -83 -76 -77 -86 4 -6 2 -10 -3 -10 -15 0 -9
-110 7 -119 13 -8 91 25 91 39 0 3 8 15 18 26 22 25 26 39 26 96 1 28 5 44 11
40 6 -3 4 1 -3 10 -14 18 -41 19 -70 4z"/>
<path d="M2637 4343 c-33 -25 -105 -135 -77 -118 9 5 9 2 3 -11 -5 -11 -8 -30
-6 -44 2 -14 4 -31 5 -37 1 -7 5 -14 10 -14 4 -1 14 -2 21 -3 44 -6 139 100
132 146 -2 10 0 20 4 22 4 3 5 23 3 45 -4 37 -7 41 -31 41 -15 0 -44 -12 -64
-27z"/>
<path d="M4155 4357 c-8 -4 -19 -6 -24 -2 -5 3 -17 -5 -25 -17 -9 -12 -16 -19
-16 -15 0 22 -70 -68 -76 -98 -16 -73 -15 -85 8 -94 13 -5 25 -5 28 -1 3 4 24
13 47 20 23 7 40 17 37 21 -3 5 -1 9 4 9 5 0 21 11 36 25 15 14 24 25 20 25
-5 0 -3 5 4 12 7 7 12 20 12 31 0 10 4 16 8 13 9 -5 8 30 -2 61 -7 22 -32 27
-61 10z"/>
<path d="M2215 4308 c-20 -34 -29 -92 -18 -118 3 -8 7 -20 8 -26 5 -21 40 -56
76 -74 36 -19 36 -20 35 -77 -2 -64 24 -199 49 -259 9 -22 15 -40 15 -42 -3
-6 63 -137 76 -150 8 -7 14 -18 14 -24 0 -5 9 -23 21 -39 11 -16 21 -38 22
-49 1 -11 4 -20 8 -20 8 0 6 -20 -3 -36 -9 -14 -20 -70 -22 -106 0 -16 -5 -28
-11 -28 -5 0 -3 -5 5 -10 8 -5 10 -10 4 -10 -6 0 -10 -16 -9 -35 3 -44 -7 -45
-25 -1 -9 23 -26 40 -55 55 -50 25 -77 27 -69 6 4 -8 2 -15 -2 -15 -5 0 -9
-13 -9 -30 0 -16 3 -30 7 -30 4 0 10 -16 14 -35 3 -19 9 -35 13 -35 3 0 19
-12 34 -26 36 -33 78 -30 88 6 6 22 14 10 10 -14 -1 -4 3 -22 8 -40 6 -17 12
-42 14 -56 2 -14 7 -33 10 -42 4 -10 10 -26 14 -35 3 -10 8 -27 10 -38 8 -38
11 -50 13 -50 2 0 10 -35 14 -62 5 -32 -9 -29 -23 5 -12 29 -68 65 -99 65 -9
0 -20 5 -24 11 -5 7 -8 7 -8 -2 0 -7 -5 -10 -12 -6 -6 4 -8 3 -4 -4 3 -6 2
-14 -4 -17 -8 -5 -8 -11 0 -19 5 -7 11 -25 12 -39 1 -14 6 -23 10 -21 4 3 8 0
8 -5 0 -16 32 -51 60 -65 32 -16 94 -20 85 -6 -3 5 -1 10 4 10 9 0 17 -73 13
-111 -1 -3 -2 -33 -3 -68 -3 -68 -9 -79 -33 -55 -9 8 -16 12 -16 8 0 -4 -18
12 -40 36 -22 24 -38 45 -35 48 2 3 -5 13 -17 23 -11 11 -18 19 -14 19 3 0 0
13 -8 29 -9 16 -13 31 -10 33 3 3 -4 8 -15 11 -18 4 -20 1 -18 -33 1 -21 5
-36 9 -34 4 3 10 -7 14 -21 3 -14 10 -25 16 -25 5 0 7 -4 4 -9 -10 -16 55
-100 100 -128 40 -25 43 -31 37 -58 -3 -16 -6 -36 -6 -42 0 -7 -5 -13 -10 -13
-5 0 -7 -9 -4 -20 3 -11 1 -20 -4 -20 -5 0 -9 -4 -9 -9 0 -5 -8 -26 -17 -47
-9 -22 -17 -41 -18 -44 0 -3 -11 -26 -24 -52 -12 -27 -24 -54 -25 -60 -1 -7
-5 -19 -9 -25 -5 -8 -3 -13 4 -13 9 0 9 -3 0 -14 -9 -11 -9 -15 1 -19 8 -4 7
-6 -4 -6 -17 -1 -23 15 -19 47 1 8 -4 21 -11 30 -11 13 -11 15 2 7 11 -6 10
-3 -2 12 -10 11 -18 23 -18 27 0 7 -35 59 -55 82 -5 6 -17 22 -25 34 -15 21
-24 34 -65 82 -13 16 -19 37 -18 68 1 62 8 118 15 125 3 3 2 22 -2 41 -5 20
-4 34 1 34 6 0 5 10 -2 21 -9 17 -8 20 3 13 10 -6 11 -5 2 7 -12 16 -12 48 -1
67 5 6 6 12 2 12 -3 0 9 15 27 34 18 18 36 31 41 29 4 -2 7 2 7 9 0 8 9 20 20
28 11 8 20 22 20 31 0 10 3 19 8 21 4 2 16 21 27 42 11 22 36 55 55 74 32 31
33 33 10 26 -14 -4 -31 -15 -38 -26 -7 -10 -17 -16 -22 -13 -4 3 -11 -6 -14
-20 -4 -14 -11 -25 -17 -25 -6 0 -8 -4 -5 -9 3 -5 -3 -20 -14 -34 -11 -14 -20
-28 -20 -32 0 -3 -7 -13 -15 -21 -8 -9 -15 -13 -15 -9 0 3 -9 1 -21 -5 -11 -7
-23 -9 -27 -6 -8 9 -9 96 -1 96 4 0 6 11 5 24 -2 14 0 29 3 35 8 12 51 3 51
-10 0 -8 25 -1 70 18 8 3 17 7 20 7 12 2 48 45 42 50 -3 3 0 6 7 6 7 0 9 5 6
10 -3 6 -2 10 3 10 13 0 10 28 -3 34 -7 2 -33 3 -58 1 -46 -3 -107 -44 -107
-72 0 -7 -5 -13 -11 -13 -5 0 -7 -4 -4 -10 3 -5 -1 -10 -10 -10 -9 0 -14 4
-10 9 10 16 39 181 37 211 -6 92 -1 185 10 192 7 4 8 8 3 8 -15 0 -17 41 -3
57 7 9 7 13 -1 13 -7 0 -9 5 -4 13 8 14 13 37 7 37 -9 0 -31 -58 -33 -89 -1
-19 -3 -37 -5 -39 -6 -5 -86 121 -86 135 0 7 -4 13 -9 13 -4 0 -16 21 -26 48
-10 26 -22 53 -28 60 -6 8 -5 12 4 13 8 1 21 3 29 4 45 5 75 30 96 82 31 72
21 146 -16 123 -8 -5 -17 -7 -21 -4 -4 2 -12 -3 -19 -11 -7 -8 -18 -15 -24
-15 -14 0 -51 -76 -52 -109 -1 -14 -2 -35 -3 -45 -1 -27 -11 -14 -16 20 -6 34
-13 69 -15 69 -6 0 -12 54 -14 135 -2 52 -4 97 -5 100 -1 3 -8 -8 -15 -25 -9
-20 -10 -34 -3 -42 6 -9 6 -13 0 -13 -6 0 -10 -29 -10 -65 0 -36 2 -65 6 -65
3 0 7 -19 8 -41 2 -23 7 -47 13 -54 5 -6 7 -15 3 -18 -3 -4 -2 -7 3 -7 5 0 10
-11 10 -23 2 -23 0 -23 -40 -16 -22 5 -47 8 -53 9 -7 0 -13 4 -13 9 0 6 8 9
18 9 48 -2 67 18 46 49 -8 13 -11 23 -7 23 4 0 -10 9 -32 20 -47 24 -126 28
-152 8 -23 -18 17 -73 66 -89 25 -9 25 -9 -4 -5 -16 3 -43 10 -60 17 -16 7
-34 13 -39 13 -13 1 -20 26 -7 26 6 0 11 7 11 15 0 8 5 15 10 15 6 0 10 7 10
15 0 8 4 15 8 15 10 0 8 66 -2 99 -5 13 -17 34 -28 47 l-21 23 -28 -36 c-16
-19 -26 -39 -24 -44 3 -4 1 -10 -4 -13 -11 -7 -3 -66 11 -83 6 -7 7 -13 2 -13
-5 0 2 -7 14 -16 12 -8 22 -21 22 -27 0 -8 -3 -8 -9 2 -7 10 -10 10 -16 1 -4
-7 -1 -16 6 -21 12 -7 11 -9 -1 -10 -8 -1 -20 -3 -25 -3 -42 -5 -113 -78 -121
-124 -5 -28 -14 -43 -23 -37 -5 3 -12 1 -16 -5 -3 -5 -2 -10 3 -10 5 0 8 -22
6 -50 -1 -27 1 -50 5 -50 4 0 6 -12 5 -27 -1 -16 3 -38 7 -51 12 -32 17 -89 9
-102 -5 -8 -12 -7 -23 4 -8 9 -21 16 -27 16 -6 0 -8 5 -5 10 3 6 -1 10 -9 10
-9 0 -16 5 -16 12 0 9 -3 9 -12 0 -10 -10 -10 -14 0 -21 18 -11 4 -40 -17 -36
-20 4 -83 -49 -96 -80 -15 -34 -14 -108 1 -129 8 -11 14 -15 14 -8 0 6 3 11 8
11 20 -3 34 3 62 31 16 16 30 36 30 45 0 8 4 15 8 15 5 0 7 29 5 65 -2 61 7
84 21 50 3 -8 10 -15 16 -15 14 0 60 -46 60 -59 0 -5 6 -12 13 -14 9 -4 8 -6
-2 -6 -9 -1 -10 -5 -4 -13 5 -7 15 -33 22 -58 7 -25 18 -58 25 -75 6 -16 9
-36 8 -42 -2 -7 2 -13 8 -13 5 0 10 -8 10 -18 0 -10 5 -23 12 -30 7 -7 9 -12
5 -12 -4 0 -3 -9 3 -20 10 -19 8 -20 -26 -15 -48 6 -137 35 -145 47 -3 5 -10
10 -15 10 -20 1 -56 19 -76 38 -12 11 -25 20 -29 20 -4 0 -10 9 -14 20 -3 11
-9 19 -13 17 -8 -2 -72 62 -72 72 0 3 -11 19 -25 34 -14 15 -23 27 -19 27 4 0
0 8 -9 18 -8 9 -20 30 -26 45 -11 28 -31 29 -31 1 0 -8 5 -12 10 -9 6 3 10 -2
10 -12 0 -10 9 -29 20 -43 11 -14 20 -29 20 -34 0 -5 10 -17 22 -27 11 -11 18
-19 14 -19 -4 0 10 -17 32 -38 32 -31 38 -42 30 -56 -14 -25 -4 -41 26 -44 15
-1 41 -9 57 -18 23 -11 29 -12 23 -2 -4 7 2 4 14 -6 12 -11 22 -16 22 -12 0 4
10 -2 22 -13 11 -11 25 -18 30 -15 4 3 8 0 8 -5 0 -6 3 -10 8 -9 4 1 17 -3 28
-10 12 -6 24 -8 28 -5 3 3 6 2 6 -4 0 -5 6 -10 13 -11 6 0 26 -3 42 -6 17 -2
33 -5 37 -5 6 -1 68 -88 68 -96 0 -3 9 -16 21 -29 12 -13 21 -27 20 -30 -1 -4
8 -16 19 -29 33 -37 70 -84 70 -91 0 -4 9 -16 20 -28 24 -26 25 -38 4 -38 -8
0 -13 3 -11 8 3 4 -25 7 -61 8 -81 1 -237 17 -237 24 0 1 -20 4 -45 6 -25 3
-49 9 -55 13 -5 4 -17 7 -25 6 -8 -1 -39 7 -67 16 -29 10 -53 15 -53 11 0 -4
-5 1 -11 11 -6 9 -14 15 -20 12 -5 -4 -45 13 -89 36 -81 43 -210 152 -210 177
0 7 -4 11 -9 8 -8 -5 -15 5 -21 29 -3 17 -22 35 -30 30 -4 -2 -6 9 -4 26 2 18
0 28 -6 24 -6 -3 -10 0 -10 8 0 8 -6 17 -13 20 -10 4 -13 -2 -9 -19 2 -13 9
-24 15 -24 6 0 8 -3 4 -6 -11 -11 47 -110 85 -145 10 -9 16 -18 14 -20 -1 -2
6 -12 16 -21 10 -10 18 -15 18 -12 0 3 17 -13 39 -35 21 -22 41 -37 45 -34 3
4 6 1 6 -6 0 -7 4 -10 9 -7 7 5 21 -14 21 -29 0 -5 -54 -19 -72 -18 -10 0 -18
-4 -18 -8 0 -5 -3 -8 -7 -8 -32 5 -74 -3 -71 -13 4 -10 50 -16 61 -8 1 1 16 3
32 5 34 3 89 12 122 19 13 3 25 0 28 -5 4 -5 11 -7 16 -4 5 4 9 1 9 -5 0 -6 5
-8 11 -5 5 4 22 2 37 -4 15 -6 39 -13 54 -15 15 -3 31 -7 36 -10 5 -3 19 -7
33 -10 13 -2 38 -10 54 -17 17 -7 34 -11 39 -10 5 1 3 -5 -4 -14 -9 -11 -15
-13 -20 -4 -6 8 -9 8 -11 0 -3 -7 -13 -14 -24 -16 -11 -2 -20 -4 -20 -5 0 -1
-7 -3 -15 -5 -8 -2 -33 -11 -55 -21 -22 -10 -42 -18 -45 -19 -3 0 -24 -11 -46
-23 -23 -11 -45 -18 -49 -14 -3 4 -5 0 -3 -8 2 -9 -4 -14 -14 -14 -10 1 -18
-2 -18 -6 0 -5 -10 -12 -22 -16 -13 -4 -34 -14 -47 -23 -13 -8 -31 -16 -40
-18 -9 -1 -17 -7 -19 -12 -2 -6 -11 -11 -21 -11 -9 0 -22 -5 -29 -12 -7 -7
-12 -8 -12 -4 0 5 -11 1 -25 -8 -14 -9 -30 -14 -35 -11 -6 3 -10 2 -10 -4 0
-6 -7 -8 -15 -5 -8 4 -15 1 -15 -5 0 -6 -7 -11 -15 -11 -8 0 -15 6 -15 13 0 9
-2 9 -8 0 -5 -7 -32 -14 -60 -15 -29 -2 -52 -7 -52 -13 0 -7 -3 -7 -8 0 -4 6
-25 11 -47 13 -22 1 -51 3 -64 5 -13 1 -26 -3 -28 -9 -4 -11 9 -13 139 -17 47
-1 84 1 82 5 -3 4 8 6 23 4 24 -3 107 18 163 41 8 3 18 5 23 5 4 -1 7 3 7 9 0
5 5 7 10 4 6 -3 13 0 16 9 3 8 14 13 25 11 10 -2 19 0 19 6 0 5 7 9 15 9 8 0
15 4 15 9 0 5 12 12 27 16 15 3 30 10 33 13 3 4 21 14 40 23 120 56 149 68
183 74 58 11 189 13 215 4 12 -5 22 -5 22 0 0 4 23 2 51 -5 29 -8 56 -11 60
-8 5 3 9 0 9 -5 0 -6 3 -10 8 -9 4 1 23 -4 42 -11 19 -8 41 -15 47 -16 7 -2
19 -10 28 -18 8 -9 24 -19 35 -22 11 -4 18 -10 15 -15 -3 -5 3 -11 12 -14 20
-7 79 -83 75 -97 -1 -5 2 -9 8 -9 5 0 10 -7 10 -15 0 -8 5 -15 11 -15 5 0 8
-4 4 -9 -3 -5 0 -15 7 -23 7 -7 22 -30 32 -51 11 -20 26 -37 35 -37 9 -1 29
-12 46 -25 25 -21 26 -23 7 -18 -12 3 -22 9 -22 13 0 5 -9 6 -21 3 -14 -4 -17
-9 -10 -16 6 -6 11 -21 11 -34 0 -13 5 -23 12 -23 6 0 9 -3 6 -6 -3 -3 0 -31
7 -62 7 -31 11 -60 9 -64 -3 -5 0 -8 7 -8 7 0 10 -3 6 -6 -7 -7 18 -56 58
-117 34 -50 24 -47 -13 4 -36 48 -46 40 -48 -41 -1 -64 -12 -182 -20 -225 -3
-16 -7 -44 -9 -62 -1 -17 -6 -37 -10 -44 -6 -8 -4 -10 4 -4 10 6 11 3 2 -12
-6 -11 -8 -23 -4 -26 3 -4 0 -13 -7 -22 -7 -8 -9 -15 -5 -15 4 0 2 -6 -4 -13
-6 -8 -8 -17 -4 -20 3 -4 1 -7 -5 -7 -7 0 -11 -3 -10 -8 2 -4 -5 -18 -15 -32
-9 -13 -17 -20 -17 -15 0 5 -6 0 -14 -11 -8 -10 -18 -19 -23 -20 -23 -2 -123
-46 -123 -54 0 -8 -106 1 -117 10 -2 2 -6 3 -10 4 -5 1 -14 5 -20 9 -7 5 -13
6 -13 4 0 -2 -18 -1 -40 3 -22 4 -40 3 -40 -1 0 -5 -9 -9 -20 -9 -29 0 -96
-36 -104 -55 -3 -9 -10 -13 -16 -10 -5 3 -10 1 -10 -5 0 -13 -71 -82 -78 -76
-2 3 -11 -2 -19 -10 -8 -8 -20 -11 -26 -7 -15 9 -34 13 -74 15 -18 1 -33 5
-33 9 0 4 -8 8 -17 7 -25 0 -81 9 -91 16 -4 2 -14 1 -22 -4 -8 -5 -22 -4 -33
2 -14 7 -17 7 -13 -1 5 -7 -3 -11 -21 -12 -15 0 -37 -2 -48 -4 -64 -11 -92
-18 -107 -26 -10 -5 -18 -7 -18 -3 0 3 -6 1 -13 -5 -8 -6 -16 -8 -20 -5 -3 3
-15 0 -28 -6 -12 -7 -38 -14 -58 -15 -55 -4 -57 -5 -43 -14 15 -9 69 -7 112 4
14 4 35 8 47 9 12 1 25 5 29 9 13 12 22 8 20 -10 0 -10 -10 -26 -21 -35 -11
-10 -16 -17 -12 -18 10 0 -26 -53 -65 -95 -41 -44 -34 -52 7 -9 19 19 35 41
35 47 0 5 3 8 6 4 8 -7 34 17 34 32 0 6 5 11 10 11 6 0 10 7 10 15 0 20 69 87
81 79 5 -3 9 -1 9 5 0 10 19 9 38 -2 6 -5 12 -4 12 2 0 7 8 7 25 -1 14 -6 25
-16 25 -22 -1 -17 -26 -47 -33 -39 -4 3 -7 -1 -7 -10 0 -17 -29 -71 -69 -127
l-24 -35 31 32 c18 18 32 36 32 40 1 11 110 136 110 126 0 -4 5 -1 10 8 5 9
19 15 32 13 13 -1 31 -3 41 -3 11 -1 15 -6 11 -13 -4 -6 -3 -8 3 -5 6 4 31 1
56 -7 25 -8 48 -11 51 -8 4 3 6 -2 6 -11 0 -8 -7 -23 -16 -32 -16 -15 -16 -16
2 -13 23 4 44 22 44 39 0 7 2 10 5 7 3 -3 34 21 68 54 57 55 137 107 137 89 0
-5 12 -7 28 -6 15 1 38 -6 52 -14 13 -9 25 -15 27 -13 2 1 5 1 8 1 3 -1 10 -3
15 -4 6 -1 16 -3 23 -4 6 -1 -5 -11 -25 -22 -21 -11 -38 -23 -38 -28 0 -8 -63
-40 -90 -45 -37 -7 -112 -51 -103 -59 3 -4 0 -7 -8 -7 -9 0 -24 -8 -35 -19
-25 -22 -66 -46 -76 -43 -5 1 -8 -3 -8 -8 0 -5 -3 -9 -7 -8 -5 0 -15 -2 -23
-5 -8 -3 -29 -8 -45 -9 -35 -4 -105 -42 -105 -58 0 -6 -3 -9 -7 -7 -5 3 -14
-1 -21 -9 -7 -8 -9 -14 -5 -15 4 0 -2 -4 -15 -10 -13 -5 -20 -13 -17 -19 3 -5
0 -10 -7 -11 -13 0 -66 -59 -53 -59 3 0 18 12 34 27 42 41 81 72 81 66 0 -3 8
1 18 9 21 19 79 38 126 43 29 2 35 -1 39 -21 2 -13 -2 -32 -9 -42 -7 -11 -10
-22 -7 -26 3 -3 1 -6 -5 -6 -7 0 -12 -7 -12 -15 0 -8 -4 -15 -9 -15 -8 0 -8
-11 -1 -40 0 -3 7 10 15 28 8 17 19 32 25 32 6 0 9 4 5 10 -3 5 3 18 15 30 11
11 20 27 20 35 0 8 3 15 8 15 4 0 33 25 65 55 31 31 57 53 57 50 0 -3 6 -1 13
4 57 48 77 61 89 61 8 0 19 5 26 12 7 7 12 8 12 3 0 -5 6 0 14 11 14 18 15 18
21 1 8 -19 -19 -67 -37 -67 -6 0 -18 -7 -27 -15 -9 -8 -29 -27 -46 -43 -34
-30 -80 -84 -110 -126 -11 -16 -33 -42 -48 -58 -52 -55 -20 -40 40 19 68 67
157 143 185 159 10 5 15 13 12 17 -4 4 0 7 9 7 10 0 17 4 17 8 0 4 13 16 30
25 16 10 35 23 42 30 18 17 89 62 111 70 9 3 17 11 17 16 0 5 13 12 30 16 16
4 34 14 40 23 5 9 10 13 10 9 0 -12 120 134 120 146 0 6 3 8 6 4 4 -3 -4 -23
-17 -44 -13 -21 -23 -41 -21 -46 1 -4 -2 -7 -7 -7 -5 0 -12 -11 -15 -25 -4
-14 -11 -25 -16 -25 -6 0 -10 -6 -10 -13 0 -16 -55 -77 -69 -77 -6 0 -29 -23
-51 -51 -22 -28 -40 -48 -40 -45 0 3 -12 -7 -27 -23 -16 -16 -31 -28 -35 -27
-3 0 -18 -9 -32 -21 -14 -13 -26 -20 -26 -17 0 15 -97 -109 -106 -136 -1 -3
-5 -15 -9 -27 -4 -13 -11 -23 -16 -23 -5 0 -8 -3 -8 -7 3 -20 -2 -44 -8 -40
-5 3 -9 -10 -10 -28 -1 -26 2 -33 13 -28 8 3 13 8 10 10 -3 3 5 20 18 37 13
17 35 54 49 81 14 28 40 66 58 86 32 33 90 76 97 70 2 -1 16 12 32 29 15 16
33 30 39 30 6 0 11 4 11 8 0 5 6 9 13 9 7 0 13 -9 13 -19 0 -10 -5 -18 -10
-18 -5 0 -7 -3 -3 -6 3 -4 0 -22 -8 -41 -8 -19 -12 -39 -9 -44 3 -5 0 -9 -5
-9 -6 0 -11 -8 -10 -17 0 -11 3 -13 6 -5 2 6 8 10 12 7 4 -2 22 24 39 58 18
34 32 58 32 52 1 -5 6 0 13 12 15 27 86 103 96 103 3 0 15 16 25 35 11 19 23
35 28 35 5 0 6 5 3 10 -3 6 -1 10 4 10 6 0 11 12 11 26 0 14 3 23 8 20 4 -2 7
11 6 30 -1 19 2 34 8 34 5 0 7 4 3 9 -3 5 -1 12 4 16 6 3 8 -6 4 -22 -3 -16
-6 -46 -8 -68 -1 -22 -3 -42 -5 -45 -1 -3 -2 -8 -1 -12 0 -5 -4 -8 -9 -8 -5 0
-9 -3 -8 -7 4 -19 -15 -83 -25 -83 -6 0 -7 -3 -4 -6 6 -6 -42 -103 -64 -130
-5 -6 -6 -14 -2 -17 3 -4 1 -7 -5 -7 -7 0 -12 -7 -12 -15 0 -8 -4 -15 -10 -15
-5 0 -9 -3 -8 -7 1 -5 -4 -21 -11 -37 -28 -69 -34 -196 -11 -256 4 -11 7 -26
8 -48 1 -13 7 -20 12 -17 6 3 10 -1 10 -10 0 -9 4 -14 10 -10 5 3 6 15 1 28
-5 12 -8 41 -7 65 0 23 -3 42 -9 42 -7 0 -7 3 0 8 6 4 11 24 13 45 2 21 8 50
14 65 6 15 11 30 10 34 -1 5 4 8 12 8 13 0 30 -29 31 -55 1 -5 6 -20 13 -31 6
-12 8 -25 4 -29 -4 -5 -1 -5 6 -1 7 4 10 12 7 17 -5 8 -8 18 -18 64 -2 6 -6
16 -10 23 -5 7 -3 12 5 12 8 0 9 3 3 8 -18 13 -4 99 15 87 4 -3 11 2 14 11 3
8 10 12 16 9 6 -4 7 -12 4 -18 -4 -7 -4 -9 1 -5 8 7 47 -57 48 -79 0 -7 4 -13
9 -13 12 0 10 6 -12 50 -11 22 -18 40 -14 40 4 0 2 6 -2 13 -5 6 -9 19 -8 27
1 8 2 22 3 30 0 8 12 29 26 45 63 74 75 87 76 79 0 -5 4 0 9 11 7 16 9 12 9
-18 1 -26 -3 -36 -11 -31 -8 5 -8 3 -2 -7 5 -8 10 -25 11 -39 2 -14 5 -41 7
-60 14 -100 16 -131 16 -195 0 -63 -5 -130 -10 -130 -7 0 -6 -56 1 -61 5 -3 8
-2 7 3 -1 4 3 18 10 31 7 12 15 35 17 50 2 15 7 39 10 53 5 25 13 104 14 142
1 17 2 17 31 1 16 -10 36 -34 44 -53 8 -20 15 -30 15 -23 1 19 -34 84 -56 104
-10 9 -22 23 -28 30 -14 18 -13 71 2 86 7 7 10 19 7 26 -3 7 1 20 9 28 8 8 18
30 22 49 12 57 23 66 20 17 -2 -32 1 -51 11 -59 8 -6 14 -22 14 -35 0 -23 29
-36 31 -14 1 6 3 15 4 20 1 6 3 24 4 40 0 17 5 30 10 30 13 0 70 -118 73 -150
2 -14 7 -28 11 -31 4 -3 9 -25 12 -50 2 -24 5 -44 6 -44 8 0 4 -77 -5 -83 -16
-10 -50 -81 -43 -89 4 -3 7 1 7 9 0 9 7 19 16 22 8 3 12 10 9 16 -3 5 0 10 9
10 8 0 17 6 20 13 3 8 10 6 23 -8 10 -11 28 -28 39 -37 24 -21 134 -37 134
-20 0 9 -31 25 -53 27 -15 1 -77 56 -77 70 0 7 -6 16 -12 18 -10 4 -10 6 0 6
8 1 10 6 5 14 -4 6 -9 35 -10 62 -1 28 -2 51 -3 53 -2 1 -4 7 -5 12 -1 6 -4
13 -5 18 -2 4 -4 12 -5 17 -2 6 -4 12 -5 15 -1 3 -3 13 -5 22 -8 40 -27 88
-36 88 -6 0 -9 6 -8 13 1 6 -7 34 -19 60 -12 27 -22 55 -22 63 0 8 -7 27 -16
42 -15 25 -15 25 0 8 9 -11 16 -17 16 -13 0 11 54 -47 67 -72 7 -13 13 -32 13
-43 0 -10 5 -16 10 -13 6 3 10 -5 10 -18 0 -14 7 -28 16 -31 13 -5 14 -3 7 6
-18 23 -24 66 -11 74 7 4 10 4 6 0 -3 -4 9 -23 29 -42 19 -19 31 -34 27 -34
-4 0 0 -8 9 -18 9 -10 18 -29 19 -43 2 -13 6 -26 10 -29 4 -3 8 -20 10 -38 1
-18 5 -32 9 -32 4 0 6 -14 5 -30 -1 -20 2 -29 10 -26 7 3 10 -2 7 -15 -6 -20
12 -49 29 -49 6 0 5 7 -2 15 -7 8 -10 15 -6 15 3 0 1 12 -5 28 -12 30 -19 100
-12 118 2 7 12 15 20 18 21 8 103 -32 103 -50 0 -8 5 -14 10 -14 6 0 10 -7 10
-15 0 -8 4 -15 9 -15 10 0 27 -39 23 -53 -1 -5 1 -6 6 -3 5 3 15 -6 22 -19 7
-14 17 -25 22 -25 4 0 8 -4 8 -10 0 -13 37 -50 50 -50 5 0 13 -6 17 -13 4 -7
19 -20 33 -29 14 -9 41 -31 60 -47 56 -49 60 -52 60 -45 0 3 -14 19 -30 34
-17 15 -30 26 -30 24 0 -3 -25 23 -55 57 -30 34 -55 68 -55 75 0 8 -4 14 -10
14 -5 0 -10 6 -10 13 0 25 -61 130 -94 161 -67 61 -84 76 -89 76 -4 0 -17 11
-31 25 -14 14 -23 25 -20 25 9 0 -19 25 -58 51 -21 14 -35 29 -31 32 3 4 -1 7
-10 7 -9 0 -16 3 -15 7 4 14 -39 73 -47 65 -5 -4 -5 -1 0 7 7 12 10 11 22 -4
7 -11 13 -23 13 -28 0 -5 7 -6 16 -3 9 4 27 -1 40 -9 13 -9 24 -12 24 -8 0 5
4 3 8 -2 10 -14 120 -85 131 -85 6 0 14 -6 18 -13 4 -7 19 -20 33 -29 14 -9
35 -25 47 -37 12 -12 26 -21 30 -21 10 0 57 -73 92 -144 26 -52 79 -108 93
-100 4 3 8 1 8 -4 0 -7 37 -30 60 -37 3 -1 18 -7 33 -13 16 -7 33 -12 38 -12
5 0 12 -7 15 -15 4 -8 12 -15 20 -15 8 0 14 -5 14 -11 0 -5 5 -7 11 -3 8 4 5
10 -7 17 -11 6 -24 15 -31 21 -33 29 -43 36 -53 36 -5 0 -10 5 -10 10 0 6 -6
10 -14 10 -7 0 -29 13 -47 30 -19 16 -37 30 -40 30 -4 0 -26 39 -50 87 -41 81
-123 183 -149 183 -5 0 -10 8 -10 17 0 9 -3 14 -6 10 -6 -6 -17 1 -57 38 -12
12 -26 21 -32 22 -5 1 -11 7 -13 15 -2 8 0 9 5 3 4 -5 19 -12 33 -14 14 -1 37
-11 51 -22 14 -10 29 -16 33 -12 3 3 6 2 6 -4 0 -6 22 -13 49 -17 49 -6 104
-37 150 -82 13 -13 28 -24 32 -24 5 0 9 -7 9 -15 0 -8 4 -15 8 -15 4 0 25 -16
45 -35 20 -19 39 -35 41 -35 2 0 21 -16 42 -35 20 -19 40 -33 42 -30 3 3 15
-9 28 -26 12 -17 25 -26 28 -21 3 6 -1 13 -10 16 -8 3 -12 10 -9 16 3 5 2 10
-2 10 -12 0 -100 86 -113 110 -10 19 -10 20 9 8 12 -7 21 -15 21 -18 0 -3 22
-6 50 -6 42 -1 54 -7 79 -33 16 -17 34 -31 40 -31 6 0 11 -4 11 -9 0 -5 10
-11 23 -14 15 -4 5 9 -34 46 -81 74 -85 77 -118 77 -16 0 -33 5 -36 10 -3 6
-14 10 -24 10 -9 0 -27 9 -39 20 -12 11 -26 20 -32 20 -5 0 -10 5 -10 10 0 11
-125 139 -138 141 -4 1 -28 3 -54 4 -39 1 -52 7 -77 34 -34 37 -38 46 -16 38
8 -4 17 -2 20 3 3 4 23 11 44 15 53 9 93 -10 166 -79 33 -31 63 -56 68 -56 4
0 7 -7 7 -15 0 -9 10 -19 23 -24 28 -11 37 -12 37 -6 0 3 -3 5 -6 4 -7 -1 -24
22 -24 32 0 3 10 5 23 3 12 -1 28 -3 35 -3 7 -1 10 -6 7 -11 -3 -6 -2 -10 4
-10 5 0 23 -12 40 -26 20 -16 29 -20 25 -10 -3 9 -10 16 -16 16 -5 0 -6 5 -2
12 4 6 3 8 -4 4 -6 -3 -13 3 -17 14 -3 11 -11 20 -17 20 -15 0 -4 23 13 26 51
10 73 16 79 19 3 2 26 -12 49 -31 24 -19 41 -34 37 -34 -4 0 0 -10 8 -21 8
-12 12 -27 10 -34 -3 -7 2 -15 10 -18 12 -5 13 -2 6 18 -5 14 -7 25 -4 25 4 0
1 7 -6 15 -6 8 -9 19 -6 24 4 6 -3 15 -14 21 -11 6 -20 17 -20 25 0 16 34 38
44 28 3 -3 19 -6 36 -5 16 0 30 -3 30 -7 0 -4 8 -16 18 -27 10 -10 21 -27 24
-36 4 -9 17 -22 29 -28 17 -10 20 -9 16 2 -2 7 -9 12 -14 11 -5 -1 -9 6 -9 15
-1 9 -5 26 -9 36 -7 16 -5 18 18 14 15 -3 27 -2 27 1 0 4 18 5 40 3 30 -3 40
0 40 10 0 15 -26 18 -48 4 -7 -4 -12 -2 -12 4 0 7 -12 10 -27 9 -31 -3 -133
21 -133 31 0 8 -50 5 -79 -5 -14 -4 -21 -2 -21 6 0 10 -3 10 -12 1 -7 -7 -22
-12 -34 -12 -13 0 -26 -5 -29 -10 -4 -6 -13 -7 -23 -2 -9 5 -24 8 -32 7 -8 -1
-20 3 -27 8 -7 5 -17 6 -22 3 -5 -4 -12 -2 -15 3 -4 5 -14 8 -24 7 -9 -2 -24
5 -33 15 -9 10 -19 16 -22 13 -3 -3 -8 4 -12 15 -3 12 -12 21 -20 21 -7 0 -15
7 -18 15 -6 14 -87 61 -87 49 0 -4 -6 -1 -14 5 -10 8 -16 9 -21 1 -4 -6 -12
-7 -21 -2 -17 9 -104 -14 -115 -31 -3 -5 -10 -8 -15 -7 -5 1 -31 -2 -57 -5
-29 -4 -53 -3 -61 4 -7 6 -16 8 -19 4 -4 -3 -7 -1 -7 5 0 7 -3 11 -7 11 -21
-3 -33 2 -27 13 5 7 3 8 -5 3 -21 -13 -59 16 -75 56 -9 22 -20 39 -25 39 -9 0
-39 58 -46 88 -2 9 -8 31 -14 49 -5 17 -7 34 -3 37 3 3 1 6 -4 6 -5 0 -11 12
-12 27 -4 56 -11 93 -18 104 -5 8 -3 9 5 4 10 -6 11 -3 3 11 -5 11 -10 37 -10
59 0 22 -1 45 -1 52 -2 22 -33 1 -47 -31 -8 -19 -13 -24 -14 -13 0 18 27 66
45 79 5 4 6 8 2 8 -4 0 -3 9 2 19 10 18 20 83 24 161 1 19 5 37 9 40 4 3 10
21 13 39 3 18 12 46 20 61 8 15 11 30 8 34 -4 3 -2 6 4 6 12 0 35 48 28 60 -3
5 0 10 5 12 6 2 12 11 13 20 6 41 141 222 166 223 3 0 17 8 31 17 14 9 34 18
45 20 11 2 23 6 26 11 5 7 25 13 83 23 16 3 40 10 53 15 15 6 23 5 23 -2 0 -8
4 -8 13 -2 20 16 217 9 228 -8 6 -10 9 -10 9 -1 0 12 21 13 30 0 3 -4 15 -9
25 -11 11 -2 30 -8 41 -15 12 -6 24 -8 28 -5 3 3 6 1 6 -6 0 -8 8 -11 19 -8
15 3 18 1 14 -11 -5 -11 -2 -14 10 -9 9 3 17 2 17 -2 0 -5 20 -17 45 -28 25
-10 45 -21 45 -25 0 -5 7 -8 15 -8 19 0 19 7 1 26 -8 8 -22 11 -32 7 -13 -5
-15 -3 -9 7 5 8 4 11 -3 6 -5 -3 -12 -3 -14 1 -4 11 -54 40 -100 59 -21 9 -38
20 -38 25 0 5 -7 6 -15 3 -8 -4 -15 -1 -15 6 0 6 -4 9 -9 5 -5 -3 -12 -1 -16
5 -3 5 -17 10 -31 10 -14 0 -23 4 -20 8 2 4 -9 9 -26 10 -17 1 -40 8 -51 14
-21 11 -21 11 3 20 14 6 30 11 35 12 6 1 15 4 20 8 9 5 65 19 82 20 5 0 19 5
33 10 14 6 34 11 45 13 11 1 31 7 45 12 14 6 34 9 45 6 35 -8 99 -16 137 -17
21 -1 38 -5 38 -9 0 -4 9 -3 19 3 14 7 22 7 27 -1 4 -8 9 -7 15 2 6 10 9 10 9
2 0 -9 7 -10 23 -4 12 4 39 7 60 7 20 -1 37 3 37 8 0 5 3 7 6 3 3 -3 18 -1 33
5 14 5 34 11 45 14 23 4 34 14 17 14 -7 0 -9 5 -5 11 3 6 -6 3 -21 -7 -31 -20
-37 -22 -110 -30 -87 -9 -183 -6 -191 7 -2 5 -10 6 -17 3 -7 -2 -30 2 -51 11
l-38 16 48 36 c49 38 179 163 153 148 -8 -5 -4 3 9 17 12 13 22 28 22 32 0 4
9 21 21 37 11 16 18 29 14 29 -3 0 1 14 10 30 9 17 12 30 8 30 -11 0 -49 -59
-45 -71 1 -5 -5 -12 -13 -15 -8 -4 -15 -12 -15 -20 0 -15 -12 -30 -77 -102
-24 -26 -43 -43 -43 -38 0 5 -9 -3 -21 -18 -11 -14 -27 -26 -35 -26 -8 0 -14
-4 -14 -9 0 -5 -11 -12 -25 -15 -14 -4 -25 -11 -25 -17 0 -6 -4 -8 -9 -4 -5 3
-15 0 -23 -7 -7 -7 -18 -14 -23 -15 -6 -1 -17 -4 -26 -8 -12 -5 -18 2 -23 25
-3 18 -3 37 1 43 3 6 1 7 -5 3 -7 -4 -12 -1 -12 10 0 22 -67 87 -107 103 -42
17 -101 21 -135 9 -23 -8 -25 -13 -18 -37 15 -54 87 -140 118 -141 6 0 12 -4
12 -8 0 -4 10 -8 22 -9 11 -1 24 -7 28 -14 6 -8 9 -8 14 0 10 15 26 14 26 -3
0 -9 -22 -18 -65 -27 -36 -7 -65 -15 -65 -18 0 -3 -15 -5 -32 -5 -18 1 -37 -1
-43 -4 -5 -4 -28 -7 -50 -8 -22 -1 -40 -3 -40 -4 0 -3 -89 -12 -137 -14 -27 0
-48 -3 -48 -6 0 -3 -11 -6 -25 -6 -24 -2 -28 10 -12 31 44 56 107 150 107 157
0 5 4 7 9 4 8 -5 36 42 33 57 -1 4 5 7 13 7 9 0 12 6 8 17 -4 11 -3 14 5 9 14
-8 16 -36 3 -36 -11 0 -3 -67 11 -93 27 -51 98 -96 117 -74 6 8 6 18 1 27 -5
9 -5 19 2 27 7 9 7 13 -2 13 -7 0 -10 6 -7 14 7 17 -46 82 -84 101 -16 9 -29
21 -29 28 1 21 26 46 51 51 13 3 26 5 29 6 3 1 10 3 15 4 40 6 75 19 75 27 0
5 3 8 8 7 7 -2 63 23 72 32 25 26 86 41 178 43 48 2 62 5 62 17 0 10 3 11 8 4
8 -12 72 -7 72 6 0 4 9 10 20 13 20 5 28 27 10 27 -5 0 -10 -4 -10 -10 0 -5
-9 -10 -21 -10 -11 0 -18 -4 -15 -8 2 -4 -10 -7 -27 -7 -18 1 -38 -3 -44 -8
-9 -6 -13 -5 -13 4 0 8 -6 6 -16 -7 -8 -10 -13 -13 -9 -6 4 8 -1 12 -15 12
-11 0 -23 7 -26 15 -4 8 -11 12 -18 8 -15 -9 11 22 55 66 20 20 44 52 55 71
10 19 22 37 25 40 15 12 49 90 39 90 -5 0 -10 -5 -10 -11 0 -5 -4 -7 -10 -4
-5 3 -10 -3 -10 -14 0 -12 -3 -21 -7 -21 -5 0 -17 -18 -27 -40 -11 -22 -24
-40 -29 -40 -6 0 -8 -3 -4 -6 3 -4 -11 -22 -31 -42 -20 -19 -30 -32 -22 -27 8
4 -1 -6 -20 -23 -19 -16 -48 -42 -65 -56 -16 -14 -36 -26 -42 -26 -7 0 -13 -4
-13 -10 0 -5 -4 -10 -9 -10 -5 0 -26 -8 -47 -17 -22 -9 -42 -16 -46 -15 -5 1
-8 -2 -8 -6 0 -4 -8 -8 -17 -9 -10 0 -35 -3 -55 -6 -35 -5 -50 4 -29 18 6 3 8
14 6 25 -2 11 0 20 4 20 6 0 39 84 46 120 1 3 8 25 15 50 7 25 14 47 15 50 1
3 5 18 10 33 4 15 10 26 12 23 3 -2 18 8 33 24 15 16 31 26 34 23 3 -4 6 2 6
12 0 10 2 16 5 13 3 -3 19 6 34 21 47 43 65 56 74 53 5 -1 6 2 2 8 -4 7 -17 3
-36 -10 -16 -12 -29 -18 -29 -13 0 4 -7 -1 -16 -12 -8 -11 -18 -20 -22 -20 -5
0 -20 -12 -36 -28 -33 -34 -49 -27 -41 19 11 74 17 131 19 179 0 28 6 53 11
57 6 5 5 8 -3 8 -7 0 -10 5 -7 10 3 6 1 10 -4 10 -12 0 -12 1 -16 -50 -2 -20
-6 -51 -9 -70 -8 -43 -17 -90 -21 -110 -2 -8 -4 -25 -4 -38 -1 -13 -5 -21 -10
-18 -5 4 -7 -2 -5 -12 3 -9 -5 -28 -17 -41 l-23 -24 -9 21 c-6 12 -13 22 -18
22 -8 0 -34 62 -38 90 -3 24 -21 7 -21 -20 0 -16 5 -30 11 -30 5 0 8 -4 5 -9
-7 -10 16 -71 26 -71 4 0 8 -7 8 -15 0 -9 6 -18 14 -21 19 -7 13 -52 -20 -144
-1 -3 -5 -15 -9 -27 -4 -13 -12 -23 -18 -23 -6 0 -8 -3 -4 -6 3 -3 1 -11 -4
-18 -46 -55 -59 -72 -59 -80 0 -14 -23 11 -26 28 -4 29 -40 92 -71 125 -28 30
-33 32 -39 16 -5 -11 -1 -21 10 -27 9 -5 14 -13 11 -19 -4 -5 -1 -9 4 -9 6 0
11 -9 11 -19 0 -11 5 -21 11 -23 7 -2 13 -26 15 -53 2 -28 5 -59 7 -70 2 -11
-1 -23 -7 -27 -8 -5 -7 -8 2 -8 22 0 -26 -77 -103 -165 -40 -47 -59 -70 -60
-74 0 -3 -11 -17 -24 -32 -48 -55 -78 -5 -86 147 -4 60 -7 121 -8 137 -1 15
-5 27 -9 27 -5 0 -8 5 -8 11 0 5 6 7 13 3 9 -6 9 -4 1 7 -6 8 -10 29 -9 47 0
17 -2 32 -5 32 -5 0 -6 34 -1 72 1 6 90 103 165 178 46 46 96 89 102 87 6 -3
63 53 74 73 7 13 6 19 -5 23 -9 4 -12 1 -9 -8 7 -18 -44 -67 -60 -58 -6 3 -8
3 -4 -2 5 -5 -2 -13 -15 -20 -12 -6 -21 -16 -20 -22 1 -6 -7 -9 -19 -5 -14 3
-19 1 -14 -6 4 -7 3 -12 -3 -12 -5 0 -35 -25 -66 -57 -64 -63 -148 -126 -144
-106 1 4 -1 17 -5 28 -5 11 -10 27 -13 35 -8 21 -10 151 -3 155 4 2 5 18 4 36
-2 24 9 51 42 101 25 37 48 76 51 85 4 10 13 24 20 31 7 8 11 18 8 23 -4 5 -3
9 2 9 4 0 19 28 33 63 28 71 27 68 29 103 0 14 5 23 9 20 4 -2 9 5 9 17 3 39
12 122 14 122 0 0 2 26 4 58 1 31 -2 57 -6 57 -10 0 -10 -2 -14 -45 -2 -16 -4
-30 -5 -30 -3 0 -9 -40 -13 -80 -1 -16 -6 -36 -11 -44 -6 -9 -5 -12 2 -7 6 3
4 -7 -4 -24 -9 -16 -17 -42 -20 -56 -3 -15 -10 -37 -17 -48 -6 -12 -12 -23
-12 -26 -4 -19 -41 -90 -47 -90 -4 0 -4 -7 -1 -17 4 -11 3 -14 -5 -9 -7 4 -12
2 -12 -4 0 -6 -17 -37 -37 -68 l-38 -56 -6 29 c-3 17 -1 38 4 49 6 13 6 16 -2
12 -6 -4 -12 -2 -12 3 -1 6 -3 16 -4 21 -1 6 -4 16 -5 23 -1 6 -5 1 -9 -13 -4
-14 -4 -41 0 -60 5 -21 4 -36 -2 -38 -6 -3 -5 -9 2 -18 9 -11 9 -18 1 -26 -12
-12 -13 -10 -16 14 0 7 -9 14 -19 16 -24 5 -100 -76 -94 -100 3 -10 1 -20 -3
-23 -9 -6 -7 -49 5 -84 16 -50 106 22 126 102 6 24 7 18 4 -26 -3 -43 -1 -56
8 -51 9 5 9 4 0 -6 -12 -13 -7 -66 8 -86 5 -6 3 -16 -3 -22 -7 -7 -8 -12 -2
-12 11 0 14 -13 15 -62 1 -15 4 -26 8 -24 3 2 6 -20 6 -50 -1 -30 3 -54 8 -54
4 0 3 -8 -2 -18 -7 -13 -6 -23 1 -30 9 -9 9 -15 0 -24 -15 -15 -42 -19 -42 -7
0 5 -7 9 -15 9 -9 0 -18 7 -21 15 -4 8 -10 13 -14 10 -4 -3 -11 2 -14 11 -3 8
-11 12 -17 9 -11 -8 -9 -12 65 -87 25 -26 46 -52 46 -58 0 -6 4 -9 8 -6 10 6
12 -11 16 -154 2 -63 6 -136 8 -163 4 -41 1 -52 -23 -80 -16 -17 -32 -36 -36
-42 -49 -61 -74 -97 -94 -135 -13 -25 -28 -48 -32 -51 -5 -3 -9 -9 -8 -12 0
-4 -6 -22 -14 -41 -8 -20 -15 -40 -15 -46 0 -5 -4 -10 -10 -10 -5 0 -10 -11
-10 -24 0 -14 -5 -28 -11 -31 -5 -4 -8 -12 -6 -18 2 -6 -2 -23 -9 -36 -7 -14
-11 -28 -8 -33 3 -4 1 -8 -4 -8 -11 0 -12 -5 -15 -117 -1 -50 -5 -95 -10 -99
-4 -4 -6 2 -4 15 3 21 -7 110 -18 159 -3 12 -7 31 -9 42 -3 11 -8 25 -12 32
-9 14 -12 118 -4 118 4 0 6 10 5 22 -1 12 5 48 12 81 8 33 12 65 9 72 -2 7 -1
16 4 21 5 5 12 23 15 39 9 42 13 60 16 60 1 0 3 9 5 20 1 11 5 31 8 45 21 93
29 145 30 187 1 18 5 33 9 33 4 0 4 8 -2 17 -5 10 -5 26 0 40 5 14 5 23 -1 23
-12 0 -9 22 5 32 7 5 6 8 0 8 -6 0 -12 19 -13 43 -3 76 -8 104 -33 165 -14 36
-11 65 15 124 14 30 30 75 37 99 15 52 19 179 5 179 -5 0 -6 3 -3 7 4 3 2 12
-5 20 -9 11 -7 12 8 6 17 -6 17 -5 5 10 -7 9 -20 17 -27 17 -8 0 -14 6 -14 14
0 22 -49 76 -65 70 -21 -9 -53 -95 -49 -134 2 -19 5 -42 6 -50 2 -22 45 -61
60 -55 18 7 48 57 49 82 0 10 3 13 6 5 2 -6 8 -10 12 -8 4 3 8 -1 8 -9 0 -8
-4 -12 -9 -9 -12 7 -5 -39 7 -48 6 -5 5 -8 -3 -8 -7 0 -10 -4 -7 -10 9 -15
-14 -89 -36 -111 -10 -10 -16 -19 -11 -19 4 0 0 -5 -10 -10 -21 -13 -51 -2
-44 16 3 8 0 14 -6 14 -6 0 -9 3 -6 6 3 3 -3 28 -13 57 -23 61 -22 60 -6 52 6
-4 5 -1 -3 7 -12 10 -15 37 -15 120 0 58 3 104 8 101 4 -2 8 1 8 6 2 12 5 26
9 39 1 4 2 10 1 15 0 4 3 7 9 7 5 0 7 7 4 15 -4 8 -1 15 6 15 7 0 9 8 5 20 -5
15 -3 18 9 14 12 -5 15 -2 10 10 -3 9 -1 16 5 16 16 0 13 17 -4 24 -12 4 -21
-6 -34 -37 -19 -42 -19 -42 -29 -17 -6 14 -11 21 -11 15 -1 -5 -9 6 -20 25
-10 19 -17 38 -14 43 2 4 0 6 -5 5 -6 -2 -9 -1 -9 2 1 3 -7 19 -19 35 -40 58
-37 74 14 70 12 -1 22 2 22 7 0 4 7 8 15 8 11 0 12 -5 5 -25 -6 -16 -6 -25 0
-25 6 0 9 -3 8 -7 -5 -17 24 -52 58 -73 40 -25 141 -40 128 -19 -4 7 -3 10 4
5 21 -13 20 10 -4 59 -13 28 -24 46 -24 41 0 -5 -8 -1 -19 8 -16 15 -29 19
-91 31 -8 1 -21 -2 -27 -8 -9 -6 -13 -6 -13 1 0 13 29 29 50 27 8 -1 24 3 35
9 11 6 25 11 30 11 6 1 9 6 8 13 -2 6 4 9 12 6 26 -11 145 77 145 106 0 6 5
10 10 10 6 0 10 7 10 15 0 8 4 15 9 15 5 0 11 9 14 20 8 31 -16 24 -31 -8 -6
-16 -21 -38 -32 -50 -11 -12 -20 -26 -20 -32 0 -5 -6 -10 -14 -10 -8 0 -21 -6
-29 -14 -12 -13 -35 -24 -110 -58 -13 -5 -16 -4 -12 5 4 6 1 5 -7 -3 -7 -8
-22 -16 -33 -18 -11 -1 -33 -5 -50 -8 -101 -17 -111 -14 -120 27 -4 16 -6 32
-5 35 1 4 -3 10 -9 14 -11 6 -14 16 -27 80 -3 14 -9 29 -15 34 -5 6 -9 15 -9
20 0 6 5 4 11 -4 8 -11 9 -9 3 9 -8 31 -10 94 -2 107 7 11 -17 36 -26 27 -3
-4 -6 -2 -6 3 0 6 5 15 12 22 7 7 8 12 3 12 -6 0 -4 4 3 9 17 11 17 101 0 101
-5 0 -7 4 -4 9 3 5 -1 14 -9 21 -8 7 -12 17 -8 24 3 6 3 8 -2 4 -4 -4 -19 6
-33 22 -15 17 -29 30 -32 30 -3 0 -14 -15 -25 -32z m-400 -683 c11 -4 26 -9
34 -11 7 -1 18 -7 24 -13 6 -6 20 -11 31 -11 11 0 28 -8 39 -17 13 -11 17 -12
12 -4 -6 11 -4 13 11 6 10 -4 27 -8 37 -9 9 0 17 -5 17 -11 0 -5 5 -3 10 5 6
10 10 11 10 3 0 -7 3 -12 8 -12 36 6 50 -4 68 -46 10 -25 21 -45 24 -45 4 0
12 -16 20 -35 8 -19 17 -35 22 -35 4 0 8 -7 8 -15 0 -8 5 -15 10 -15 6 0 10
-6 10 -13 0 -8 11 -27 25 -43 13 -15 21 -31 17 -34 -4 -3 -8 -18 -10 -33 -2
-22 0 -27 10 -21 10 6 10 4 -1 -9 -7 -9 -9 -17 -4 -17 14 0 3 -132 -15 -173
l-17 -38 -30 23 c-16 13 -54 47 -84 76 -30 28 -56 52 -58 52 -11 0 -31 29 -25
35 4 5 1 5 -5 1 -7 -4 -13 -4 -13 1 0 4 -12 14 -27 21 -39 17 -94 67 -85 78 3
5 1 4 -7 -2 -10 -10 -8 -18 15 -43 15 -17 31 -31 36 -31 8 0 20 -9 95 -72 24
-21 42 -38 39 -38 -3 0 12 -18 34 -40 22 -22 36 -40 32 -40 -4 0 8 -10 26 -21
17 -12 32 -27 32 -34 0 -7 5 -15 10 -17 6 -2 11 -12 11 -23 1 -23 -10 -135
-16 -180 -3 -16 -7 -55 -8 -86 -2 -31 -8 -62 -12 -69 -5 -8 -4 -15 3 -18 8 -2
8 -11 1 -29 -5 -13 -7 -29 -4 -34 8 -11 -21 -65 -38 -72 -8 -3 -28 10 -45 29
-17 19 -29 34 -27 34 3 0 -3 8 -12 18 -10 10 -31 35 -48 56 -16 21 -38 47 -48
59 -35 41 -49 80 -51 139 -1 40 3 61 13 67 9 6 10 11 2 15 -8 5 -8 13 1 29 7
12 11 25 10 30 -1 4 2 7 8 7 5 0 10 7 10 15 0 8 5 15 12 15 6 0 9 3 6 6 -4 3
3 15 14 26 28 28 15 34 -21 8 -35 -24 -95 -106 -87 -118 3 -5 -3 -21 -13 -36
l-18 -27 -31 43 c-17 24 -36 49 -43 56 -15 18 -6 25 34 28 17 1 33 3 35 4 1 2
5 3 10 4 30 5 84 53 102 92 30 62 23 76 -41 73 -45 -2 -56 -8 -94 -44 -24 -24
-46 -56 -50 -73 -3 -18 -11 -34 -16 -38 -5 -3 -9 -2 -8 3 3 10 -11 64 -20 78
-11 19 -8 65 5 76 8 6 14 18 14 25 0 8 4 14 9 14 6 0 10 8 10 18 1 37 5 52 12
52 5 0 6 7 3 15 -4 8 1 17 10 21 20 8 21 21 1 21 -8 0 -12 -4 -9 -9 3 -4 1 -8
-5 -8 -5 0 -19 -20 -31 -44 -11 -24 -27 -49 -34 -55 -20 -16 -44 17 -56 75 -5
27 -11 59 -14 70 -9 42 -18 99 -19 123 -2 18 4 24 23 26 14 2 32 5 40 7 23 5
71 61 77 90 3 15 9 25 14 22 5 -3 9 0 9 5 0 6 -5 11 -11 11 -5 0 -7 6 -3 12
12 19 12 48 0 48 -6 0 -4 4 4 10 8 5 17 5 20 1 3 -4 14 -11 25 -16z m1925
-1119 c0 -2 -9 -6 -20 -9 -11 -3 -18 -1 -14 4 5 9 34 13 34 5z m-1313 -586
c-3 -10 -1 -21 4 -24 5 -2 4 -3 -3 -2 -13 3 -18 23 -11 39 8 15 15 6 10 -13z
m-27 -960 c0 -5 -2 -10 -4 -10 -3 0 -8 5 -11 10 -3 6 -1 10 4 10 6 0 11 -4 11
-10z m560 -104 c0 -3 -4 -8 -10 -11 -5 -3 -10 -1 -10 4 0 6 5 11 10 11 6 0 10
-2 10 -4z"/>
<path d="M1940 3532 c-46 -32 -70 -64 -75 -102 0 -3 -4 -11 -9 -19 -6 -9 -5
-12 1 -8 7 4 10 -5 9 -23 0 -17 -5 -30 -9 -30 -5 0 -6 7 -3 16 3 9 2 12 -4 9
-9 -5 -8 -52 0 -62 3 -4 7 -20 9 -34 0 -5 6 -7 12 -3 8 5 8 9 -1 14 -9 5 -9 9
-1 14 6 4 9 12 5 17 -3 5 -10 6 -16 3 -6 -4 -8 -2 -5 3 4 6 24 13 44 17 73 11
112 69 117 171 1 25 -3 30 -24 32 -14 1 -36 -5 -50 -15z"/>
<path d="M1761 3479 c-39 -23 -71 -56 -63 -63 3 -3 0 -6 -7 -6 -7 0 -10 -4 -6
-9 3 -5 2 -12 -3 -15 -13 -8 -6 -107 8 -116 16 -10 61 13 92 48 32 37 50 91
46 138 -4 44 -22 50 -67 23z"/>
<path d="M2007 3402 c-5 -8 -1 -106 5 -137 5 -30 85 -121 97 -110 2 3 11 -1
19 -7 19 -16 61 -18 70 -4 10 16 11 106 1 106 -5 0 -9 8 -9 19 0 10 -11 30
-24 44 -13 14 -22 28 -19 30 5 5 -103 60 -124 63 -7 1 -15 -1 -16 -4z"/>
<path d="M1793 3289 c-2 -23 3 -25 10 -4 4 8 3 16 -1 19 -4 3 -9 -4 -9 -15z"/>
<path d="M2044 2971 c-42 -26 -74 -94 -70 -149 4 -58 17 -70 53 -47 15 10 35
27 44 36 9 10 20 15 24 11 5 -4 5 -1 0 7 -4 7 -3 16 3 20 5 3 12 20 15 36 3
17 6 35 8 40 4 15 -23 65 -35 65 -6 0 -25 -9 -42 -19z"/>
<path d="M2095 2794 c-22 -13 -35 -24 -30 -24 6 0 2 -7 -9 -15 -10 -7 -19 -25
-20 -39 0 -14 -5 -26 -9 -26 -5 0 -6 -17 -2 -37 3 -21 7 -46 8 -56 1 -10 7
-15 15 -12 7 3 17 5 20 5 29 0 110 109 97 130 -3 6 0 10 7 10 9 0 9 3 -2 10
-8 5 -10 10 -3 10 15 0 5 35 -15 53 -15 12 -22 11 -57 -9z"/>
<path d="M2900 4301 c0 -6 -5 -11 -11 -11 -13 0 -55 -51 -51 -62 1 -5 -2 -8
-7 -8 -12 0 -23 -37 -25 -85 -2 -42 19 -101 39 -109 14 -5 85 58 85 75 0 5 3
8 8 6 4 -3 8 5 8 16 3 34 8 51 19 59 7 5 6 8 0 8 -6 0 -12 11 -13 25 -3 42
-52 121 -52 86z"/>
<path d="M2491 4291 c-8 -5 -20 -7 -26 -4 -19 7 -85 -67 -93 -102 -6 -27 -7
-51 -3 -89 1 -13 21 -15 61 -5 8 2 24 16 36 31 11 15 23 25 26 22 3 -3 9 12
14 33 17 82 10 129 -15 114z"/>
<path d="M3684 4277 c-44 -15 -82 -45 -100 -79 -14 -27 -14 -32 -1 -45 23 -24
142 -20 152 5 3 7 9 11 14 8 5 -3 24 13 42 35 31 38 45 69 31 68 -4 -1 -10 0
-14 1 -5 1 -12 4 -18 5 -5 1 -11 4 -12 5 -7 7 -68 5 -94 -3z"/>
<path d="M2126 4244 c-3 -8 -9 -13 -13 -11 -9 5 -56 -44 -62 -64 -2 -8 -5 -21
-6 -29 -2 -8 -4 -15 -5 -15 -1 0 -3 -8 -5 -17 -2 -10 1 -18 7 -18 6 0 8 -7 4
-15 -3 -8 -1 -27 4 -41 11 -28 34 -29 64 -1 11 9 23 17 26 17 20 0 47 154 29
166 -5 3 -7 9 -4 14 3 5 -3 14 -14 19 -15 8 -20 7 -25 -5z"/>
<path d="M2994 4239 c-3 -5 -5 -35 -5 -65 0 -72 39 -140 94 -167 44 -21 56
-16 52 18 -1 14 2 25 7 25 5 0 6 9 3 20 -4 11 -7 30 -9 43 -6 51 -58 113 -106
127 -18 5 -32 5 -36 -1z"/>
<path d="M3864 4185 c-15 -20 -27 -49 -28 -65 -1 -17 -3 -30 -6 -30 -3 0 -6
-9 -6 -19 0 -11 5 -17 10 -14 5 4 7 -3 4 -15 -4 -15 -2 -22 8 -22 8 0 11 -6 7
-17 -4 -11 -3 -14 5 -9 7 4 12 1 12 -8 0 -20 26 -14 50 12 12 12 18 22 14 22
-3 0 -1 6 5 13 6 8 8 17 4 20 -3 4 -2 7 4 7 13 0 8 103 -6 108 -6 2 -11 10
-11 17 0 8 -9 19 -19 25 -17 8 -24 5 -47 -25z"/>
<path d="M1046 4203 c-1 -1 -14 -4 -30 -7 -32 -6 -49 -24 -38 -41 3 -5 7 -15
8 -21 7 -46 95 -118 160 -130 50 -9 133 -11 128 -2 -2 3 1 8 8 10 8 3 9 11 3
24 -4 10 -9 21 -9 24 -9 33 -80 109 -103 110 -7 0 -13 5 -13 12 0 6 -3 8 -6 5
-4 -3 -16 -1 -28 5 -18 10 -73 17 -80 11z"/>
<path d="M1831 4186 c-19 -23 -18 -79 1 -115 22 -39 42 -61 56 -61 6 0 12 -4
14 -9 2 -5 17 -11 33 -13 17 -2 33 -7 37 -13 24 -33 43 65 22 107 -16 31 -94
109 -94 93 0 -3 -13 1 -29 9 -24 13 -31 13 -40 2z"/>
<path d="M3434 4147 c-28 -18 -52 -35 -52 -40 -1 -4 -8 -20 -17 -36 -8 -17
-12 -38 -8 -47 4 -11 3 -15 -4 -11 -14 9 -6 -22 12 -47 14 -18 16 -18 58 -2
44 17 99 67 104 96 11 57 12 84 2 102 -8 15 -14 17 -22 9 -14 -14 -30 -15 -22
-1 8 13 7 13 -51 -23z"/>
<path d="M3285 4163 c-44 -12 -105 -67 -113 -103 -9 -48 -9 -91 1 -104 15 -20
71 -6 107 26 27 25 74 108 61 108 -4 0 -8 17 -7 37 1 39 -8 46 -49 36z"/>
<path d="M1345 4121 c-4 -3 -12 -6 -18 -6 -19 0 -20 -42 -2 -83 18 -40 98
-108 115 -97 5 3 10 2 10 -3 0 -12 83 -9 97 4 14 14 12 46 -5 57 -7 5 -10 12
-7 17 7 11 -61 83 -95 101 -28 14 -85 20 -95 10z"/>
<path d="M2668 4088 c-5 -74 31 -137 96 -166 20 -9 32 -10 40 -2 14 14 15 93
2 102 -7 5 -7 8 2 8 6 0 12 5 12 11 0 5 -4 8 -8 5 -4 -2 -16 8 -27 24 -19 28
-72 60 -100 60 -9 0 -15 -14 -17 -42z"/>
<path d="M1685 4097 c-25 -15 -89 -77 -80 -77 4 0 2 -6 -4 -13 -6 -8 -8 -17
-4 -20 3 -4 2 -7 -4 -7 -12 0 -11 -95 0 -106 4 -4 25 -1 46 6 39 12 91 65 99
99 7 30 10 105 5 118 -6 16 -31 16 -58 0z"/>
<path d="M4094 4103 c-25 -5 -76 -49 -91 -78 -13 -23 3 -43 30 -39 9 1 15 -2
12 -6 -8 -13 65 -17 103 -6 18 5 44 20 58 32 13 13 24 20 24 16 1 -11 29 42
30 55 0 25 -96 40 -166 26z"/>
<path d="M3705 4039 c-37 -71 -39 -133 -7 -198 28 -57 47 -64 79 -27 58 66 58
186 0 252 -30 35 -44 30 -72 -27z"/>
<path d="M2485 4054 c-40 -20 -73 -69 -83 -125 -10 -50 3 -93 25 -85 7 3 13 0
13 -6 0 -6 11 -1 25 12 14 13 25 20 25 16 0 -4 6 -1 14 6 8 7 12 16 9 21 -2 4
0 7 5 7 22 0 47 118 34 158 -5 16 -30 14 -67 -4z"/>
<path d="M2605 3999 c-3 -9 -13 -20 -21 -23 -8 -3 -12 -10 -9 -16 3 -5 1 -10
-5 -10 -6 0 -9 -4 -5 -9 3 -5 2 -12 -3 -15 -13 -8 -6 -79 11 -113 29 -56 54
-51 91 17 17 30 29 100 18 100 -4 0 -8 9 -9 20 -1 11 -9 27 -17 36 -9 8 -16
19 -16 23 0 15 -30 7 -35 -10z"/>
<path d="M2932 4008 c-14 -18 -8 -97 11 -133 17 -34 57 -71 71 -67 5 2 12 -2
16 -9 6 -8 13 -6 28 9 21 21 21 76 -1 116 -6 11 -10 24 -9 28 1 4 -7 10 -18
13 -11 4 -20 10 -20 15 0 9 -27 20 -44 19 -5 0 -12 4 -16 11 -5 8 -10 7 -18
-2z"/>
<path d="M2175 3997 c-64 -22 -107 -94 -98 -162 6 -43 17 -50 55 -34 52 21 85
72 92 138 5 54 -10 72 -49 58z"/>
<path d="M3489 3984 c-7 -14 -19 -22 -26 -19 -8 2 -12 1 -9 -4 3 -5 -1 -25 -9
-45 -9 -20 -13 -41 -10 -46 3 -5 1 -11 -4 -15 -7 -4 -7 -15 -1 -30 5 -14 7
-25 4 -25 -2 0 2 -13 10 -29 9 -16 13 -31 11 -35 -3 -3 -2 -4 2 -1 3 3 11 -2
17 -10 9 -12 14 -12 31 3 45 37 68 91 67 155 0 35 -5 63 -11 65 -6 2 -11 12
-11 22 0 38 -43 47 -61 14z"/>
<path d="M1145 3960 c-4 -6 -10 -8 -15 -5 -13 8 -77 -59 -72 -77 2 -10 18 -24
35 -33 38 -17 137 -27 137 -14 0 6 3 8 8 6 15 -10 87 38 90 59 3 23 -43 68
-59 58 -5 -3 -9 0 -9 5 0 14 -107 14 -115 1z"/>
<path d="M1830 3950 c-19 -12 5 -73 46 -115 18 -19 37 -36 41 -36 5 -1 13 -4
20 -6 6 -2 26 -3 45 -1 31 3 33 5 31 37 -1 36 -25 74 -64 103 -26 19 -99 30
-119 18z"/>
<path d="M3941 3933 c-24 -12 -49 -31 -56 -40 -11 -15 -9 -20 19 -39 17 -12
34 -20 39 -17 4 2 7 0 7 -4 0 -12 79 -9 121 6 20 6 45 21 55 32 18 21 18 21
-9 45 -16 13 -32 22 -37 19 -5 -3 -10 0 -12 6 -7 21 -82 16 -127 -8z"/>
<path d="M864 3878 c-3 -5 -15 -8 -25 -5 -11 3 -19 1 -19 -4 0 -5 -5 -9 -11
-9 -6 0 -22 -9 -36 -19 l-24 -20 20 -20 c12 -12 21 -25 21 -29 0 -5 21 -19 47
-32 71 -35 178 -33 205 5 4 5 8 6 8 1 0 -5 9 -1 20 9 26 24 26 25 -12 66 -32
34 -90 64 -102 52 -3 -4 -6 -1 -6 5 0 14 -22 12 -32 -3 -5 -7 -8 -6 -8 0 0 14
-38 17 -46 3z"/>
<path d="M1346 3879 c2 -4 0 -10 -6 -14 -6 -4 -4 -17 6 -37 39 -76 103 -115
188 -116 52 0 56 2 52 22 -8 40 -18 66 -27 66 -5 0 -9 5 -9 11 0 13 -22 32
-65 56 -29 16 -148 26 -139 12z"/>
<path d="M3230 3863 c-9 -7 -19 -10 -22 -8 -2 2 -19 -9 -37 -25 -29 -27 -31
-32 -17 -45 8 -8 19 -15 25 -15 6 0 11 -4 11 -8 0 -5 6 -9 13 -10 6 -1 27 -3
46 -6 44 -5 113 15 142 43 l22 21 -28 24 c-16 14 -32 23 -37 20 -4 -3 -8 -1
-8 4 0 15 -90 19 -110 5z"/>
<path d="M4269 3865 c-3 -2 -16 -6 -29 -8 -44 -7 -83 -27 -107 -55 -21 -25
-24 -32 -22 -48 0 -4 -5 -10 -11 -14 -18 -11 60 -38 100 -35 49 4 90 16 90 26
0 5 5 9 11 9 16 0 63 52 67 72 3 17 -31 42 -58 43 -8 0 -20 3 -26 7 -6 4 -13
6 -15 3z"/>
<path d="M2869 3819 c-12 -7 -12 -9 0 -9 9 0 10 -4 4 -12 -6 -7 -8 -24 -6 -38
2 -14 5 -34 6 -45 3 -25 83 -109 96 -101 5 4 12 2 16 -4 9 -15 25 -2 25 21 0
13 4 18 12 13 7 -5 8 -3 3 5 -4 7 -9 29 -11 48 -2 19 -8 41 -13 47 -6 7 -7 17
-3 22 4 5 3 6 -2 2 -4 -4 -18 3 -30 15 -27 28 -80 47 -97 36z"/>
<path d="M3594 3775 c-25 -25 -42 -50 -39 -55 3 -6 0 -12 -7 -15 -16 -6 -16
-86 0 -126 6 -15 8 -30 5 -33 -4 -3 0 -6 8 -6 19 0 62 29 89 60 14 17 20 19
16 8 -3 -10 0 -21 7 -25 17 -11 126 -13 132 -3 3 4 14 6 25 3 11 -3 20 0 20 6
0 6 7 11 16 11 23 0 91 71 99 103 4 15 12 27 18 27 6 0 2 9 -9 20 -14 14 -37
22 -72 24 -29 2 -52 0 -52 -4 0 -4 -10 -7 -22 -6 -26 1 -46 -12 -103 -69 l-41
-41 1 28 c0 15 3 28 7 28 4 0 3 13 -2 29 -4 16 -6 32 -3 34 7 8 -21 47 -34 47
-7 0 -33 -20 -59 -45z"/>
<path d="M1646 3795 c4 -8 10 -15 16 -15 5 0 6 -4 3 -10 -3 -5 -1 -10 4 -10 6
0 10 -3 9 -8 -2 -4 3 -14 10 -22 7 -8 21 -25 31 -38 16 -19 20 -20 30 -8 10
12 8 16 -9 21 -12 4 -19 9 -16 12 3 3 0 11 -7 19 -24 27 -33 39 -36 49 -2 6
-7 9 -12 8 -5 -2 -9 2 -9 7 0 6 -4 10 -10 10 -5 0 -7 -7 -4 -15z"/>
<path d="M412 3764 c-7 -8 -19 -11 -25 -7 -7 4 -6 0 2 -10 7 -9 11 -17 7 -17
-9 0 18 -50 42 -77 11 -13 24 -23 31 -23 6 0 11 -4 11 -9 0 -8 22 -16 70 -28
34 -7 80 -9 80 -2 0 4 11 6 25 5 22 -3 24 0 18 23 -7 27 -42 83 -57 90 -4 2
-15 12 -24 22 -9 10 -19 16 -24 13 -4 -3 -8 0 -8 6 0 6 -4 9 -9 5 -5 -3 -12
-1 -16 5 -4 6 -11 8 -16 5 -5 -4 -9 -2 -9 2 0 11 -50 10 -67 0 -6 -4 -13 -3
-15 2 -1 5 -9 3 -16 -5z"/>
<path d="M1195 3772 c-11 -2 -25 -8 -32 -14 -13 -10 -13 -48 0 -48 4 0 5 -4 2
-10 -3 -5 -1 -10 4 -10 6 0 11 -7 11 -15 0 -8 5 -15 10 -15 6 0 10 -7 10 -15
0 -8 5 -15 10 -15 6 0 23 -9 39 -21 15 -11 36 -22 47 -24 10 -2 19 -4 19 -5 0
-1 22 -4 49 -7 41 -4 106 10 106 24 0 7 -32 66 -44 80 -30 36 -86 87 -86 78 0
-3 -9 -1 -20 5 -22 12 -94 19 -125 12z"/>
<path d="M728 3725 c-6 -14 -14 -23 -17 -21 -9 6 -7 -85 2 -111 5 -13 13 -23
18 -23 6 0 8 -4 5 -8 -5 -8 47 -53 61 -54 4 0 13 -4 20 -9 18 -16 49 40 48 86
-1 52 -15 83 -55 122 -43 42 -68 48 -82 18z"/>
<path d="M2693 3716 c2 -17 6 -38 8 -46 5 -19 76 -86 92 -88 6 0 22 -3 35 -6
13 -3 22 0 22 7 0 7 4 6 10 -3 5 -8 12 -11 16 -8 11 11 13 57 3 64 -5 3 -7 10
-4 15 4 5 2 9 -4 9 -5 0 -12 8 -16 18 -12 36 -63 60 -138 66 -27 2 -28 0 -24
-28z"/>
<path d="M3161 3736 c-17 -20 -10 -92 13 -136 18 -36 70 -75 87 -64 5 3 9 -1
9 -8 1 -8 5 -7 14 5 18 24 18 84 -1 124 -13 29 -83 94 -83 77 0 -3 -6 -1 -14
5 -10 9 -16 8 -25 -3z"/>
<path d="M4544 3706 c-80 -58 -109 -133 -84 -221 12 -41 13 -43 39 -34 41 14
99 66 117 105 18 37 27 134 13 134 -5 0 -8 3 -8 8 6 36 -32 40 -77 8z"/>
<path d="M3367 3680 c-7 -28 2 -103 14 -110 6 -4 11 -11 11 -16 1 -11 38 -60
38 -49 0 4 6 2 14 -4 24 -20 57 -22 62 -3 3 9 9 24 14 33 5 10 4 21 -1 26 -6
6 -12 17 -13 24 -7 36 -27 69 -54 88 -16 11 -32 18 -36 14 -3 -3 -6 -1 -6 5 0
17 -38 10 -43 -8z"/>
<path d="M1556 3677 c-28 -17 -61 -47 -52 -47 4 0 0 -7 -8 -16 -9 -8 -14 -20
-11 -25 4 -5 2 -9 -2 -9 -11 0 -10 -51 1 -69 7 -11 6 -12 -5 -6 -12 7 -12 6
-1 -7 10 -13 10 -18 1 -24 -7 -4 -15 -2 -17 4 -2 7 -10 12 -18 12 -8 0 -14 4
-14 9 0 5 -15 13 -32 16 -18 4 -39 12 -47 19 -8 6 -12 6 -9 1 4 -6 -10 -10
-37 -11 -53 0 -81 -19 -63 -42 10 -12 10 -14 1 -8 -22 13 21 -57 52 -86 36
-34 80 -55 120 -60 17 -1 33 -7 37 -13 5 -6 8 -6 8 1 0 6 14 10 30 9 17 -1 38
4 47 10 15 11 15 15 -1 50 -10 20 -27 46 -38 57 -15 15 -17 23 -9 31 6 6 11 7
11 3 0 -5 7 -3 15 4 9 7 18 10 21 7 6 -6 73 59 75 74 2 13 6 29 9 32 1 1 3 23
5 50 3 45 3 47 -23 46 -15 0 -36 -6 -46 -12z"/>
<path d="M1026 3652 c-3 -3 -18 -6 -33 -7 -35 -2 -54 -7 -69 -20 -28 -24 63
-118 127 -130 12 -2 23 -6 26 -8 7 -8 97 13 120 28 18 12 21 20 14 33 -14 26
-64 78 -81 84 -8 3 -17 6 -20 7 -25 9 -80 18 -84 13z"/>
<path d="M2240 3612 c-19 -9 -36 -22 -37 -29 -3 -14 67 -74 78 -67 4 2 10 1
13 -4 8 -14 79 -6 118 13 31 15 35 21 27 39 -27 59 -128 83 -199 48z"/>
<path d="M4343 3613 c-23 -8 -53 -25 -67 -37 -13 -13 -27 -21 -30 -18 -3 3 -6
-2 -6 -11 0 -9 -4 -17 -10 -17 -5 0 -10 -7 -10 -15 0 -8 -4 -15 -9 -15 -5 0
-8 -14 -7 -31 1 -16 -1 -32 -6 -35 -5 -3 -5 -10 -2 -16 4 -6 8 -20 9 -32 1
-11 3 -24 4 -27 1 -6 66 -4 81 1 3 2 8 2 13 1 4 0 7 4 7 9 0 6 5 10 10 10 6 0
26 16 45 35 32 31 40 46 36 68 0 4 3 7 8 7 5 0 8 27 7 60 0 33 -5 60 -10 59
-5 0 -12 4 -15 9 -4 5 -23 3 -48 -5z"/>
<path d="M2715 3547 c-56 -19 -116 -70 -121 -104 -3 -15 35 -45 47 -37 4 2 10
0 14 -6 4 -6 13 -7 23 -1 9 4 25 7 35 6 9 -2 17 1 17 6 0 6 4 8 9 5 5 -3 23 7
40 23 16 15 32 27 34 25 2 -2 11 12 20 31 17 35 17 36 -6 44 -41 16 -81 18
-112 8z"/>
<path d="M550 3540 c0 -6 -6 -9 -12 -7 -34 6 27 -107 63 -118 11 -4 19 -10 19
-14 0 -4 6 -8 13 -8 21 -1 80 -14 89 -19 4 -3 8 -1 8 4 0 5 9 12 20 15 19 5
19 5 -1 46 -11 23 -24 41 -29 41 -6 0 -10 7 -10 15 0 8 -11 17 -25 21 -14 3
-23 10 -20 15 3 4 -4 6 -15 4 -11 -2 -20 -1 -20 3 0 4 -18 8 -40 9 -22 2 -40
-2 -40 -7z"/>
<path d="M3119 3524 c-2 -33 -2 -32 5 -67 5 -30 24 -66 43 -86 15 -14 85 -42
92 -36 6 7 9 115 2 115 -3 0 -12 14 -20 30 -15 36 -44 57 -89 66 -30 6 -32 5
-33 -22z"/>
<path d="M4027 3538 c-9 -5 -17 -6 -17 -3 0 3 -6 1 -12 -5 -7 -6 -23 -19 -35
-29 -35 -28 -54 -71 -40 -86 7 -7 15 -11 20 -8 4 2 7 0 7 -6 0 -18 112 -9 149
11 37 21 49 32 73 67 16 23 14 56 -3 45 -5 -3 -9 -1 -9 5 0 5 -8 10 -17 11
-10 0 -36 2 -59 4 -22 2 -48 0 -57 -6z"/>
<path d="M3748 3516 c-21 -8 -38 -12 -38 -9 0 2 -10 -5 -22 -17 -12 -11 -25
-20 -29 -20 -3 0 -19 -19 -35 -42 -16 -24 -33 -46 -39 -50 -5 -4 -6 -8 -2 -8
4 0 3 -8 -2 -18 -8 -14 -5 -18 12 -20 36 -4 51 -7 63 -15 6 -3 14 -4 18 0 3 3
23 8 44 10 60 6 160 83 169 130 10 45 7 56 -12 60 -55 12 -93 11 -127 -1z"/>
<path d="M2392 3485 c-33 -23 -66 -55 -57 -55 4 0 0 -7 -9 -15 -8 -9 -12 -23
-9 -32 5 -11 3 -14 -6 -8 -10 6 -11 3 -3 -11 5 -11 8 -27 7 -36 -4 -21 15 -24
34 -5 11 10 12 9 6 -1 -11 -21 72 25 88 48 7 11 17 18 20 15 4 -3 5 -2 2 2 -3
3 0 12 6 19 6 7 11 26 11 43 1 17 5 28 10 25 5 -4 4 3 -3 14 -16 26 -57 25
-97 -3z"/>
<path d="M3319 3494 c-18 -22 -22 -61 -10 -95 6 -18 6 -29 0 -29 -5 0 -9 -4
-9 -10 0 -5 7 -6 17 -3 10 4 14 2 9 -5 -3 -6 2 -15 11 -21 10 -6 14 -11 8 -11
-11 0 52 -44 77 -53 10 -3 20 -2 23 3 10 17 14 100 4 100 -6 0 -7 5 -4 10 10
17 -56 106 -69 93 -3 -3 -6 -1 -6 5 0 7 -9 12 -21 12 -11 0 -17 5 -14 10 10
16 -1 12 -16 -6z"/>
<path d="M922 3464 c-11 -7 -21 -11 -24 -9 -2 3 -19 -8 -37 -24 -39 -35 -38
-60 4 -81 32 -15 145 -30 145 -19 0 4 14 12 30 18 51 17 77 55 56 81 -29 38
-138 59 -174 34z"/>
<path d="M4610 3440 c-7 -5 -19 -6 -27 -3 -7 3 -13 0 -13 -6 0 -6 -4 -11 -10
-11 -17 0 -50 -34 -50 -51 0 -19 61 -48 112 -53 36 -4 94 17 133 47 20 16 20
16 -5 40 -35 32 -114 53 -140 37z"/>
<path d="M3059 3389 c-13 -10 -31 -16 -39 -13 -8 3 -12 2 -8 -1 3 -3 -10 -21
-28 -40 -19 -19 -36 -46 -40 -60 -3 -14 -9 -23 -13 -21 -9 6 -6 -98 3 -113 14
-22 87 2 130 42 29 27 70 112 61 127 -3 6 -1 10 6 10 8 0 8 4 -1 15 -10 12
-10 15 0 15 9 0 10 3 1 13 -7 9 -7 17 -1 25 6 7 7 10 4 8 -3 -3 -16 -1 -28 4
-16 6 -29 3 -47 -11z"/>
<path d="M501 3389 c-46 -9 -83 -29 -116 -62 -27 -29 -27 -46 1 -53 13 -3 24
-9 24 -13 0 -6 13 -9 83 -15 16 -1 30 1 33 6 3 4 12 8 21 8 23 0 101 52 106
71 9 33 -87 69 -152 58z"/>
<path d="M3959 3376 c-2 -2 -20 -7 -40 -10 -56 -9 -83 -22 -115 -55 -37 -39
-50 -54 -52 -63 -1 -5 -2 -9 -3 -10 -6 -22 -5 -38 4 -38 20 0 -4 -14 -31 -18
-15 -2 -29 -7 -30 -13 -2 -5 -7 -7 -11 -4 -4 2 -23 -12 -42 -32 -19 -20 -28
-33 -21 -29 7 4 12 1 12 -9 0 -9 5 -13 10 -10 6 3 10 1 10 -6 0 -7 3 -9 6 -6
4 3 16 1 27 -5 26 -13 74 -14 107 -1 14 6 30 12 35 13 15 4 34 33 35 52 0 9
-13 22 -29 29 -17 8 -27 18 -24 26 4 9 9 10 17 4 17 -14 125 33 152 66 35 43
46 80 28 97 -8 9 -22 12 -31 9 -11 -4 -14 -3 -9 5 7 12 4 16 -5 8z m-164 -186
c-3 -5 -12 -10 -18 -10 -7 0 -6 4 3 10 19 12 23 12 15 0z"/>
<path d="M2685 3360 c3 -5 2 -10 -2 -10 -15 0 -13 -38 2 -44 8 -3 13 2 13 12
0 9 3 25 7 35 5 12 3 17 -10 17 -9 0 -13 -4 -10 -10z"/>
<path d="M3275 3361 c-3 -6 -2 -11 3 -11 5 0 7 -13 4 -30 -2 -17 0 -30 6 -30
6 0 9 8 8 18 -2 9 0 19 5 22 4 3 1 13 -6 23 -8 12 -15 14 -20 8z"/>
<path d="M4410 3313 c-104 -31 -177 -111 -186 -205 -4 -42 -3 -42 69 -39 40 2
95 30 132 66 49 50 82 174 47 176 -10 0 -24 2 -32 3 -8 2 -22 1 -30 -1z"/>
<path d="M679 3286 c-30 -22 7 -123 63 -172 34 -29 97 -50 139 -46 36 3 36 4
29 35 -4 18 -12 42 -19 55 -6 12 -9 22 -6 22 4 0 0 6 -7 14 -7 7 -20 23 -28
35 -8 11 -20 21 -27 21 -7 0 -13 4 -13 9 0 21 -109 44 -131 27z"/>
<path d="M935 3287 c-29 -10 -33 -41 -10 -71 8 -10 12 -23 9 -27 -3 -5 -1 -9
3 -9 5 0 21 -11 36 -26 15 -14 32 -22 37 -19 6 3 10 1 10 -4 0 -6 8 -11 18
-11 9 0 23 -4 31 -9 10 -7 8 -9 -10 -9 -48 0 -102 -27 -131 -67 -18 -23 -17
-24 12 -45 16 -12 35 -18 41 -14 8 4 9 3 5 -4 -7 -12 7 -16 52 -14 12 1 22 0
22 -1 0 -1 -6 -22 -13 -47 -16 -58 -14 -96 7 -118 9 -10 16 -24 16 -31 0 -7 5
-9 10 -6 6 3 10 1 10 -4 0 -6 9 -11 21 -11 13 0 18 -4 13 -12 -4 -7 -3 -8 4
-4 7 4 12 14 12 22 0 8 4 14 8 14 15 0 7 96 -10 121 -27 41 -55 69 -62 62 -3
-3 -6 -2 -6 4 0 9 30 22 60 27 3 1 19 11 37 24 26 18 31 27 24 44 -4 12 -22
29 -40 39 -43 23 -49 29 -22 24 11 -2 21 1 21 6 0 6 4 8 9 5 5 -4 16 -3 25 0
12 5 13 10 5 25 -5 10 -7 19 -4 19 7 0 -9 20 -51 65 -34 36 -88 68 -98 58 -3
-4 -6 -2 -6 3 0 11 -62 12 -95 1z"/>
<path d="M4097 3288 c2 -5 -7 -8 -21 -8 -14 0 -26 -4 -26 -10 0 -5 -5 -10 -11
-10 -16 0 -76 -65 -84 -90 -3 -11 -10 -20 -15 -20 -4 0 -6 -9 -3 -20 3 -11 10
-20 17 -19 21 3 36 -1 36 -9 0 -4 -12 -9 -26 -10 -15 -1 -32 -6 -38 -11 -6 -5
-14 -10 -18 -10 -40 -7 -47 -40 -14 -72 23 -22 116 -63 116 -51 0 4 17 7 37 7
40 -1 41 0 84 37 l27 23 -34 32 c-19 17 -34 29 -34 25 0 -3 -5 -1 -12 6 -7 7
-23 12 -37 13 -15 0 -20 3 -13 6 6 2 9 10 6 16 -5 8 -2 8 7 0 17 -16 33 -17
23 -1 -5 7 -2 9 8 6 26 -10 128 61 128 89 0 8 6 16 14 19 20 8 7 52 -18 61
-28 9 -105 10 -99 1z"/>
<path d="M4718 3286 c-27 -9 -40 -46 -17 -46 5 0 8 -4 4 -9 -3 -5 4 -16 15
-24 11 -7 18 -17 15 -20 -3 -4 -2 -5 2 -2 3 3 12 0 18 -5 7 -6 24 -11 39 -12
14 -1 26 -6 26 -11 0 -4 6 -5 13 0 6 4 21 7 33 8 11 0 28 6 36 12 8 7 17 10
21 7 3 -3 8 4 12 15 4 15 -1 28 -19 46 -51 51 -128 67 -198 41z"/>
<path d="M1446 3282 c-3 -5 5 -13 19 -16 14 -4 25 -11 25 -16 0 -6 5 -10 10
-10 6 0 10 7 10 15 0 8 -8 15 -18 15 -10 0 -23 5 -29 11 -7 7 -13 7 -17 1z"/>
<path d="M240 3186 c0 -9 -4 -16 -9 -16 -5 0 -11 -13 -13 -30 -3 -16 -1 -30 3
-30 5 0 6 -7 3 -15 -4 -8 0 -23 7 -32 8 -9 13 -18 12 -20 -16 -21 79 -110 136
-128 16 -5 21 -4 17 4 -4 6 -2 11 4 11 6 0 8 5 5 10 -3 6 0 10 7 10 10 0 10 2
-1 9 -11 7 -11 10 0 15 10 4 11 7 2 12 -7 3 -10 11 -7 19 13 32 -73 165 -107
165 -8 0 -25 7 -37 16 -20 14 -22 14 -22 0z"/>
<path d="M4499 3166 c-56 -28 -98 -71 -123 -126 -25 -56 -27 -70 -11 -64 7 3
16 1 19 -4 3 -5 29 -8 58 -6 70 4 86 8 100 22 7 7 18 12 24 12 34 0 124 116
124 159 0 24 -13 29 -87 29 -43 0 -74 -7 -104 -22z"/>
<path d="M3273 3153 c-16 -6 -17 -43 -2 -43 8 0 7 -5 -1 -15 -9 -11 -15 -12
-20 -5 -4 6 -32 14 -62 17 -54 5 -55 5 -53 -18 1 -13 3 -24 4 -24 2 0 4 -8 6
-19 4 -21 76 -92 97 -94 75 -9 82 -8 85 21 1 15 -3 27 -8 27 -6 0 -8 4 -5 9 4
5 -5 23 -19 39 -14 16 -25 34 -25 38 0 5 7 0 15 -10 8 -11 15 -17 15 -13 0 4
9 0 20 -11 10 -10 34 -19 53 -20 27 -2 33 1 34 20 2 28 -26 76 -49 84 -10 3
-18 8 -18 12 0 8 -50 12 -67 5z"/>
<path d="M580 3132 c0 -7 -4 -11 -9 -8 -5 4 -16 3 -25 0 -18 -7 -13 -43 8 -56
6 -4 7 -8 2 -8 -6 0 5 -16 24 -35 19 -19 40 -35 47 -35 7 0 13 -4 13 -8 0 -10
56 -17 113 -13 19 1 25 51 6 51 -5 0 -7 4 -4 10 6 10 -75 94 -83 85 -3 -3 -11
0 -19 7 -7 6 -16 8 -20 5 -3 -4 -12 -2 -20 4 -10 9 -13 8 -13 -2 0 -11 -2 -11
-10 1 -7 11 -10 11 -10 2z"/>
<path d="M1565 3094 c-10 -8 -15 -14 -10 -14 4 0 0 -9 -9 -19 -10 -11 -15 -25
-11 -30 3 -6 2 -11 -3 -11 -5 0 -7 -19 -5 -42 3 -24 5 -48 5 -55 1 -7 4 -10 8
-8 3 2 12 -10 19 -26 15 -34 30 -36 62 -10 20 16 24 29 26 85 1 36 -2 66 -8
66 -5 0 -9 6 -9 13 0 6 -10 24 -23 38 -20 24 -25 25 -42 13z"/>
<path d="M2715 3029 c4 -5 2 -9 -4 -9 -6 0 -8 -6 -6 -12 3 -7 6 -30 9 -52 2
-21 10 -42 17 -47 7 -4 10 -11 6 -15 -7 -7 30 -44 45 -44 5 0 6 -4 3 -10 -4
-6 7 -10 25 -10 21 0 29 -4 24 -12 -4 -7 -3 -8 4 -4 7 4 12 16 12 27 0 10 4
19 8 19 5 0 9 7 9 15 0 8 -4 15 -9 15 -5 0 -4 10 3 21 8 15 8 19 0 15 -7 -5
-11 1 -11 14 0 23 -32 60 -71 81 -29 15 -72 21 -64 8z"/>
<path d="M844 2993 c7 -12 -5 -18 -27 -14 -30 5 -113 -75 -99 -96 10 -14 83
-40 110 -37 24 1 28 -6 12 -22 -17 -17 -35 -159 -19 -149 3 3 9 -9 13 -25 6
-33 81 -120 102 -120 8 0 14 -4 14 -9 0 -5 13 -11 29 -13 22 -3 28 0 26 11 -1
9 0 21 4 26 23 40 13 127 -24 191 -22 37 -91 94 -115 94 -5 0 -10 8 -10 17 0
9 3 13 7 10 3 -4 12 -2 20 4 7 6 13 8 13 4 0 -4 15 8 34 27 19 18 32 36 29 41
-2 4 1 7 6 7 6 0 3 9 -6 19 -9 11 -24 18 -34 16 -11 -2 -19 0 -19 4 0 5 -10 7
-22 7 -13 -1 -29 3 -37 8 -11 8 -13 8 -7 -1z"/>
<path d="M3041 2991 c-22 -14 -30 -103 -12 -125 5 -6 10 -15 10 -21 3 -20 56
-75 84 -86 41 -17 53 4 48 86 -2 37 -41 115 -58 115 -7 0 -13 4 -13 8 0 14
-46 31 -59 23z"/>
<path d="M3156 2991 c-4 -7 -5 -15 -2 -18 9 -9 19 4 14 18 -4 11 -6 11 -12 0z"/>
<path d="M4208 2979 c-10 -5 -18 -7 -18 -4 0 4 -7 -1 -16 -9 -14 -15 -14 -19
3 -48 43 -73 165 -94 225 -38 18 17 18 18 -10 48 -43 46 -117 70 -155 51 -14
-8 -18 -8 -13 0 9 13 6 13 -16 0z"/>
<path d="M4543 2973 c5 -7 -3 -14 -22 -18 -16 -3 -32 -13 -35 -21 -3 -8 -13
-14 -21 -14 -9 0 -14 -4 -11 -9 4 -5 0 -12 -6 -14 -8 -3 -6 -6 5 -6 10 -1 16
-5 13 -10 -3 -4 6 -13 19 -19 14 -7 25 -16 25 -22 0 -6 6 -10 13 -8 6 1 21 -3
32 -9 29 -16 126 -13 153 5 12 8 22 11 22 8 0 -4 12 4 27 18 24 22 25 28 14
48 -6 13 -34 34 -61 47 -50 25 -140 37 -140 18 0 -5 -8 -3 -17 4 -9 8 -14 9
-10 2z"/>
<path d="M515 2951 c-3 -6 -12 -11 -18 -9 -7 1 -30 -8 -52 -20 -22 -11 -36
-21 -31 -22 6 0 2 -6 -8 -13 -15 -11 -16 -17 -6 -33 22 -36 145 -73 175 -54 6
4 19 10 30 13 15 5 14 2 -5 -10 -40 -27 -106 -98 -112 -120 -9 -34 7 -46 64
-49 91 -4 166 35 206 108 30 54 13 72 -67 73 -34 0 -61 3 -61 8 0 4 4 7 9 7 4
0 21 12 36 26 l27 25 -21 20 c-16 15 -66 41 -78 40 -2 0 -16 4 -33 9 -21 6
-30 5 -30 -3 0 -8 -3 -7 -9 2 -6 9 -10 10 -16 2z"/>
<path d="M3975 2930 c5 -15 1 -28 -13 -43 -23 -24 -38 -86 -22 -88 65 -8 105
4 143 43 16 16 29 38 30 49 1 10 6 19 11 19 6 0 6 3 1 9 -17 17 -59 19 -98 6
-30 -10 -37 -10 -37 1 0 7 -5 16 -11 20 -8 4 -9 -1 -4 -16z"/>
<path d="M1151 2937 c2 -1 11 -8 21 -15 12 -10 18 -10 24 -1 4 7 3 9 -4 5 -6
-3 -13 -2 -17 4 -3 5 -11 10 -17 10 -6 0 -9 -1 -7 -3z"/>
<path d="M1195 2900 c-5 -9 -2 -10 13 -6 13 5 22 1 26 -10 4 -9 9 -14 12 -11
3 3 16 2 28 -3 18 -7 22 -4 24 13 1 17 -1 19 -8 7 -5 -8 -10 -10 -10 -5 0 6
-8 11 -17 12 -10 1 -28 4 -39 8 -13 4 -25 2 -29 -5z"/>
<path d="M173 2883 c-18 -12 -21 -19 -12 -35 6 -11 8 -22 5 -25 -10 -11 77
-92 117 -109 45 -18 144 -27 153 -13 2 4 11 6 19 3 11 -5 14 1 13 20 -1 14 -6
26 -10 26 -4 0 -8 6 -8 14 0 20 -69 90 -110 111 -45 23 -138 28 -167 8z"/>
<path d="M1309 2888 c-1 -7 -1 -18 0 -24 1 -6 -12 -14 -29 -18 -17 -3 -50 -20
-74 -39 -38 -29 -42 -35 -33 -55 6 -13 16 -21 23 -18 7 3 14 0 16 -6 6 -18
158 -13 158 5 0 4 4 6 8 3 4 -2 25 10 47 28 36 31 38 34 23 50 -9 9 -21 16
-27 16 -6 0 -11 5 -11 11 0 5 -4 8 -9 5 -4 -3 -17 2 -27 10 -10 9 -13 13 -7 9
9 -4 11 -1 7 10 -4 9 -12 14 -18 12 -6 -2 -19 0 -28 5 -13 6 -18 5 -19 -4z"/>
<path d="M3723 2837 c-29 -5 -53 -14 -53 -19 0 -5 -4 -7 -9 -4 -10 7 -8 -9 4
-39 16 -37 95 -95 140 -102 11 -2 21 -7 23 -11 4 -14 115 -5 154 12 19 9 16
39 -6 62 -9 8 -16 20 -16 25 0 5 -6 9 -14 9 -8 0 -17 9 -21 20 -3 11 -9 19
-13 18 -4 -1 -17 3 -29 10 -12 6 -32 14 -45 16 -13 3 -23 5 -23 6 0 7 -50 5
-92 -3z"/>
<path d="M4250 2830 c0 -5 -8 -11 -18 -14 -25 -8 -76 -55 -91 -84 -27 -51 -36
-148 -19 -198 9 -25 15 -30 34 -26 13 2 29 10 35 18 6 8 16 14 21 14 20 0 92
98 97 133 1 4 2 8 2 10 5 11 3 87 -3 87 -4 0 -5 6 -2 14 3 8 0 17 -5 21 -6 3
-9 11 -6 16 4 5 3 9 -2 10 -4 0 -16 2 -25 4 -10 2 -18 -1 -18 -5z"/>
<path d="M2995 2802 c-15 -13 -20 -30 -21 -74 0 -31 3 -55 8 -52 4 3 8 -1 8
-9 0 -29 76 -96 118 -103 11 -2 13 3 16 39 1 6 6 15 11 19 6 5 4 8 -5 8 -13 0
-13 1 0 10 11 7 11 10 2 10 -7 0 -10 5 -7 11 18 27 -63 139 -100 139 -9 0 -13
5 -10 10 9 14 3 12 -20 -8z"/>
<path d="M4374 2801 c-19 -16 -30 -56 -13 -45 5 3 9 -1 9 -8 1 -32 95 -108
134 -108 43 0 -13 -17 -71 -22 -7 -1 -13 -5 -13 -10 0 -5 -4 -6 -10 -3 -5 3
-10 1 -10 -5 0 -6 -4 -9 -8 -6 -5 3 -23 -10 -41 -28 l-32 -33 37 -31 c21 -17
41 -29 46 -26 4 3 8 1 8 -4 0 -9 2 -9 55 -14 17 -2 33 -7 37 -13 5 -6 8 -5 8
3 0 6 12 12 28 12 15 0 42 9 60 20 17 11 32 17 32 14 0 -3 14 8 30 26 l30 32
-22 19 c-13 10 -30 24 -38 31 -8 7 -16 12 -17 11 -8 -8 -43 -1 -43 8 0 5 5 7
10 4 6 -3 10 -2 10 2 0 5 10 9 21 10 12 1 26 6 30 10 10 10 -11 73 -23 73 -4
0 -8 5 -8 11 0 13 -25 39 -38 39 -5 0 -17 9 -28 21 -10 11 -26 18 -36 16 -10
-3 -18 -2 -18 2 0 15 -97 8 -116 -8z"/>
<path d="M4775 2812 c-7 -7 -12 -8 -38 -11 -15 -1 -67 -43 -67 -53 0 -22 84
-83 99 -73 5 2 14 -2 21 -10 9 -11 16 -12 26 -4 7 6 18 8 23 5 5 -4 12 -2 16
3 3 5 14 8 24 6 10 -2 31 7 47 20 26 21 27 25 16 47 -13 24 -71 61 -101 65 -9
1 -26 4 -38 7 -11 2 -24 1 -28 -2z"/>
<path d="M1477 2753 c-2 -1 -12 -4 -23 -6 -57 -9 -134 -82 -126 -119 1 -5 -2
-8 -6 -8 -5 0 -8 -10 -7 -22 2 -31 49 -40 106 -20 46 15 106 59 102 74 -2 4 1
8 6 8 12 0 31 57 25 74 -5 12 -69 28 -77 19z"/>
<path d="M1645 2709 c-4 -5 -10 -7 -15 -4 -14 9 -66 -45 -82 -85 -12 -29 -14
-54 -9 -102 2 -16 41 -29 54 -18 6 6 21 18 33 28 35 29 55 79 53 132 -2 47
-20 72 -34 49z"/>
<path d="M2724 2712 c-13 -8 -11 -44 4 -83 15 -38 63 -91 78 -85 7 3 14 1 16
-4 3 -9 22 -13 51 -11 28 2 22 69 -10 118 -26 41 -48 55 -90 56 -12 1 -20 5
-17 9 6 10 -17 10 -32 0z"/>
<path d="M1704 2642 c-4 -21 -8 -45 -10 -54 -1 -10 1 -18 7 -18 5 0 9 -9 9
-20 0 -18 23 -45 74 -87 34 -29 57 -7 61 57 3 47 -38 115 -85 140 -41 23 -49
20 -56 -18z"/>
<path d="M2268 2622 c-15 -55 12 -172 39 -172 7 0 13 -4 13 -10 0 -5 7 -10 15
-10 8 0 15 -4 15 -10 0 -18 43 -4 47 16 11 51 0 124 -18 124 -5 0 -9 6 -9 13
0 7 -11 23 -25 35 -14 12 -25 20 -25 17 0 -2 -11 0 -24 5 -19 7 -25 5 -28 -8z"/>
<path d="M4710 2618 c-33 -12 -32 -11 -19 -44 7 -16 12 -32 11 -35 0 -3 16
-24 36 -46 52 -56 105 -81 171 -79 60 1 70 14 49 65 -6 14 -11 29 -10 34 1 4
-2 7 -8 7 -5 0 -10 6 -10 13 0 7 -10 22 -22 33 -54 46 -147 71 -198 52z"/>
<path d="M655 2592 c-42 -4 -115 -32 -115 -43 0 -6 -4 -8 -8 -5 -4 2 -8 -4 -9
-14 -1 -10 6 -21 15 -24 28 -10 62 -32 57 -37 -9 -10 96 -15 125 -7 44 12 60
20 60 29 0 6 6 7 13 3 6 -4 9 -4 5 1 -4 4 -3 14 3 21 20 24 -90 82 -146 76z"/>
<path d="M2727 2511 c-6 -27 22 -109 47 -136 24 -26 46 -34 99 -39 25 -3 27 0
27 32 0 46 -27 101 -62 122 -15 9 -25 20 -20 25 4 5 2 6 -4 2 -5 -3 -27 -2
-47 2 -29 7 -37 6 -40 -8z"/>
<path d="M833 2507 c3 -7 9 -11 16 -10 6 2 26 -6 46 -17 24 -13 35 -16 35 -7
0 8 4 7 10 -3 7 -12 9 -11 8 5 -2 15 -9 20 -27 19 -15 -1 -35 3 -46 9 -29 16
-47 17 -42 4z"/>
<path d="M305 2490 c-14 -43 10 -117 50 -153 43 -39 65 -57 65 -52 0 3 8 1 19
-4 30 -17 88 -20 88 -5 0 7 -3 11 -7 9 -3 -2 -6 16 -5 41 0 25 -4 44 -11 44
-6 0 -11 6 -11 14 0 29 -76 102 -118 113 -58 15 -63 15 -70 -7z"/>
<path d="M970 2480 c-12 -8 -12 -10 1 -15 28 -11 74 -12 87 -2 8 6 12 6 12 -2
0 -6 4 -11 10 -11 5 0 7 6 4 14 -4 10 -18 14 -42 12 -20 -2 -42 1 -47 5 -6 4
-17 4 -25 -1z"/>
<path d="M801 2451 c-6 -10 -7 -21 -4 -25 3 -3 2 -6 -4 -6 -14 0 -9 -98 8
-145 14 -41 95 -128 110 -119 5 3 9 0 9 -7 0 -7 3 -9 7 -6 3 4 12 2 19 -4 9
-7 15 -6 20 3 13 20 13 161 0 177 -6 8 -10 17 -10 20 2 11 -19 51 -27 51 -4 0
-11 9 -14 20 -3 11 -13 20 -20 20 -8 0 -19 8 -24 18 -6 9 -11 14 -11 10 0 -4
-11 -3 -25 2 -20 8 -27 6 -34 -9z"/>
<path d="M3796 2461 c-4 -6 -15 -11 -24 -11 -20 0 -77 -47 -77 -63 -1 -17 34
-40 50 -33 8 3 17 1 20 -3 6 -11 37 -5 82 15 55 25 78 78 35 81 -31 2 -47 8
-54 18 -5 6 -8 4 -8 -5 0 -12 -2 -12 -9 -1 -6 9 -11 10 -15 2z"/>
<path d="M4287 2458 c2 -5 -5 -8 -17 -8 -11 0 -23 -7 -26 -15 -4 -8 -10 -12
-15 -9 -5 3 -9 1 -9 -4 0 -5 -11 -22 -25 -38 -13 -15 -23 -30 -21 -32 2 -2 -2
-15 -9 -29 -7 -14 -12 -34 -10 -44 2 -11 -2 -19 -8 -19 -7 0 -6 -4 3 -11 11
-8 12 -12 2 -16 -6 -2 -9 -10 -5 -16 4 -6 8 -23 9 -36 2 -14 8 -27 14 -29 5
-2 8 -8 4 -13 -3 -5 -1 -9 5 -9 5 0 13 5 16 10 4 6 11 8 16 5 5 -4 9 -1 9 4 0
6 7 11 15 11 8 0 15 5 15 10 0 6 11 15 25 22 13 6 22 14 20 18 -3 4 2 13 10
20 8 7 15 19 15 26 0 8 4 14 8 14 10 0 11 6 16 72 2 26 -1 65 -7 87 -8 31 -15
38 -33 37 -12 0 -20 -4 -17 -8z"/>
<path d="M1290 2438 c0 -5 -4 -7 -8 -4 -5 3 -24 -5 -44 -17 -30 -19 -34 -25
-27 -44 4 -12 23 -30 41 -39 37 -19 130 -22 136 -5 2 6 7 9 12 6 9 -6 52 30
49 42 -2 4 -14 17 -28 28 -14 11 -28 23 -29 27 -2 5 -8 5 -14 2 -6 -4 -14 0
-19 7 -7 12 -9 12 -9 0 0 -9 -4 -10 -12 -4 -16 13 -48 13 -48 1z"/>
<path d="M994 2418 c-3 -4 -9 -6 -13 -4 -4 3 -8 -1 -8 -9 0 -8 3 -15 7 -15 3
0 6 -9 7 -20 3 -38 75 -107 123 -118 42 -9 105 -8 116 2 6 6 8 14 3 17 -5 3
-12 16 -14 30 -3 13 -9 25 -15 27 -5 2 -10 10 -10 18 0 9 -4 12 -10 9 -5 -3
-10 0 -10 7 -1 31 -160 82 -176 56z"/>
<path d="M2259 2422 c-12 -63 2 -152 24 -152 6 0 8 -3 4 -6 -11 -11 19 -33 49
-36 24 -3 30 1 32 22 2 14 8 30 13 37 7 7 6 14 -1 18 -5 3 -10 17 -10 31 0 13
-4 24 -10 24 -5 0 -10 7 -10 15 0 24 -87 69 -91 47z"/>
<path d="M4070 2419 c0 -4 -8 -7 -18 -6 -42 3 -136 -85 -142 -133 -5 -33 0
-42 20 -37 11 3 20 1 20 -3 0 -10 96 16 114 31 6 5 23 18 38 29 27 20 65 110
47 110 -6 0 -8 3 -6 8 3 4 -12 8 -34 8 -21 1 -39 -3 -39 -7z"/>
<path d="M570 2411 c0 -5 -10 -8 -23 -7 -22 3 -23 -1 -23 -46 1 -26 3 -48 6
-48 4 0 12 -16 19 -35 7 -20 24 -46 38 -59 l25 -23 -51 -2 c-74 -2 -81 -3 -81
-14 0 -6 -3 -8 -6 -4 -8 8 -49 -30 -49 -46 -1 -24 87 -70 136 -71 54 0 121 37
111 63 -4 10 -1 12 9 6 8 -4 -1 6 -20 23 -19 17 -39 28 -44 25 -6 -3 -7 -1 -3
5 5 9 13 8 30 -3 29 -19 111 -34 128 -24 7 5 9 9 4 9 -5 0 -3 7 4 15 7 8 8 15
3 15 -7 0 -13 27 -16 78 0 6 -4 12 -9 12 -4 0 -8 7 -8 15 0 8 -5 15 -12 15 -6
0 -9 3 -6 6 19 18 -110 97 -141 86 -8 -3 -11 0 -7 7 4 6 2 11 -3 11 -6 0 -11
-4 -11 -9z"/>
<path d="M4538 2405 c-2 -2 -15 -5 -28 -7 -34 -5 -90 -39 -90 -55 0 -7 -4 -13
-10 -13 -12 0 -51 -75 -43 -84 4 -3 2 -6 -3 -6 -5 0 -10 -20 -10 -45 -1 -47 2
-49 51 -46 41 4 53 7 78 24 15 9 31 17 36 17 5 0 13 9 16 20 4 11 11 18 16 15
5 -4 9 1 9 9 0 9 4 16 9 16 8 0 20 23 27 53 1 4 3 8 4 10 6 6 8 87 2 88 -30 5
-61 7 -64 4z"/>
<path d="M2697 2340 c-15 -21 -28 -46 -30 -56 -1 -11 -6 -25 -10 -31 -5 -8 -3
-13 4 -13 8 0 9 -4 1 -13 -9 -10 -7 -19 4 -35 8 -12 13 -22 10 -22 -3 0 2 -9
11 -19 15 -18 17 -19 39 -3 27 20 66 86 57 96 -3 3 -1 6 5 6 7 0 8 10 2 29 -4
16 -6 32 -3 35 3 3 -2 12 -11 21 -9 9 -14 21 -11 26 4 5 3 9 -2 10 -4 0 -15 2
-23 4 -9 1 -28 -14 -43 -35z"/>
<path d="M2437 2342 c-15 -16 -24 -31 -20 -35 3 -4 2 -7 -4 -7 -12 0 -23 -31
-28 -77 -2 -22 1 -31 8 -26 6 4 8 0 4 -10 -3 -9 4 -26 19 -42 l24 -26 30 34
c16 19 30 40 30 46 0 6 4 11 8 11 9 0 10 5 14 50 2 30 -32 110 -47 110 -6 0
-23 -13 -38 -28z"/>
<path d="M4700 2360 c-21 -13 -9 -102 17 -137 13 -18 20 -33 16 -33 -4 0 16
-16 46 -35 30 -19 58 -32 63 -29 4 3 8 1 8 -3 0 -5 11 -9 25 -9 24 0 26 3 23
48 -2 26 -6 48 -10 48 -5 0 -7 3 -6 8 10 32 -86 132 -125 132 -10 0 -17 4 -17
8 0 10 -25 11 -40 2z"/>
<path d="M1544 2300 c-35 -8 -90 -53 -110 -91 -25 -50 -41 -106 -34 -125 4
-10 6 -27 4 -38 -2 -15 3 -17 24 -14 45 8 53 12 88 45 63 60 87 135 67 204 -7
22 -12 24 -39 19z"/>
<path d="M1725 2296 c-32 -18 -95 -83 -88 -90 3 -3 0 -6 -7 -6 -7 0 -11 -3 -7
-6 3 -3 1 -18 -4 -33 -10 -26 -13 -92 -5 -121 12 -44 19 -60 27 -60 5 0 8 -5
6 -11 -3 -17 33 -20 40 -3 3 8 11 14 19 14 8 0 14 4 14 9 0 5 6 16 13 23 52
54 70 186 34 254 -20 37 -24 40 -42 30z"/>
<path d="M3563 2295 c-13 -14 -22 -105 -10 -105 5 0 6 -4 3 -9 -9 -14 52 -101
84 -119 16 -9 30 -20 30 -24 0 -5 14 -8 30 -8 24 0 30 5 32 23 3 49 -3 102
-11 105 -6 2 -8 9 -5 16 3 8 -2 20 -10 29 -9 9 -16 19 -16 24 -1 12 -55 55
-87 68 -22 9 -31 9 -40 0z"/>
<path d="M3382 2293 c-6 -2 -10 -9 -6 -14 3 -5 0 -9 -6 -9 -7 0 -10 -7 -7 -15
4 -8 2 -17 -4 -20 -5 -4 -7 -11 -4 -16 4 -5 2 -9 -3 -9 -11 0 -5 -74 9 -120
14 -42 69 -119 87 -120 6 0 12 -4 12 -10 0 -5 7 -10 15 -10 8 0 15 7 15 15 0
8 5 15 11 15 6 0 9 6 6 14 -3 8 -2 16 3 18 6 2 11 15 12 31 1 15 6 27 11 27 4
0 3 9 -3 20 -8 14 -8 20 0 20 8 0 8 6 0 20 -6 11 -8 20 -4 20 4 0 -1 10 -12
22 -12 13 -13 18 -4 13 16 -9 -31 58 -60 86 -19 19 -50 29 -68 22z"/>
<path d="M1840 2269 c0 -6 -4 -8 -8 -5 -5 3 -7 -24 -5 -60 2 -47 8 -74 24 -97
26 -37 59 -71 59 -60 0 4 5 2 12 -5 7 -7 20 -12 30 -12 10 0 18 -6 18 -12 0
-7 7 -4 16 7 8 11 13 28 10 38 -2 9 0 17 6 17 5 0 6 6 1 13 -4 6 -9 18 -10 25
-13 55 -24 82 -34 82 -5 0 -9 6 -9 13 0 14 -63 57 -91 62 -10 2 -19 -1 -19 -6z"/>
<path d="M3233 2235 c-29 -18 -48 -40 -64 -73 -12 -26 -25 -55 -30 -64 -12
-24 -11 -30 4 -22 9 5 9 4 0 -6 -8 -8 -9 -20 -2 -37 6 -17 6 -22 -2 -18 -6 4
-6 -1 2 -12 11 -19 39 -27 39 -12 0 4 10 9 23 13 26 6 77 49 77 63 0 6 7 16
15 23 9 7 13 15 10 18 -3 3 0 11 6 19 6 7 8 13 5 13 -4 0 -2 8 3 19 6 10 7 21
4 25 -7 7 -11 24 -15 59 -3 24 -26 21 -75 -8z"/>
<path d="M3936 2192 c-12 -11 -6 -24 8 -19 8 3 25 -2 38 -12 24 -19 74 -36 96
-32 6 1 12 -2 12 -7 0 -15 47 -21 60 -8 8 8 11 7 8 -3 -3 -13 14 -17 117 -24
17 -2 36 -6 43 -10 11 -8 16 -2 13 16 0 4 4 7 9 7 6 0 10 -5 10 -11 0 -6 5 -7
13 -2 6 4 23 9 37 9 51 3 55 5 34 14 -12 5 -47 5 -77 1 -30 -4 -65 -7 -76 -6
-12 1 -21 -3 -21 -9 0 -7 -3 -7 -8 0 -4 7 -23 13 -42 15 -19 2 -39 5 -45 8 -5
3 -23 6 -39 7 -15 1 -31 5 -35 10 -7 11 -29 17 -53 16 -10 0 -18 3 -18 7 0 10
-77 41 -84 33z"/>
<path d="M1250 2169 c-76 -44 -119 -165 -91 -252 12 -35 12 -35 48 -25 35 10
93 59 93 80 0 5 6 6 13 2 6 -4 9 -4 5 1 -4 4 -3 16 3 27 6 11 12 40 14 64 3
25 7 50 11 56 5 7 3 8 -6 3 -10 -6 -12 -4 -7 7 6 18 -18 58 -36 58 -7 0 -28
-10 -47 -21z"/>
<path d="M3809 2156 c-9 -20 -12 -40 -8 -48 4 -7 3 -18 -2 -24 -6 -8 -6 -14 0
-18 5 -3 8 -19 7 -35 -1 -16 3 -29 8 -28 6 1 10 -4 9 -10 -3 -15 57 -83 74
-83 6 0 13 -4 15 -9 2 -6 16 -12 32 -15 16 -3 26 -3 23 1 -3 3 0 12 8 19 7 8
12 25 9 39 -2 14 0 25 6 25 6 0 6 9 0 25 -5 14 -9 29 -8 33 3 15 -15 62 -23
62 -5 0 -9 10 -9 22 0 12 -2 19 -5 16 -3 -3 -20 8 -36 23 -17 16 -35 26 -40
23 -5 -3 -9 0 -9 5 0 26 -37 9 -51 -23z"/>
<path d="M4573 2179 c-13 -5 -23 -6 -23 -2 0 3 -7 0 -15 -7 -8 -7 -15 -9 -15
-4 0 4 -13 -4 -28 -19 -16 -15 -28 -37 -27 -48 1 -20 34 -49 63 -54 9 -2 17
-4 17 -5 0 -1 17 -3 38 -4 20 -1 37 2 37 6 0 5 4 7 9 4 12 -8 75 33 90 57 9
14 9 21 -1 30 -18 17 -59 37 -86 42 -12 2 -25 6 -30 8 -4 3 -17 1 -29 -4z"/>
<path d="M2066 2144 c-23 -24 -28 -36 -25 -60 0 -4 -5 -10 -12 -14 -13 -9 -22
-60 -11 -60 4 0 8 -13 9 -28 2 -26 33 -99 33 -77 0 5 7 -1 16 -13 23 -34 43
-27 66 26 24 51 25 68 14 126 -8 44 -23 74 -48 97 -10 9 -15 19 -11 23 3 3 4
6 1 6 -3 0 -17 -12 -32 -26z"/>
<path d="M3024 2101 c-26 -26 -49 -55 -51 -69 -17 -82 -4 -172 30 -206 11 -11
18 -9 45 15 18 16 29 29 25 29 -5 0 -1 6 8 13 9 7 17 15 17 20 1 4 4 17 7 30
10 39 12 97 3 97 -4 0 -7 3 -6 8 2 12 -23 66 -35 74 -17 11 -21 10 -43 -11z"/>
<path d="M4045 2030 c7 -95 69 -159 177 -180 34 -7 36 -5 40 20 9 59 -37 136
-103 174 -27 15 -49 24 -49 21 0 -3 -9 -1 -20 5 -15 8 -20 8 -20 -1 0 -9 -3
-9 -14 0 -12 10 -14 4 -11 -39z"/>
<path d="M720 2058 c-11 -4 -20 -5 -20 -1 0 3 -8 -1 -18 -10 -10 -10 -21 -15
-24 -12 -8 8 -78 -64 -78 -80 0 -8 -4 -15 -9 -15 -5 0 -8 -8 -6 -17 2 -10 4
-23 4 -30 1 -6 10 -9 21 -6 11 3 20 1 20 -5 0 -14 68 -7 110 10 41 17 94 68
124 117 7 10 5 12 -5 6 -11 -7 -11 -5 1 10 11 14 12 19 2 22 -6 3 -10 8 -8 11
6 10 -89 9 -114 0z"/>
<path d="M1000 2058 c0 -5 -6 -8 -14 -8 -18 0 -72 -52 -89 -87 -21 -41 -30
-90 -17 -98 5 -3 8 -10 5 -15 -3 -5 9 -5 26 0 17 5 34 8 38 7 3 -1 24 9 46 22
22 14 44 24 48 23 5 -2 6 2 2 8 -3 5 -2 10 3 10 9 0 29 43 50 108 6 17 6 30 1
26 -5 -3 -9 0 -9 5 0 7 -18 10 -45 9 -25 -2 -45 -6 -45 -10z"/>
<path d="M4327 2058 c-6 -4 -15 -4 -19 -2 -13 9 -21 -25 -9 -40 6 -7 9 -15 6
-18 -3 -3 6 -17 20 -32 14 -15 25 -30 25 -34 0 -7 45 -33 85 -48 25 -9 77 -12
90 -5 6 3 16 6 24 8 23 3 42 43 21 43 -5 0 -9 3 -8 8 5 14 -36 72 -54 78 -11
3 -15 11 -12 17 4 7 4 9 0 5 -4 -3 -22 0 -41 7 -18 8 -35 11 -39 8 -3 -4 -6
-2 -6 4 0 11 -65 12 -83 1z"/>
<path d="M1507 2010 c-30 -69 -18 -143 31 -198 17 -19 24 -22 39 -13 10 6 14
11 8 11 -5 0 -4 4 3 8 24 16 34 106 17 156 -13 37 -48 76 -69 76 -6 0 -19 -18
-29 -40z"/>
<path d="M1766 2020 c-27 -32 -51 -104 -41 -120 3 -6 1 -10 -5 -10 -6 0 -8 -5
-3 -12 4 -7 9 -24 11 -38 2 -14 7 -27 13 -28 5 -2 7 -8 4 -12 -3 -5 3 -18 15
-30 19 -19 21 -19 38 -2 11 9 17 20 15 25 -2 4 0 7 5 7 13 0 44 78 37 91 -4 5
-2 9 3 9 10 0 -2 82 -15 103 -13 21 -37 47 -44 47 -4 0 -19 -14 -33 -30z"/>
<path d="M3574 2035 c-4 -8 -13 -15 -21 -15 -8 0 -12 -4 -8 -9 3 -5 -2 -17
-11 -25 -11 -12 -12 -16 -2 -16 10 0 10 -2 1 -8 -15 -9 -10 -90 7 -133 10 -23
38 -46 45 -37 1 2 14 20 29 40 21 28 29 51 31 93 2 30 -1 57 -6 60 -5 4 -9 13
-9 21 0 18 -24 44 -40 44 -6 0 -13 -7 -16 -15z"/>
<path d="M457 2013 c-2 -2 -14 -6 -27 -8 -46 -9 -139 -103 -125 -126 3 -4 -2
-12 -10 -19 -10 -8 -12 -17 -6 -24 9 -11 11 -17 11 -35 0 -5 14 -8 30 -7 17 0
30 5 30 10 0 5 3 7 6 3 15 -14 137 80 132 101 -1 4 2 16 8 27 9 17 10 38 5 74
-1 8 -46 12 -54 4z"/>
<path d="M1430 1993 c0 -6 -8 -10 -17 -9 -10 2 -20 0 -23 -3 -3 -4 -17 -14
-33 -24 -32 -21 -77 -86 -80 -116 -1 -11 -4 -21 -7 -21 -12 0 -1 -93 11 -100
22 -14 103 38 138 90 28 42 35 60 35 103 0 28 -5 61 -12 72 -6 11 -12 15 -12
8z"/>
<path d="M4144 821 c-11 -12 -1 -20 19 -17 12 3 22 5 22 6 0 1 8 3 18 5 37 7
29 15 -12 12 -24 -1 -45 -4 -47 -6z"/>
<path d="M3750 681 c0 -10 29 -36 34 -30 1 2 -6 12 -16 22 -10 9 -18 13 -18 8z"/>
<path d="M2881 634 c0 -11 3 -14 6 -6 3 7 2 16 -1 19 -3 4 -6 -2 -5 -13z"/>
<path d="M3888 643 c7 -3 16 -2 19 1 4 3 -2 6 -13 5 -11 0 -14 -3 -6 -6z"/>
<path d="M1235 400 c-3 -6 1 -7 9 -4 18 7 21 14 7 14 -6 0 -13 -4 -16 -10z"/>
<path d="M1490 383 c0 -11 -5 -24 -12 -31 -7 -7 -8 -12 -4 -12 5 0 2 -8 -5
-17 -13 -16 -12 -17 3 -5 10 8 17 17 16 20 -1 4 3 17 10 29 8 14 9 24 2 28 -5
3 -10 -2 -10 -12z"/>
<path d="M2415 391 c-3 -5 -2 -12 3 -15 5 -3 9 1 9 9 0 17 -3 19 -12 6z"/>
<path d="M1591 376 c-9 -11 -9 -16 1 -22 7 -4 10 -4 6 1 -4 4 -3 14 3 22 6 7
9 13 6 13 -2 0 -10 -6 -16 -14z"/>
<path d="M1570 340 c0 -5 5 -10 11 -10 5 0 7 5 4 10 -3 6 -8 10 -11 10 -2 0
-4 -4 -4 -10z"/>
</g>
</svg>
