<?xml version="1.0" standalone="no"?>
<!DOCTYPE svg PUBLIC "-//W3C//DTD SVG 20010904//EN"
 "http://www.w3.org/TR/2001/REC-SVG-20010904/DTD/svg10.dtd">
<svg version="1.0" xmlns="http://www.w3.org/2000/svg"
 width="2189.000000pt" height="2216.000000pt" viewBox="0 0 2189.000000 2216.000000"
 preserveAspectRatio="xMidYMid meet">
<metadata>
Created by potrace 1.16, written by Peter Selinger 2001-2019
</metadata>
<g transform="translate(0.000000,2216.000000) scale(0.100000,-0.100000)"
fill="current" stroke="none">
<path d="M12015 21752 c-386 -320 -486 -777 -247 -1129 62 -92 60 -91 141 -43
194 113 343 304 398 510 27 100 24 302 -5 403 -26 91 -68 179 -125 260 -53 75
-70 75 -162 -1z"/>
<path d="M8324 21677 c-127 -131 -182 -261 -191 -453 -11 -224 58 -404 223
-582 48 -53 69 -69 84 -65 35 9 165 156 199 224 54 110 75 216 68 344 -7 136
-33 229 -97 360 -54 110 -155 248 -184 253 -13 3 -45 -23 -102 -81z"/>
<path d="M9684 20967 c-129 -55 -251 -159 -328 -279 -20 -32 -51 -99 -68 -150
-31 -88 -32 -100 -33 -243 0 -163 13 -224 76 -364 27 -60 30 -63 56 -57 60 15
191 87 245 136 66 59 147 176 177 253 72 194 66 485 -15 687 -19 47 -34 49
-110 17z"/>
<path d="M11106 20945 c-15 -39 -28 -208 -22 -287 17 -227 117 -430 269 -544
71 -53 182 -100 270 -115 92 -15 87 -19 114 86 23 94 24 276 0 364 -66 246
-251 429 -495 492 -91 23 -128 24 -136 4z"/>
<path d="M12555 20835 c-299 -67 -535 -313 -602 -629 -22 -105 -14 -325 16
-433 14 -49 28 -83 36 -83 51 0 193 38 260 69 236 111 389 327 440 618 22 128
17 367 -11 456 -7 21 -51 22 -139 2z"/>
<path d="M14701 20762 c-42 -93 -76 -195 -97 -294 -23 -111 -23 -323 1 -433
48 -224 182 -414 375 -530 l83 -49 27 33 c42 49 117 208 142 297 18 66 22 106
22 244 0 151 -2 172 -27 253 -58 188 -164 343 -311 454 -64 48 -146 93 -169
93 -8 0 -28 -31 -46 -68z"/>
<path d="M8944 20806 c-73 -18 -189 -75 -261 -130 -112 -85 -206 -236 -239
-384 -30 -133 -2 -422 42 -439 28 -11 172 28 253 68 155 77 270 220 331 414
28 88 39 304 20 413 l-12 72 -41 -1 c-23 0 -65 -6 -93 -13z"/>
<path d="M6565 20723 c-55 -130 -59 -332 -11 -458 92 -240 318 -416 611 -476
139 -29 140 -29 165 37 31 85 43 192 30 277 -36 236 -202 430 -483 562 -83 40
-249 95 -283 95 -8 0 -21 -17 -29 -37z"/>
<path d="M8030 20586 c-363 -153 -565 -410 -587 -746 -8 -124 31 -324 65 -338
27 -10 162 30 249 73 160 79 270 189 348 350 51 105 73 185 82 293 11 147 -39
384 -82 389 -11 2 -45 -8 -75 -21z"/>
<path d="M15664 20113 c-140 -105 -242 -231 -304 -380 -86 -206 -79 -472 20
-689 35 -78 130 -224 145 -224 22 0 123 76 185 140 283 291 317 757 82 1117
-26 40 -52 74 -58 77 -5 2 -37 -16 -70 -41z"/>
<path d="M13490 19994 c-251 -51 -464 -208 -600 -440 -115 -196 -173 -462
-150 -684 12 -120 48 -270 66 -277 35 -13 267 88 386 169 79 53 216 184 275
263 98 130 175 323 193 485 10 92 2 214 -20 302 -17 69 -64 187 -75 191 -5 2
-39 -2 -75 -9z"/>
<path d="M11408 19820 c-336 -61 -589 -348 -615 -697 l-6 -83 49 -2 c296 -12
526 77 705 270 117 127 188 284 192 426 2 69 2 69 -28 78 -44 13 -242 18 -297
8z"/>
<path d="M10345 19785 c-177 -73 -325 -230 -387 -410 -70 -204 -59 -408 34
-616 37 -83 34 -83 168 -17 104 50 217 158 272 258 108 195 125 473 45 711
-37 109 -41 112 -132 74z"/>
<path d="M8064 19675 c-12 -31 5 -198 29 -285 30 -109 56 -165 112 -250 126
-190 315 -290 545 -290 l97 0 6 65 c12 122 -18 285 -70 390 -119 237 -327 369
-600 382 -101 5 -113 4 -119 -12z"/>
<path d="M6945 19601 c-55 -91 -94 -183 -115 -274 -72 -308 2 -608 203 -823
74 -79 196 -168 224 -162 23 4 105 141 142 237 67 174 79 384 31 551 -42 146
-150 317 -262 412 -65 54 -158 118 -175 118 -6 0 -28 -27 -48 -59z"/>
<path d="M9055 19560 c-91 -10 -195 -39 -202 -58 -10 -26 25 -162 63 -240 53
-111 168 -224 284 -280 120 -58 228 -82 373 -82 65 0 149 5 188 11 65 11 69
13 69 38 0 52 -32 158 -70 236 -126 261 -399 406 -705 375z"/>
<path d="M12349 19555 c-213 -42 -397 -184 -494 -380 -65 -132 -80 -195 -80
-355 0 -126 20 -259 44 -299 12 -19 159 13 244 52 247 114 396 361 414 682 5
99 -7 258 -23 300 -7 18 -17 18 -105 0z"/>
<path d="M16431 19409 c-78 -13 -184 -53 -249 -91 -63 -37 -210 -173 -232
-214 -14 -26 -13 -28 43 -80 71 -66 168 -121 272 -153 70 -22 99 -25 235 -25
177 -1 255 16 391 84 110 56 259 174 259 206 0 7 -33 42 -72 78 -84 76 -207
144 -318 176 -87 24 -249 34 -329 19z"/>
<path d="M6017 19143 c-61 -156 -72 -218 -71 -408 1 -155 3 -178 28 -260 30
-103 90 -233 138 -303 52 -76 203 -226 284 -282 79 -55 261 -146 311 -156 30
-6 31 -5 62 71 64 153 75 212 75 410 1 166 -1 187 -27 279 -97 348 -336 606
-657 706 -52 17 -97 30 -101 30 -4 0 -23 -39 -42 -87z"/>
<path d="M13620 19134 c-17 -118 -8 -296 20 -394 69 -244 245 -421 470 -474
59 -14 130 -21 130 -13 0 2 9 39 21 83 26 101 28 271 4 365 -69 272 -307 483
-578 515 l-55 6 -12 -88z"/>
<path d="M15101 19179 c-149 -29 -262 -90 -371 -199 -95 -94 -150 -186 -192
-320 -19 -64 -23 -96 -23 -215 0 -131 19 -264 43 -302 13 -21 167 13 257 57
174 85 290 223 358 430 48 142 58 359 26 511 -12 54 -13 55 -98 38z"/>
<path d="M4645 19150 c-64 -12 -204 -57 -232 -76 -18 -11 -21 -20 -17 -47 49
-270 204 -491 447 -635 194 -115 458 -169 692 -143 114 13 272 48 281 62 9 15
-33 134 -83 235 -138 282 -411 509 -703 585 -95 24 -299 34 -385 19z"/>
<path d="M7650 19102 c-36 -10 -87 -29 -115 -43 -44 -22 -50 -30 -53 -60 -4
-51 41 -217 86 -311 111 -235 319 -402 565 -455 101 -21 276 -14 385 17 46 12
86 29 89 36 9 23 -25 143 -71 251 -113 266 -322 477 -546 553 -91 31 -251 37
-340 12z"/>
<path d="M11544 19005 c-90 -20 -204 -70 -281 -124 -232 -164 -354 -426 -340
-731 5 -109 36 -263 56 -283 14 -14 146 11 232 44 140 54 278 171 358 304 45
74 99 219 117 312 17 91 18 332 1 423 -12 65 -12 65 -47 67 -19 1 -62 -4 -96
-12z"/>
<path d="M17984 18965 c-144 -31 -263 -96 -382 -209 -130 -125 -216 -265 -266
-438 -30 -104 -51 -278 -42 -342 l7 -46 43 0 c127 0 346 64 477 138 204 117
369 324 425 532 19 70 26 274 11 343 l-8 37 -102 -1 c-56 0 -130 -7 -163 -14z"/>
<path d="M9455 18798 c-96 -128 -145 -270 -145 -424 0 -254 161 -505 406 -631
l72 -37 23 19 c42 37 119 168 142 239 32 102 31 282 -1 380 -45 133 -117 249
-218 350 -58 59 -200 166 -219 166 -7 0 -34 -28 -60 -62z"/>
<path d="M12409 18683 c-188 -141 -327 -342 -379 -547 -41 -160 -21 -374 46
-508 33 -67 112 -178 125 -178 6 0 38 16 72 36 146 85 267 212 341 359 109
215 107 492 -5 705 -41 78 -106 171 -125 177 -6 2 -40 -18 -75 -44z"/>
<path d="M10595 18664 c-33 -8 -98 -33 -144 -55 -66 -32 -101 -58 -166 -122
-89 -90 -131 -156 -172 -274 -24 -69 -27 -93 -27 -213 -1 -145 23 -276 51
-287 28 -11 173 25 250 62 95 46 221 167 270 260 79 150 112 333 93 506 -16
139 -16 139 -59 138 -20 0 -63 -7 -96 -15z"/>
<path d="M15953 18614 c-245 -53 -465 -233 -543 -442 -38 -102 -38 -107 11
-133 105 -53 179 -71 314 -76 111 -5 143 -2 213 15 178 45 355 158 453 290 53
72 115 190 125 239 6 30 4 31 -68 61 -40 16 -105 37 -145 46 -88 20 -272 20
-360 0z"/>
<path d="M9078 18486 c-196 -81 -342 -241 -408 -451 -28 -88 -38 -276 -20
-367 21 -112 87 -278 110 -278 5 0 35 10 67 22 190 70 334 232 395 443 20 69
23 102 23 245 0 171 -9 229 -57 358 -22 60 -28 62 -110 28z"/>
<path d="M12846 18462 c-15 -24 -28 -211 -23 -327 12 -281 118 -526 285 -660
96 -77 238 -135 331 -135 27 0 29 3 47 83 26 113 27 382 0 477 -25 92 -95 234
-150 308 -88 115 -240 214 -379 247 -71 17 -104 19 -111 7z"/>
<path d="M16741 18263 c-144 -146 -211 -307 -211 -502 0 -189 60 -340 188
-471 42 -44 82 -80 89 -80 14 0 106 105 152 173 159 235 184 531 65 758 -36
68 -161 209 -186 209 -6 0 -50 -39 -97 -87z"/>
<path d="M4240 18264 c-79 -14 -173 -39 -229 -62 l-63 -25 5 -53 c3 -28 19
-91 35 -139 151 -436 644 -700 1162 -620 93 14 209 41 219 51 8 8 -18 94 -54
177 -54 127 -132 242 -235 347 -202 207 -436 315 -700 325 -63 2 -126 2 -140
-1z"/>
<path d="M7705 18203 c-29 -69 -45 -156 -45 -252 0 -150 38 -259 133 -387 118
-157 371 -290 588 -310 l67 -7 21 57 c43 115 44 286 1 398 -82 219 -312 409
-606 501 -141 44 -141 44 -159 0z"/>
<path d="M15119 18135 c-346 -50 -615 -274 -679 -566 -18 -81 -8 -256 19 -341
12 -37 26 -70 32 -74 18 -11 182 18 269 48 325 113 516 400 496 743 -6 105
-25 197 -41 201 -6 1 -49 -4 -96 -11z"/>
<path d="M14240 18115 c-171 -30 -324 -107 -441 -224 -191 -191 -255 -463
-171 -730 9 -29 23 -56 30 -59 24 -9 169 18 240 44 183 69 312 185 398 359 65
132 78 194 79 365 0 164 -16 261 -43 259 -9 -1 -51 -7 -92 -14z"/>
<path d="M11420 17864 c-15 -106 -8 -295 14 -379 25 -92 99 -233 157 -298 94
-106 225 -177 364 -199 41 -6 77 -9 80 -6 3 2 14 40 25 83 25 97 27 270 4 365
-8 36 -33 103 -56 150 -33 70 -56 100 -127 170 -117 115 -243 179 -388 195
l-61 7 -12 -88z"/>
<path d="M5615 17916 c-34 -8 -91 -28 -128 -44 -66 -30 -67 -31 -67 -69 0 -54
33 -185 68 -268 102 -247 312 -430 562 -490 106 -26 269 -24 380 5 97 25 120
35 120 54 0 32 -55 198 -90 274 -151 322 -422 534 -700 548 -52 2 -109 -2
-145 -10z"/>
<path d="M7209 17856 c-150 -56 -296 -160 -402 -284 -61 -72 -131 -213 -157
-316 -34 -136 -23 -336 26 -453 14 -32 17 -33 52 -27 308 56 544 276 622 578
30 117 28 283 -5 412 -14 54 -31 104 -37 111 -10 9 -31 5 -99 -21z"/>
<path d="M17780 17840 c-168 -36 -286 -103 -398 -225 -54 -59 -142 -209 -142
-241 0 -17 106 -70 206 -103 333 -112 693 -17 897 234 55 68 132 217 124 238
-7 19 -201 82 -311 102 -117 20 -270 18 -376 -5z"/>
<path d="M9891 17779 c-30 -32 -34 -85 -28 -372 7 -349 36 -541 139 -915 95
-348 195 -581 403 -942 248 -429 329 -584 361 -684 16 -51 16 -53 -14 -147
-115 -358 -166 -753 -143 -1097 25 -353 84 -625 251 -1147 29 -88 67 -218 85
-290 90 -349 144 -936 124 -1350 -8 -183 -31 -411 -42 -421 -3 -3 -20 2 -39
12 -140 71 -332 255 -442 422 -82 124 -182 316 -226 432 -35 91 -91 160 -129
160 -26 0 -34 -29 -35 -129 -1 -69 3 -87 47 -196 76 -187 180 -396 251 -506
118 -179 279 -327 449 -412 l84 -43 -38 -149 c-47 -186 -109 -374 -189 -575
-86 -216 -202 -477 -265 -595 -29 -55 -57 -116 -63 -135 -6 -19 -16 -107 -22
-195 -12 -158 -24 -235 -75 -469 -16 -76 -28 -172 -34 -270 l-8 -151 -1 135
c-1 100 4 174 22 285 49 307 44 444 -24 641 -44 128 -51 143 -136 285 -127
212 -316 466 -528 712 -142 163 -166 207 -166 298 0 38 7 112 15 165 47 287
64 649 46 929 -14 220 -7 289 44 391 30 63 53 89 163 190 275 255 317 310 470
624 69 141 116 225 152 269 53 64 144 131 206 151 33 11 34 13 34 62 l0 51
-32 -7 c-67 -13 -193 -84 -261 -147 -84 -76 -128 -140 -230 -333 -99 -190
-154 -273 -218 -330 -67 -60 -163 -106 -222 -106 -83 0 -91 37 -58 276 11 76
29 234 41 349 25 254 39 345 90 585 52 243 58 281 70 436 7 91 7 160 -1 230
-5 54 -14 133 -18 174 -5 50 -2 148 10 295 22 273 41 736 33 799 -4 25 -11 46
-15 46 -15 0 -47 -74 -68 -156 -11 -43 -32 -160 -46 -259 -14 -99 -27 -184
-28 -189 -5 -17 -211 303 -330 514 -176 312 -343 698 -427 984 -40 139 -85
354 -102 486 -14 116 -18 555 -5 663 l8 67 -31 0 c-46 0 -67 -15 -84 -62 -39
-111 -55 -749 -23 -928 31 -168 116 -460 181 -615 11 -26 12 -35 3 -35 -41 0
-449 77 -585 111 -335 82 -544 167 -753 308 -160 107 -301 258 -378 406 -57
108 -135 185 -188 185 -12 0 -25 -5 -28 -11 -10 -16 78 -191 150 -299 178
-268 459 -481 825 -625 207 -81 542 -164 875 -216 l140 -21 103 -207 c131
-265 257 -480 443 -759 l148 -224 -21 -88 c-22 -88 -22 -89 -3 -192 26 -152
32 -452 10 -598 -19 -134 -69 -333 -93 -374 -33 -56 -46 -56 -104 0 -29 28
-82 68 -118 89 -122 70 -254 188 -462 412 -162 175 -249 248 -406 340 -216
126 -338 225 -407 328 -49 75 -63 119 -86 273 -22 155 -54 247 -84 247 -18 0
-20 -8 -23 -70 -10 -203 83 -461 222 -621 55 -63 185 -161 362 -274 137 -87
210 -156 439 -415 88 -99 249 -269 358 -378 238 -237 242 -243 241 -397 -1
-59 -11 -160 -23 -230 -12 -69 -28 -201 -37 -295 -8 -93 -26 -246 -39 -340
-29 -208 -33 -269 -45 -610 -7 -216 -13 -285 -29 -347 -24 -93 -60 -166 -108
-218 -66 -74 -130 -47 -249 107 -167 216 -470 589 -558 689 -116 130 -156 189
-190 275 -38 98 -55 165 -65 262 -23 232 71 614 201 822 70 111 199 275 228
290 16 9 30 19 30 23 0 31 -66 42 -117 20 -92 -39 -228 -166 -345 -323 -91
-121 -110 -159 -157 -314 -72 -237 -105 -276 -158 -186 -44 73 -102 156 -173
243 -36 45 -84 116 -108 160 l-42 79 128 6 c197 9 355 64 504 177 169 128 297
364 298 547 l0 41 -50 11 c-77 17 -253 14 -329 -5 -296 -73 -506 -309 -560
-627 l-17 -97 -47 119 c-25 65 -60 165 -78 222 -84 277 -81 310 33 455 89 112
101 139 122 250 24 134 50 212 97 284 60 93 70 130 76 268 5 107 4 122 -10
122 -24 0 -37 -32 -48 -123 -15 -115 -63 -214 -129 -261 -61 -44 -72 -61 -105
-161 -31 -91 -36 -102 -81 -170 -37 -56 -84 -89 -114 -80 -52 17 -120 143
-149 280 -42 194 -131 662 -156 820 -14 88 -28 169 -31 180 -5 18 -1 20 39 17
53 -4 177 28 250 64 152 76 258 187 337 349 55 113 80 215 80 329 0 68 -23
222 -35 234 -10 11 -152 -20 -223 -48 -202 -81 -367 -252 -442 -458 -32 -88
-51 -211 -44 -282 4 -45 4 -45 -14 14 -20 65 -46 85 -84 65 -20 -11 -21 -16
-15 -183 7 -213 13 -255 92 -712 36 -204 65 -384 65 -400 -1 -80 -39 -70 -173
44 -170 145 -199 168 -300 235 -140 94 -299 156 -404 157 -61 0 -35 -25 81
-79 162 -75 215 -113 396 -284 89 -84 219 -195 288 -247 88 -67 135 -110 155
-142 18 -29 47 -113 78 -229 96 -356 184 -626 316 -972 52 -137 92 -251 89
-254 -12 -13 -227 19 -353 52 -242 62 -568 206 -763 336 -107 71 -426 377
-561 538 -125 149 -349 489 -453 688 -41 78 -67 94 -119 74 l-27 -10 36 -78
c158 -348 387 -685 607 -893 140 -132 162 -193 92 -248 -59 -47 -178 -51 -455
-16 -216 27 -350 86 -495 214 -128 114 -156 130 -140 80 10 -32 181 -206 250
-256 96 -68 218 -121 320 -140 56 -10 191 -19 355 -24 404 -13 506 -40 837
-224 234 -129 392 -200 556 -250 98 -30 289 -73 399 -91 34 -5 41 -13 104
-118 119 -199 343 -522 648 -935 163 -222 296 -405 294 -407 -9 -9 -829 70
-1148 111 -952 121 -1654 344 -2167 687 -183 122 -264 187 -407 326 -230 225
-367 414 -531 730 -94 183 -148 261 -180 261 -27 0 -18 -84 21 -188 183 -490
546 -943 1034 -1292 63 -45 132 -92 152 -104 21 -11 38 -24 38 -27 0 -10 -200
-74 -338 -109 -226 -56 -361 -73 -612 -73 -180 0 -253 4 -365 21 -176 27 -349
69 -515 126 l-130 44 0 -48 0 -48 138 -45 c574 -190 1124 -206 1913 -53 l116
22 74 -23 c41 -13 249 -68 463 -123 380 -97 632 -174 789 -240 43 -18 74 -36
70 -40 -4 -4 -57 -17 -118 -29 -117 -24 -337 -94 -495 -156 -172 -68 -441
-199 -785 -382 -392 -209 -615 -321 -769 -388 -458 -199 -829 -285 -1231 -285
-196 0 -292 8 -488 41 l-129 22 -44 -21 c-34 -17 -44 -27 -44 -46 0 -22 6 -25
68 -36 387 -68 776 -73 1117 -15 434 73 761 205 1585 640 344 182 723 343 884
376 163 33 315 41 667 36 227 -3 377 -10 469 -21 688 -87 1173 -340 1508 -787
120 -160 227 -354 374 -674 46 -102 84 -141 207 -209 135 -76 441 -309 426
-324 -2 -3 -28 13 -57 34 -152 114 -297 187 -360 182 -59 -4 -60 -23 -4 -161
81 -202 134 -405 171 -652 9 -60 23 -132 32 -160 29 -92 122 -260 238 -428 63
-92 126 -188 139 -215 23 -46 83 -298 74 -308 -3 -2 -15 46 -28 108 -30 142
-69 222 -162 333 -141 169 -230 233 -242 173 -3 -13 -7 -167 -10 -343 -6 -429
-27 -643 -120 -1275 -19 -129 -37 -277 -41 -329 -6 -95 -17 -136 -72 -266 -17
-38 -35 -93 -42 -120 -16 -69 -150 -223 -251 -290 -69 -46 -267 -132 -480
-210 -100 -37 -184 -83 -192 -105 -2 -7 -47 -7 -148 0 -177 13 -280 32 -356
66 -107 48 -237 75 -359 75 -60 1 -139 -4 -173 -11 -140 -25 -337 -111 -455
-199 -57 -42 -187 -172 -291 -291 -78 -89 -169 -166 -241 -203 -116 -60 -248
-49 -675 54 -215 53 -277 61 -490 66 -361 9 -547 -24 -1350 -237 -438 -117
-679 -159 -752 -131 -13 4 -45 11 -72 15 -83 13 -50 -16 50 -43 80 -22 109
-24 299 -25 149 0 245 5 330 18 130 19 398 74 510 105 38 11 71 18 73 16 7 -7
-36 -92 -76 -151 -23 -33 -57 -98 -77 -145 -45 -107 -155 -256 -311 -421 -82
-87 -135 -153 -171 -214 -57 -97 -65 -124 -33 -124 14 0 36 25 73 83 39 60
104 132 246 272 232 229 298 309 355 429 98 207 237 333 422 381 111 29 232
15 354 -41 102 -47 102 -44 -1 -152 -87 -90 -94 -102 -176 -271 -114 -235
-164 -307 -342 -495 -106 -110 -161 -176 -181 -217 -34 -66 -39 -105 -14 -95
9 3 17 6 20 6 2 0 15 23 30 52 18 35 87 114 218 247 162 166 204 217 280 331
110 167 182 254 327 396 168 163 253 198 374 154 33 -12 123 -39 200 -61 77
-22 185 -55 241 -74 73 -25 118 -35 163 -35 l62 0 -18 -31 c-10 -18 -62 -77
-115 -133 -54 -55 -98 -102 -98 -104 0 -12 104 14 161 40 57 25 89 52 225 190
302 306 515 494 639 568 155 90 254 99 446 36 143 -47 502 -177 512 -185 4 -4
-36 -15 -90 -25 -132 -23 -170 -42 -261 -129 -123 -118 -141 -127 -366 -193
-204 -60 -299 -113 -576 -319 -222 -165 -313 -225 -423 -278 -125 -61 -231
-93 -368 -110 -63 -9 -140 -25 -171 -37 -65 -24 -186 -100 -268 -168 -98 -81
-546 -538 -585 -597 -36 -54 -73 -148 -90 -223 -5 -25 -3 -33 10 -38 24 -10
40 12 64 86 29 89 106 188 221 283 52 43 142 118 199 165 56 48 126 104 155
126 136 104 350 164 740 210 l49 6 -7 -61 c-10 -89 -48 -193 -141 -389 -161
-341 -245 -584 -245 -711 0 -47 3 -59 16 -59 20 0 39 47 53 134 7 37 22 96 35
130 30 80 174 366 227 453 24 37 66 110 95 161 166 291 532 635 998 937 61 39
140 82 176 94 91 33 155 66 212 112 28 21 54 39 58 39 15 0 40 -43 40 -67 0
-28 -43 -126 -76 -175 -16 -22 -56 -54 -104 -82 -265 -153 -551 -439 -822
-818 -38 -53 -122 -155 -187 -228 -76 -84 -132 -155 -154 -198 -49 -94 -127
-342 -127 -402 0 -16 5 -21 22 -18 18 2 27 16 41 58 102 308 111 323 305 525
181 188 366 355 677 615 288 240 433 354 580 460 72 51 164 119 205 150 90 68
200 139 270 175 28 14 108 65 178 112 83 57 159 99 222 124 93 37 98 41 198
146 57 59 139 153 182 208 43 55 124 145 180 200 85 84 107 113 140 182 22 46
42 83 44 83 3 0 -7 -34 -21 -75 -26 -78 -39 -100 -155 -251 -58 -76 -70 -99
-89 -172 -20 -72 -30 -93 -80 -153 -32 -38 -89 -122 -128 -186 -83 -140 -119
-178 -228 -232 -103 -51 -139 -83 -224 -197 -38 -50 -124 -147 -191 -216 -106
-107 -153 -145 -338 -273 -177 -122 -235 -169 -330 -264 -222 -222 -414 -563
-545 -966 -42 -131 -71 -253 -61 -262 13 -13 173 165 243 269 36 54 111 187
167 296 213 411 286 493 645 719 87 54 152 105 215 167 58 57 109 97 141 112
33 14 67 41 98 78 26 31 57 61 69 67 21 11 21 11 15 -72 -8 -103 -45 -244 -97
-365 -46 -107 -54 -139 -79 -291 -14 -91 -15 -113 -4 -113 27 0 142 164 228
327 166 313 260 432 599 768 108 107 221 259 306 414 51 91 57 112 106 336 14
66 48 185 76 265 28 80 61 179 74 220 15 48 23 65 23 47 1 -15 -14 -76 -33
-135 -74 -229 -96 -357 -96 -560 0 -105 -2 -117 -30 -172 -16 -32 -48 -121
-70 -197 -68 -230 -99 -311 -185 -483 -96 -193 -151 -291 -229 -415 -77 -120
-122 -212 -197 -396 -112 -277 -135 -401 -126 -666 4 -110 13 -202 27 -268 11
-55 27 -149 35 -210 23 -169 68 -301 122 -358 24 -25 91 -53 101 -42 3 2 -7
62 -22 132 -74 362 -60 672 44 998 36 111 89 235 100 235 16 0 84 -148 126
-273 59 -176 84 -315 92 -524 4 -94 10 -175 14 -179 4 -3 15 -4 24 0 15 6 16
24 11 204 -8 234 -19 319 -83 597 -39 175 -47 228 -48 315 l-1 105 47 65 c25
36 69 90 96 120 l50 55 25 -23 c13 -13 52 -76 87 -140 35 -64 81 -145 103
-180 60 -96 75 -146 88 -296 10 -105 10 -176 1 -314 -13 -195 -10 -230 35
-369 21 -63 31 -83 45 -83 23 0 23 1 -13 116 l-31 99 9 155 c11 214 9 471 -6
555 -8 46 -31 108 -66 180 -80 163 -136 377 -121 459 4 19 25 59 48 87 23 29
72 95 110 148 86 118 235 287 320 363 l64 56 -9 -61 c-5 -34 -9 -141 -10 -237
-1 -145 4 -205 26 -350 71 -453 91 -663 90 -955 0 -172 -4 -251 -17 -315 -9
-47 -21 -123 -26 -170 -20 -162 -30 -218 -52 -284 -12 -36 -19 -68 -16 -71 16
-16 80 27 108 72 93 145 98 162 186 683 8 47 17 190 21 318 4 181 9 235 19
239 20 7 116 -51 179 -109 65 -59 102 -122 184 -315 33 -78 82 -182 109 -230
27 -48 51 -96 55 -105 3 -10 16 -18 28 -18 18 0 20 4 15 27 -4 16 -27 69 -52
118 -42 81 -87 190 -168 403 -37 95 -73 148 -189 275 -52 57 -112 130 -133
162 l-39 59 2 100 c2 163 61 352 154 497 21 33 34 73 45 134 8 48 24 110 36
138 12 32 22 85 25 138 7 101 -9 163 -68 282 -22 43 -39 81 -37 83 2 2 29 -47
60 -109 79 -156 95 -252 63 -382 -30 -127 -18 -198 57 -323 64 -106 107 -209
115 -272 3 -28 9 -50 13 -50 11 0 46 43 63 75 27 55 54 245 60 430 l2 70 91
-137 c154 -230 218 -386 303 -730 51 -205 101 -498 101 -586 -1 -101 -18 -138
-174 -364 -72 -105 -105 -206 -118 -371 -9 -99 -8 -131 1 -140 21 -20 38 17
46 96 10 110 32 195 71 274 29 58 56 92 140 173 59 56 113 100 124 100 14 0
28 -18 49 -64 84 -174 298 -280 597 -293 161 -7 184 -3 184 35 0 43 -34 67
-145 102 -188 61 -307 134 -385 239 -93 123 -123 243 -140 543 -10 188 -23
271 -75 478 -47 189 -93 315 -192 530 -102 220 -168 391 -214 555 -30 107 -41
131 -104 225 -95 140 -97 145 -30 72 32 -35 97 -96 144 -135 106 -88 196 -182
216 -223 8 -17 22 -37 30 -44 30 -25 62 -94 85 -180 28 -108 129 -385 187
-515 25 -55 57 -131 70 -170 40 -111 71 -165 93 -165 26 0 25 7 -10 93 -77
188 -161 424 -194 542 -37 136 -43 170 -33 195 3 8 8 29 12 45 l7 30 12 -36
c8 -21 47 -70 102 -125 147 -146 252 -313 313 -499 16 -49 55 -211 86 -360 64
-310 102 -441 144 -505 42 -64 145 -174 158 -169 7 3 -1 34 -24 87 -75 183
-163 546 -163 675 0 156 71 221 216 198 193 -30 344 -179 560 -556 133 -232
440 -581 587 -667 38 -22 103 -71 145 -110 42 -38 111 -93 152 -122 81 -57
214 -163 295 -236 27 -26 65 -58 83 -73 37 -30 82 -36 82 -11 0 19 -84 109
-171 183 -36 31 -108 92 -160 136 -154 130 -378 355 -428 430 -73 107 -166
281 -243 454 -120 269 -207 411 -324 527 -35 34 -184 159 -331 277 -242 193
-275 223 -336 306 -94 126 -137 165 -237 212 -47 22 -97 52 -113 67 -28 27
-74 96 -147 221 -23 40 -73 104 -110 141 -37 37 -87 95 -110 130 -38 56 -25
45 113 -94 86 -86 158 -156 161 -156 12 0 5 50 -13 109 -10 34 -15 61 -11 61
4 0 35 -34 69 -75 80 -96 108 -117 211 -156 53 -20 124 -60 190 -106 58 -40
137 -89 175 -109 134 -70 411 -266 675 -478 248 -199 308 -276 489 -634 196
-387 268 -472 492 -584 46 -22 124 -63 173 -90 48 -27 120 -61 160 -75 85 -31
332 -158 401 -207 27 -20 110 -96 186 -171 132 -130 169 -156 169 -117 0 29
-46 86 -191 233 -123 125 -150 147 -331 265 -108 71 -258 167 -332 214 -209
131 -265 175 -310 250 -22 36 -99 180 -171 320 -72 140 -160 302 -195 359 -92
149 -194 248 -528 515 -119 95 -242 195 -272 222 -30 28 -97 76 -148 108 -51
32 -92 60 -90 61 2 2 71 -16 153 -39 153 -44 146 -40 430 -202 54 -31 172 -61
270 -69 44 -4 114 -18 155 -31 81 -25 199 -91 241 -133 14 -14 63 -56 110 -93
79 -63 162 -139 530 -486 185 -175 306 -276 469 -394 257 -187 337 -275 381
-421 52 -177 83 -237 121 -237 25 0 24 53 -1 77 -25 23 -37 53 -70 179 -15 58
-41 126 -61 159 -38 62 -232 263 -449 465 -128 118 -231 230 -231 251 0 19 33
8 83 -30 29 -22 81 -53 117 -70 62 -30 70 -31 185 -30 194 2 230 -13 370 -155
158 -160 347 -283 423 -274 25 3 16 14 -126 163 -311 324 -428 402 -673 449
-149 29 -200 46 -302 98 -94 49 -199 139 -326 278 -180 199 -407 425 -471 470
-140 98 -170 104 -381 86 -124 -11 -145 -1 -268 126 -51 53 -111 106 -132 116
l-39 19 125 47 c358 133 452 130 670 -17 107 -73 524 -457 643 -593 71 -82
113 -116 174 -144 50 -23 148 -27 148 -7 0 18 -54 67 -124 112 -32 21 -67 52
-77 69 -23 38 -25 71 -4 63 8 -4 52 -15 98 -26 46 -11 106 -28 134 -39 77 -29
213 -134 438 -336 161 -145 305 -231 305 -182 0 16 -24 36 -103 85 -65 40
-567 539 -567 563 0 9 10 18 23 21 12 3 117 30 234 60 l211 55 49 -28 c78 -46
304 -275 337 -341 29 -60 73 -226 102 -388 19 -101 32 -122 54 -82 19 37 12
180 -15 276 -14 50 -38 139 -54 199 -26 97 -37 120 -99 210 -112 163 -125 199
-74 213 15 5 105 7 200 6 168 -2 175 -3 224 -30 62 -34 88 -65 158 -189 75
-134 112 -179 173 -214 41 -24 64 -30 110 -30 31 0 57 2 57 4 0 3 -26 31 -57
63 -40 40 -79 97 -126 182 -37 68 -66 124 -65 126 2 1 55 -3 118 -8 220 -18
539 15 992 102 139 27 313 59 386 72 72 13 132 27 132 31 0 13 -35 10 -328
-26 -415 -52 -524 -60 -787 -60 -344 0 -556 33 -805 125 -102 38 -127 43 -220
47 -142 5 -286 -11 -523 -58 -252 -51 -285 -51 -440 0 -79 26 -157 43 -218 50
-163 16 -205 43 -419 261 -115 116 -179 173 -247 217 -289 188 -595 199 -968
35 -100 -44 -269 -87 -448 -114 l-139 -21 -14 20 c-23 33 -70 57 -244 122
-311 117 -352 145 -385 256 -28 97 -68 163 -179 296 -58 69 -106 130 -106 135
0 5 -27 106 -60 224 -91 322 -137 518 -160 684 -26 187 -56 514 -65 705 -10
198 -21 208 -120 106 -136 -138 -178 -244 -210 -526 -7 -67 -13 -96 -14 -69
-2 83 21 262 45 359 18 67 39 119 73 175 75 124 198 356 209 395 6 19 16 107
22 195 31 457 116 824 261 1134 27 57 49 110 49 116 0 16 142 338 228 519 335
697 801 1058 1554 1200 292 56 714 79 1048 57 295 -19 388 -41 685 -167 156
-66 245 -110 885 -437 358 -182 531 -258 770 -337 183 -61 333 -96 535 -127
164 -24 623 -25 805 0 156 21 279 42 286 50 13 13 -9 46 -41 61 -46 22 -79 22
-220 -3 -535 -95 -1047 -21 -1658 240 -175 75 -366 171 -742 372 -679 363
-1008 499 -1400 577 l-60 12 45 23 c141 71 399 151 851 265 178 45 366 95 417
112 l94 30 137 -26 c379 -71 624 -97 927 -97 336 0 595 37 884 125 205 62 213
66 223 110 6 23 6 41 0 47 -7 7 -51 -4 -127 -30 -145 -50 -363 -104 -516 -128
-88 -14 -174 -18 -365 -18 -276 0 -383 12 -600 66 -109 28 -328 94 -348 106
-4 3 45 41 110 85 386 263 685 570 908 929 113 181 245 488 245 568 0 26 -4
31 -24 31 -35 0 -70 -50 -171 -245 -167 -322 -281 -481 -510 -711 -589 -593
-1425 -910 -2810 -1068 -202 -23 -643 -65 -858 -82 l-89 -7 218 294 c408 551
569 781 743 1067 47 75 68 102 83 102 34 0 261 49 375 81 149 42 322 115 498
211 289 156 331 176 427 207 158 50 258 63 508 66 270 3 381 19 525 76 106 43
175 81 243 137 48 40 116 127 108 140 -3 5 47 12 112 15 146 8 251 34 367 92
103 51 205 128 205 155 0 31 -78 136 -155 208 -54 50 -101 83 -168 116 -141
69 -195 81 -377 80 -139 0 -163 -3 -232 -26 -42 -14 -107 -42 -143 -63 -82
-46 -205 -163 -205 -195 0 -52 132 -191 243 -256 71 -42 216 -92 288 -101 l50
-6 -46 -24 c-26 -13 -74 -43 -108 -67 -137 -97 -247 -135 -462 -160 -233 -28
-376 -19 -425 26 -56 52 -27 123 98 237 152 138 329 375 477 636 75 132 165
318 165 340 0 11 -13 15 -49 15 l-48 0 -68 -122 c-128 -231 -305 -497 -440
-657 -116 -140 -453 -462 -546 -523 -238 -156 -590 -304 -859 -361 -70 -15
-261 -39 -266 -34 -2 1 42 119 97 262 125 325 229 649 334 1040 44 162 62 186
250 328 55 41 165 137 245 212 80 76 168 155 195 176 49 36 154 93 268 143 54
24 68 38 48 50 -5 3 -49 -1 -97 -9 -165 -29 -348 -136 -599 -350 -141 -121
-181 -147 -195 -125 -15 23 -12 96 10 213 50 275 84 603 96 927 6 174 5 186
-13 209 -15 18 -26 23 -45 18 -21 -6 -27 -15 -37 -64 -6 -32 -16 -112 -21
-178 -17 -205 -70 -509 -181 -1050 -23 -113 -62 -203 -112 -257 -67 -73 -114
-44 -212 132 -80 142 -122 240 -142 332 -16 77 -17 77 -57 92 -23 7 -49 17
-58 21 -16 6 -18 0 -18 -64 0 -95 23 -202 72 -336 61 -165 101 -242 171 -330
132 -165 134 -194 27 -516 -103 -311 -183 -467 -332 -648 -38 -46 -78 -102
-89 -125 -30 -59 -68 -106 -85 -106 -24 0 -52 58 -100 210 -60 190 -73 214
-175 350 -164 219 -341 351 -427 319 -30 -11 -27 -31 8 -51 31 -17 171 -200
234 -305 58 -98 94 -185 131 -318 73 -268 83 -471 31 -648 -45 -150 -87 -221
-224 -375 -72 -80 -346 -418 -584 -720 -57 -73 -120 -122 -156 -122 -59 0
-146 132 -178 267 -18 76 -33 304 -34 496 0 130 -19 349 -45 512 -8 50 -21
171 -30 269 -9 99 -25 232 -37 295 -13 71 -21 162 -22 236 -1 103 2 127 20
165 15 31 89 113 235 260 118 118 282 292 364 385 201 229 266 292 382 367 54
36 138 91 187 123 218 142 341 312 402 553 26 102 41 243 30 286 -4 16 -13 26
-25 26 -30 0 -59 -85 -81 -242 -17 -113 -28 -157 -54 -213 -60 -128 -186 -242
-417 -378 -181 -107 -270 -180 -434 -358 -207 -224 -365 -362 -483 -423 -19
-10 -61 -43 -94 -73 l-61 -56 -23 26 c-48 56 -106 302 -125 529 -12 142 -1
331 27 476 16 78 16 86 -1 142 -22 72 -17 91 42 177 672 978 897 1598 952
2626 10 181 5 229 -25 241 -40 16 -69 -34 -77 -135 -4 -41 -13 -104 -21 -140
-8 -35 -25 -140 -36 -234 -74 -600 -263 -1128 -620 -1730 -117 -198 -282 -447
-290 -438 -4 5 -12 53 -19 108 -31 265 -79 476 -120 526 l-19 24 -7 -48 c-8
-51 9 -536 25 -722 21 -245 23 -351 9 -451 -29 -204 -12 -447 52 -732 45 -202
76 -395 98 -623 12 -113 30 -273 41 -355 25 -188 25 -215 -1 -248 -50 -63
-187 -7 -384 158 -196 165 -262 171 -153 15 83 -120 122 -163 324 -369 167
-169 197 -205 226 -265 l33 -70 0 -440 c1 -454 7 -552 51 -814 20 -120 15
-202 -15 -263 -13 -26 -65 -94 -115 -150 -516 -585 -795 -1107 -1102 -2063
l-67 -210 -8 -390 c-5 -303 -11 -404 -23 -455 -15 -62 -95 -264 -102 -258 -2
2 12 42 31 88 49 121 59 197 51 377 -9 198 -21 301 -52 448 -52 241 -86 373
-131 508 l-47 138 18 171 c42 416 92 682 266 1423 164 696 190 838 221 1204
15 176 6 698 -15 891 -34 304 -63 450 -121 605 -72 191 -83 250 -62 343 9 40
44 132 78 204 114 247 178 427 220 618 30 137 33 397 5 565 -24 146 -24 387
-1 569 18 150 14 186 -25 186 -34 0 -61 -74 -86 -235 -7 -49 -14 -118 -14
-152 0 -35 -4 -63 -10 -63 -5 0 -10 11 -10 23 0 37 -38 145 -78 222 -24 44
-63 96 -109 142 -104 104 -103 103 -158 39 -71 -84 -138 -204 -175 -312 -27
-82 -33 -119 -37 -214 -9 -207 44 -349 179 -482 43 -43 87 -78 97 -78 23 0
131 114 181 192 49 75 89 186 105 290 12 79 13 80 14 30 1 -29 8 -117 17 -195
31 -278 -3 -495 -114 -711 -71 -138 -191 -253 -255 -244 -34 5 -63 60 -116
222 -103 313 -162 581 -181 826 -33 398 66 807 306 1268 35 68 64 134 64 147
0 54 -55 68 -116 29 -26 -17 -104 -163 -139 -259 -10 -27 -21 -53 -25 -58 -7
-8 -207 291 -322 483 -81 135 -202 361 -213 397 -7 26 -30 20 225 63 889 153
1388 448 1639 969 33 69 41 96 41 142 0 32 -5 61 -11 65 -21 12 -80 -61 -124
-154 -65 -137 -127 -225 -240 -337 -179 -180 -416 -316 -725 -419 -259 -86
-563 -145 -764 -149 l-100 -2 -53 140 c-224 591 -255 730 -258 1165 -1 275 -6
309 -44 329 -16 9 -24 7 -40 -10z"/>
<path d="M16092 17731 c-114 -149 -186 -307 -223 -484 -17 -84 -20 -125 -16
-232 7 -174 44 -298 128 -422 43 -65 170 -193 190 -193 21 0 135 120 189 200
51 75 82 145 117 259 23 75 26 104 27 236 1 114 -3 165 -17 213 -28 104 -75
211 -124 285 -52 78 -178 207 -203 207 -9 0 -40 -31 -68 -69z"/>
<path d="M10810 17685 c-228 -46 -404 -182 -505 -390 -61 -124 -78 -202 -77
-355 0 -95 5 -144 21 -205 12 -43 25 -83 30 -88 17 -17 171 21 259 64 69 33
102 58 168 123 70 71 89 97 132 187 80 167 87 203 86 424 -1 192 -9 249 -35
252 -8 1 -43 -5 -79 -12z"/>
<path d="M11158 17408 c-166 -190 -238 -363 -238 -572 0 -119 16 -193 65 -292
39 -80 146 -204 177 -204 28 0 198 174 235 240 61 111 85 195 91 318 8 199
-50 361 -180 498 -39 40 -76 74 -83 74 -7 0 -37 -28 -67 -62z"/>
<path d="M12556 17414 c-4 -10 -12 -65 -19 -121 -27 -242 40 -474 184 -637 85
-97 248 -181 374 -193 l63 -6 17 54 c57 192 39 385 -53 564 -43 84 -170 216
-252 262 -66 38 -186 79 -256 88 -44 6 -52 4 -58 -11z"/>
<path d="M15149 17398 c-141 -102 -226 -201 -294 -342 -68 -140 -79 -196 -79
-371 1 -133 4 -160 27 -238 15 -48 41 -116 58 -150 34 -67 114 -193 130 -202
15 -10 115 63 185 134 234 237 306 599 185 930 -39 106 -136 271 -160 271 -4
0 -28 -15 -52 -32z"/>
<path d="M9368 17400 c-248 -42 -457 -219 -538 -456 -45 -131 -47 -303 -4
-456 l17 -58 51 6 c78 9 205 56 268 98 126 83 233 235 278 396 27 98 36 263
21 369 -7 46 -15 89 -18 97 -6 15 -6 15 -75 4z"/>
<path d="M4822 17239 c-85 -14 -201 -57 -277 -101 -88 -51 -211 -175 -250
-252 l-30 -58 35 -30 c105 -91 246 -161 383 -189 323 -66 654 41 829 269 26
35 48 70 48 78 0 24 -131 148 -196 186 -158 92 -357 128 -542 97z"/>
<path d="M7800 17184 c-14 -3 -49 -10 -78 -15 l-54 -11 7 -46 c10 -68 53 -197
87 -267 95 -189 252 -330 431 -387 76 -24 255 -29 335 -9 50 12 52 15 52 46 0
54 -26 175 -55 250 -75 199 -260 367 -462 419 -63 17 -219 28 -263 20z"/>
<path d="M17222 17159 c-123 -21 -251 -80 -351 -162 -59 -50 -141 -145 -141
-165 0 -29 111 -118 208 -166 118 -59 222 -79 382 -73 156 6 238 26 359 87 74
37 203 131 245 178 17 20 18 23 2 46 -24 37 -142 129 -216 169 -151 81 -329
112 -488 86z"/>
<path d="M7463 16898 c-34 -35 -79 -91 -100 -124 -79 -124 -119 -314 -94 -449
24 -130 120 -275 235 -354 45 -31 48 -32 71 -17 38 25 131 146 164 213 44 88
61 164 61 268 0 174 -56 310 -182 441 -45 46 -84 84 -87 84 -4 0 -34 -28 -68
-62z"/>
<path d="M5670 16859 c-25 -6 -69 -17 -98 -25 -53 -15 -53 -15 -46 -47 30
-142 119 -307 225 -421 120 -129 250 -208 425 -258 110 -31 321 -31 438 1 44
11 81 22 83 24 5 6 -34 132 -66 208 -46 110 -118 214 -209 301 -96 92 -186
147 -312 189 -88 31 -106 33 -245 35 -82 2 -170 -2 -195 -7z"/>
<path d="M3475 16844 c-87 -15 -209 -53 -295 -91 -99 -43 -220 -117 -220 -134
0 -32 104 -175 184 -254 99 -98 204 -166 328 -210 130 -46 223 -59 376 -52
139 7 221 25 345 77 70 29 208 113 276 168 l23 19 -20 39 c-30 59 -102 153
-163 213 -113 111 -276 194 -447 227 -92 18 -282 17 -387 -2z"/>
<path d="M14039 16809 c-167 -14 -338 -96 -455 -220 -65 -70 -86 -102 -78
-123 10 -26 139 -123 209 -156 209 -100 490 -98 711 5 89 40 181 105 242 168
53 54 51 61 -39 136 -175 146 -367 208 -590 190z"/>
<path d="M18321 16755 c-189 -34 -378 -146 -482 -285 -68 -90 -138 -251 -125
-285 7 -19 158 -90 236 -111 86 -23 280 -23 372 -1 216 52 394 166 515 328 45
59 103 168 103 192 0 20 -88 77 -179 116 -133 57 -290 73 -440 46z"/>
<path d="M9506 16594 c-37 -7 -111 -34 -164 -60 -276 -134 -420 -443 -358
-766 22 -114 30 -128 68 -128 94 1 239 57 334 131 105 81 193 225 234 384 25
95 30 293 10 393 -14 71 -10 69 -124 46z"/>
<path d="M12300 16513 c-15 -106 -8 -293 16 -378 57 -211 196 -378 378 -454
60 -25 167 -51 212 -51 41 0 70 329 40 450 -52 209 -203 388 -393 468 -69 29
-159 52 -204 52 l-37 0 -12 -87z"/>
<path d="M15715 16562 c-237 -127 -388 -310 -451 -547 -29 -108 -27 -353 4
-458 37 -128 82 -227 103 -227 30 0 143 57 209 106 154 113 259 263 317 451
24 80 27 103 27 253 1 181 -7 223 -67 374 -24 60 -37 82 -52 83 -11 2 -51 -14
-90 -35z"/>
<path d="M5020 16389 c-74 -8 -219 -48 -272 -75 -33 -17 -34 -33 -12 -123 55
-220 193 -409 390 -538 173 -112 340 -162 569 -170 154 -5 269 7 393 43 61 17
62 21 28 120 -54 158 -149 309 -275 434 -228 226 -531 340 -821 309z"/>
<path d="M16647 16374 c-331 -60 -634 -301 -787 -626 -39 -84 -78 -204 -68
-213 3 -3 56 -17 119 -32 154 -36 394 -39 535 -6 359 84 625 308 729 614 33
96 43 178 24 190 -28 18 -196 69 -259 79 -87 13 -198 11 -293 -6z"/>
<path d="M1570 16365 c-36 -8 -95 -26 -132 -41 -78 -30 -80 -35 -53 -138 66
-252 264 -469 518 -567 146 -56 242 -71 417 -67 165 5 340 36 340 62 0 7 -11
45 -25 85 -57 167 -172 335 -312 455 -90 77 -253 164 -364 196 -98 28 -297 36
-389 15z"/>
<path d="M2891 16212 c-89 -121 -141 -269 -141 -402 0 -70 26 -191 56 -257 73
-166 253 -333 440 -407 l68 -28 31 37 c52 64 105 157 126 225 32 98 30 249 -4
355 -63 192 -213 366 -428 495 -45 28 -86 50 -90 50 -4 0 -30 -31 -58 -68z"/>
<path d="M13549 16193 c-21 -94 -15 -312 10 -408 72 -270 259 -454 511 -501
45 -9 84 -13 87 -10 16 15 44 153 50 236 20 327 -182 619 -492 708 -38 11 -89
23 -112 26 l-42 6 -12 -57z"/>
<path d="M11550 16232 l-35 -7 1 -85 c4 -294 201 -532 515 -620 86 -24 277
-44 327 -35 l35 6 -6 97 c-17 301 -214 547 -502 627 -64 18 -276 28 -335 17z"/>
<path d="M7983 16200 c-98 -18 -283 -99 -283 -125 0 -16 56 -102 103 -159 194
-232 563 -314 834 -185 74 35 77 45 33 128 -61 115 -164 221 -262 272 -119 61
-301 91 -425 69z"/>
<path d="M19860 16167 c-129 -43 -237 -112 -340 -216 -125 -127 -198 -266
-235 -450 -21 -101 -16 -292 9 -385 26 -95 72 -201 89 -204 8 -2 51 11 94 28
225 86 439 273 536 465 13 28 37 88 53 135 26 78 28 98 28 240 1 167 -11 227
-71 363 -31 69 -32 69 -163 24z"/>
<path d="M10880 16060 c-36 -5 -92 -18 -125 -28 l-60 -18 3 -44 c5 -60 46
-182 84 -248 52 -91 158 -187 262 -237 128 -62 232 -85 381 -84 66 1 149 6
185 13 l65 11 -3 40 c-4 61 -40 172 -80 250 -56 106 -174 221 -282 273 -47 23
-110 48 -141 56 -75 19 -210 26 -289 16z"/>
<path d="M14490 15978 c-19 -110 -8 -335 20 -423 84 -262 263 -427 510 -470
41 -8 78 -12 81 -9 19 11 49 187 49 280 0 163 -46 300 -142 430 -100 134 -280
236 -455 258 l-51 6 -12 -72z"/>
<path d="M6693 16020 c-180 -36 -376 -186 -457 -351 -59 -120 -80 -222 -73
-359 5 -108 27 -224 47 -244 12 -12 143 13 213 41 194 79 334 251 388 479 18
77 20 109 16 244 -6 193 -8 200 -56 199 -20 -1 -55 -5 -78 -9z"/>
<path d="M4097 15839 c-150 -16 -417 -103 -417 -136 0 -22 62 -152 104 -218
118 -184 329 -326 545 -365 89 -16 273 -14 358 4 148 31 351 127 345 162 -2
11 -18 51 -37 91 -126 271 -359 430 -675 463 -112 11 -111 11 -223 -1z"/>
<path d="M9675 15731 c-131 -31 -345 -133 -345 -164 0 -21 87 -143 139 -195
70 -70 158 -126 248 -157 105 -37 300 -47 401 -20 127 33 322 143 330 187 5
25 -64 126 -128 188 -69 67 -145 113 -242 147 -101 35 -286 41 -403 14z"/>
<path d="M18946 15715 c-215 -44 -395 -134 -535 -269 -119 -115 -197 -248
-237 -401 -27 -107 -25 -321 5 -444 l23 -94 117 6 c376 19 660 226 776 568 53
155 58 378 13 554 l-23 90 -35 2 c-19 1 -66 -5 -104 -12z"/>
<path d="M8394 15395 c-82 -18 -195 -72 -269 -128 -221 -167 -314 -481 -229
-773 l16 -57 60 7 c138 14 290 95 389 205 58 66 132 208 154 301 23 92 29 288
13 380 -13 73 -14 75 -43 77 -16 1 -58 -4 -91 -12z"/>
<path d="M11730 15400 c-296 -35 -556 -227 -639 -472 -30 -87 -28 -94 27 -122
186 -94 427 -101 638 -16 185 74 340 222 424 403 50 109 50 110 -19 141 -125
56 -296 82 -431 66z"/>
<path d="M13409 15352 c-21 -93 -15 -312 10 -407 59 -224 199 -391 391 -468
64 -25 197 -53 207 -43 16 15 44 154 50 236 8 129 -14 236 -74 359 -98 205
-292 340 -535 374 l-37 6 -12 -57z"/>
<path d="M17572 15378 c-310 -26 -593 -247 -664 -522 -13 -48 -12 -48 17 -72
41 -33 163 -83 249 -101 96 -20 274 -12 375 17 255 73 467 249 566 469 l19 44
-33 28 c-43 36 -159 92 -235 114 -78 23 -192 32 -294 23z"/>
<path d="M2165 15369 c-44 -4 -111 -15 -149 -24 l-68 -18 6 -40 c20 -122 119
-298 233 -411 93 -93 189 -153 321 -199 78 -28 101 -32 227 -35 116 -3 153 0
218 16 43 11 82 23 85 27 12 12 -29 140 -73 231 -82 169 -208 300 -361 375
-138 67 -273 91 -439 78z"/>
<path d="M5365 15291 c-59 -10 -146 -34 -223 -63 l-55 -20 6 -58 c16 -145 110
-331 232 -455 216 -220 506 -327 840 -312 112 5 217 22 308 49 37 11 38 13 32
47 -11 59 -73 202 -123 283 -156 256 -405 443 -677 509 -90 22 -265 32 -340
20z"/>
<path d="M16305 15284 c-11 -3 -51 -12 -90 -21 -266 -62 -529 -267 -681 -534
-64 -111 -123 -277 -103 -290 8 -4 55 -19 104 -31 80 -20 114 -23 295 -22 178
0 215 3 282 22 356 98 599 314 701 622 14 41 27 95 29 119 3 40 0 46 -27 62
-16 10 -70 30 -120 45 -75 22 -113 27 -230 30 -77 1 -149 1 -160 -2z"/>
<path d="M10495 15215 c-323 -61 -575 -270 -640 -532 -18 -72 -23 -194 -12
-277 l9 -59 101 6 c320 17 578 234 643 538 24 114 9 342 -23 338 -5 -1 -39 -7
-78 -14z"/>
<path d="M7571 15160 c-195 -55 -373 -203 -457 -379 -92 -192 -105 -401 -38
-604 29 -87 19 -83 119 -46 144 54 317 194 404 328 118 184 159 400 111 599
-32 135 -30 133 -139 102z"/>
<path d="M14251 15154 c-40 -88 -58 -255 -41 -369 35 -231 169 -440 366 -571
86 -57 226 -119 248 -111 7 3 22 34 34 70 67 204 51 415 -46 616 -29 60 -56
96 -132 172 -83 84 -108 102 -190 142 -52 25 -125 52 -161 60 -67 15 -67 15
-78 -9z"/>
<path d="M3800 15045 c-201 -45 -379 -164 -484 -325 -20 -30 -36 -62 -36 -71
0 -48 231 -183 375 -220 220 -55 483 -23 662 82 66 39 212 178 236 226 17 31
16 32 -16 75 -71 93 -206 180 -337 218 -98 29 -305 36 -400 15z"/>
<path d="M19955 14916 c-148 -34 -277 -108 -381 -217 -78 -82 -87 -100 -69
-127 22 -30 131 -110 197 -143 111 -56 197 -74 358 -73 127 1 156 4 233 27
147 45 282 124 371 216 35 36 38 43 29 64 -16 34 -154 142 -233 182 -38 19
-102 44 -142 56 -94 27 -278 34 -363 15z"/>
<path d="M8507 14743 c-3 -5 -13 -47 -23 -93 -22 -112 -15 -332 15 -435 82
-285 283 -517 541 -623 79 -32 206 -62 264 -62 35 0 36 1 57 68 16 49 23 101
26 197 4 116 2 141 -21 227 -71 275 -258 508 -511 635 -116 59 -332 112 -348
86z"/>
<path d="M13332 14739 c-379 -64 -705 -388 -777 -774 -22 -113 -16 -248 15
-363 l22 -83 57 6 c86 10 178 35 261 70 357 150 595 563 552 955 -7 58 -18
126 -25 150 -14 51 -21 53 -105 39z"/>
<path d="M1865 14686 c-191 -32 -356 -116 -498 -255 -78 -76 -147 -161 -147
-182 0 -22 119 -96 214 -134 125 -51 236 -68 386 -62 268 12 471 99 658 284
120 119 120 113 14 194 -175 132 -411 191 -627 155z"/>
<path d="M16925 14589 c-324 -41 -618 -276 -755 -605 -16 -40 -31 -87 -32
-105 l-3 -34 90 -24 c76 -20 115 -24 250 -24 174 -1 265 14 396 68 176 71 342
218 422 373 41 79 87 216 87 259 0 31 -182 87 -310 95 -41 3 -106 2 -145 -3z"/>
<path d="M12000 14448 c-105 -63 -229 -186 -292 -288 -98 -158 -130 -338 -89
-499 27 -108 80 -215 108 -219 29 -4 143 49 217 102 123 88 213 208 262 351
24 69 28 96 28 200 1 99 -3 133 -22 195 -32 100 -90 210 -111 210 -9 0 -55
-23 -101 -52z"/>
<path d="M19085 14339 c-81 -13 -205 -57 -283 -101 -311 -171 -523 -509 -548
-873 l-7 -94 29 -8 c16 -4 103 -8 194 -8 158 0 169 1 265 32 305 98 552 348
658 665 35 103 57 225 57 308 l0 67 -69 12 c-79 12 -221 13 -296 0z"/>
<path d="M20590 14271 c-87 -19 -209 -65 -268 -101 -39 -24 -39 -28 19 -141
90 -174 251 -297 451 -344 85 -20 261 -19 346 1 125 31 312 132 312 170 0 30
-62 133 -116 193 -139 154 -309 228 -539 237 -93 3 -139 0 -205 -15z"/>
<path d="M3923 14259 c-74 -7 -196 -40 -245 -65 -35 -18 -37 -54 -7 -150 89
-288 317 -497 635 -580 85 -23 120 -27 254 -27 152 -1 225 8 330 39 60 18 60
14 9 145 -158 409 -571 679 -976 638z"/>
<path d="M2631 14249 l-54 -11 6 -87 c30 -411 307 -765 684 -873 62 -18 104
-22 208 -23 72 0 148 4 169 8 l39 8 -6 92 c-21 331 -220 642 -509 796 -121 65
-224 92 -363 96 -66 2 -144 -1 -174 -6z"/>
<path d="M17742 14245 c-337 -77 -618 -341 -732 -686 -11 -35 -17 -66 -13 -70
23 -23 187 -51 323 -56 123 -4 161 -2 250 17 213 44 347 115 490 259 73 73
105 115 137 176 61 119 103 274 80 294 -7 5 -55 24 -107 42 -85 29 -109 32
-230 35 -92 2 -155 -1 -198 -11z"/>
<path d="M9930 14133 c-8 -52 -11 -136 -8 -208 5 -99 11 -136 37 -215 44 -129
82 -192 170 -281 60 -60 94 -85 161 -117 86 -41 163 -62 224 -62 33 0 34 1 52
68 15 52 19 101 19 217 -1 144 -2 154 -32 233 -66 174 -180 301 -339 378 -78
38 -204 74 -259 74 -9 0 -17 -28 -25 -87z"/>
<path d="M679 13773 c-46 -106 -62 -199 -56 -328 6 -142 26 -215 98 -356 91
-178 254 -336 444 -430 93 -45 258 -99 270 -87 19 19 38 167 38 288 0 173 -28
283 -113 457 -51 105 -71 134 -147 213 -136 143 -252 217 -419 265 -47 14 -88
25 -90 25 -3 0 -14 -21 -25 -47z"/>
<path d="M6292 13800 c-275 -73 -472 -306 -502 -592 -10 -98 2 -220 30 -309
30 -96 25 -93 111 -73 184 41 341 166 422 335 25 52 53 126 63 164 37 144 12
485 -36 492 -8 1 -48 -7 -88 -17z"/>
<path d="M19747 13795 c-232 -44 -417 -145 -584 -318 -104 -108 -147 -171
-213 -310 -55 -115 -108 -283 -93 -298 5 -5 54 -21 109 -36 88 -23 118 -26
264 -26 119 -1 185 4 237 16 224 52 399 145 561 301 140 134 232 276 297 459
45 127 47 148 13 165 -105 50 -435 76 -591 47z"/>
<path d="M16019 13765 c-80 -20 -162 -58 -236 -111 -65 -47 -159 -151 -187
-207 l-15 -31 47 -34 c69 -49 221 -120 309 -144 60 -16 109 -21 208 -21 115 0
139 3 212 27 139 45 284 160 344 272 17 32 9 46 -67 107 -74 60 -178 112 -274
137 -89 23 -255 26 -341 5z"/>
<path d="M14067 13660 c-27 -5 -51 -11 -54 -14 -3 -2 0 -37 6 -78 25 -166 141
-324 296 -405 105 -54 181 -73 299 -73 l96 0 0 33 c-1 62 -30 173 -66 245
-103 210 -343 331 -577 292z"/>
<path d="M2155 13535 c-5 -2 -45 -11 -89 -20 l-78 -17 6 -41 c15 -92 97 -257
175 -353 104 -127 285 -240 446 -279 126 -30 389 -16 455 25 36 23 -66 273
-160 392 -109 137 -261 236 -426 278 -57 15 -109 20 -198 19 -67 0 -125 -2
-131 -4z"/>
<path d="M13546 13449 c-90 -12 -96 -18 -89 -82 17 -167 80 -294 208 -423 79
-80 103 -98 195 -143 142 -69 207 -85 360 -85 l125 -1 -2 60 c-3 96 -31 200
-81 298 -58 117 -178 241 -288 300 -125 65 -289 95 -428 76z"/>
<path d="M6563 13366 c-125 -134 -186 -287 -187 -466 -1 -58 5 -130 13 -160
36 -144 113 -274 223 -374 69 -63 72 -65 98 -51 71 37 179 197 216 320 25 81
24 254 0 350 -22 87 -84 220 -132 289 -57 79 -135 166 -149 166 -7 0 -44 -33
-82 -74z"/>
<path d="M4264 13419 c-95 -11 -213 -50 -304 -100 -90 -50 -221 -178 -263
-257 -28 -52 -29 -54 -10 -74 33 -37 140 -108 215 -142 306 -142 702 -91 935
120 46 42 123 142 123 160 0 45 -146 174 -255 225 -123 58 -298 85 -441 68z"/>
<path d="M11610 13063 c-15 -103 -8 -304 13 -378 65 -230 192 -382 387 -464
60 -26 201 -54 212 -43 22 22 48 172 48 276 0 136 -15 200 -76 325 -96 196
-297 337 -520 365 l-52 6 -12 -87z"/>
<path d="M10126 13125 c-132 -33 -275 -136 -352 -252 -44 -66 -88 -176 -102
-251 l-9 -52 66 -21 c92 -29 228 -36 311 -15 122 31 206 80 302 177 75 76 94
104 143 201 30 62 58 127 61 145 6 31 6 32 -62 54 -89 28 -270 36 -358 14z"/>
<path d="M13020 12898 c-108 -231 -88 -477 57 -695 55 -84 163 -193 247 -252
74 -50 209 -121 233 -121 18 0 38 44 69 147 23 76 27 106 27 218 0 152 -19
240 -83 371 -50 104 -169 233 -274 298 -62 39 -203 96 -236 96 -6 0 -24 -28
-40 -62z"/>
<path d="M8813 12910 c-301 -107 -495 -411 -469 -735 9 -119 63 -295 90 -295
20 0 139 60 207 105 37 25 106 86 153 136 72 75 95 108 135 192 57 117 71 176
71 289 0 93 -19 177 -61 266 -34 70 -40 73 -126 42z"/>
<path d="M3375 12904 c-11 -2 -45 -9 -75 -15 -136 -27 -279 -107 -372 -207
-57 -63 -128 -175 -128 -204 0 -38 191 -144 310 -172 95 -23 268 -21 365 4
135 35 219 82 315 179 69 69 94 103 129 174 24 48 41 94 38 102 -13 33 -224
115 -344 134 -69 10 -196 13 -238 5z"/>
<path d="M18340 12899 c-41 -5 -99 -16 -130 -25 -66 -19 -221 -90 -231 -106
-10 -16 23 -96 72 -173 85 -135 242 -247 409 -291 79 -21 259 -23 345 -5 129
28 325 134 325 176 0 25 -56 121 -107 183 -144 176 -419 273 -683 241z"/>
<path d="M19823 12845 c-134 -24 -285 -85 -393 -158 -71 -48 -190 -150 -190
-163 0 -6 43 -52 95 -102 143 -137 292 -221 485 -274 73 -20 108 -23 245 -22
145 0 169 3 250 28 118 36 223 92 323 171 96 77 126 116 116 147 -12 40 -186
201 -272 252 -194 116 -440 161 -659 121z"/>
<path d="M1901 12740 c-88 -19 -198 -61 -276 -106 -90 -53 -265 -219 -265
-252 0 -29 130 -146 220 -198 295 -173 698 -143 994 75 87 63 186 161 186 183
0 25 -156 147 -260 202 -139 73 -239 98 -410 102 -80 2 -165 -1 -189 -6z"/>
<path d="M4321 12699 c-72 -110 -101 -211 -101 -349 0 -150 37 -262 126 -377
24 -32 70 -79 101 -105 55 -46 160 -108 182 -108 6 0 29 27 50 60 182 282 77
668 -243 889 -33 23 -64 41 -70 41 -6 0 -26 -23 -45 -51z"/>
<path d="M17463 12664 c-172 -37 -322 -137 -406 -270 -35 -56 -75 -172 -83
-242 l-6 -60 38 -12 c22 -7 98 -14 169 -17 156 -6 220 8 339 70 102 55 200
156 250 259 38 78 66 180 66 239 0 34 -2 37 -37 43 -65 10 -265 5 -330 -10z"/>
<path d="M640 12520 c-86 -9 -179 -32 -256 -63 -50 -20 -54 -24 -54 -56 0 -43
26 -141 56 -212 100 -239 313 -429 585 -522 207 -72 501 -76 727 -11 28 8 52
19 52 25 0 22 -52 163 -81 222 -165 328 -499 578 -816 612 -114 12 -139 12
-213 5z"/>
<path d="M5415 12330 c-129 -20 -275 -78 -384 -152 -97 -66 -271 -252 -271
-290 0 -21 120 -96 215 -134 287 -115 638 -73 910 109 78 52 225 200 225 226
0 27 -123 122 -215 166 -136 66 -336 97 -480 75z"/>
<path d="M16205 12280 c-44 -4 -101 -13 -127 -19 -99 -23 -252 -90 -316 -138
l-32 -24 30 -57 c76 -142 211 -289 355 -388 112 -77 165 -103 291 -147 276
-96 584 -86 828 26 42 20 76 38 76 42 0 16 -85 169 -128 230 -182 259 -480
444 -754 470 -126 12 -144 12 -223 5z"/>
<path d="M3346 12208 c-67 -154 -91 -269 -90 -443 1 -156 23 -263 83 -404 86
-203 292 -416 506 -524 67 -34 175 -77 192 -77 34 0 108 228 125 388 19 177
-17 385 -96 557 -114 246 -341 448 -591 524 -38 12 -78 24 -88 27 -14 4 -23
-6 -41 -48z"/>
<path d="M10235 12240 c-9 -15 13 -198 34 -283 53 -205 182 -379 351 -470 102
-56 242 -85 350 -72 l60 7 0 104 c0 185 -44 328 -143 461 -88 119 -229 211
-378 247 -72 18 -264 22 -274 6z"/>
<path d="M18423 12216 c-336 -119 -584 -426 -643 -798 -18 -113 -8 -341 20
-443 34 -127 72 -209 96 -213 29 -4 187 65 276 121 195 122 355 308 432 500
59 147 70 209 70 387 0 181 -12 246 -75 403 -37 92 -38 92 -176 43z"/>
<path d="M2510 12154 c-119 -25 -255 -83 -350 -147 -73 -51 -198 -176 -245
-247 -58 -87 -108 -194 -131 -276 -21 -78 -24 -73 91 -109 170 -52 361 -58
535 -15 100 25 248 93 334 154 80 57 192 176 240 254 47 79 96 210 99 270 l2
46 -70 27 c-148 58 -356 75 -505 43z"/>
<path d="M19098 12160 c-114 -20 -258 -74 -258 -95 0 -41 46 -179 86 -256 50
-97 148 -211 247 -287 72 -56 215 -126 323 -157 107 -32 306 -44 421 -26 99
15 233 59 240 78 18 46 -95 291 -184 398 -124 151 -321 277 -508 326 -89 23
-289 34 -367 19z"/>
<path d="M9040 12136 c-267 -95 -444 -335 -467 -635 -7 -95 9 -208 46 -311 18
-51 32 -76 44 -78 29 -6 176 73 257 137 41 33 101 91 133 128 66 77 149 238
166 321 15 75 14 182 -4 260 -19 80 -74 196 -95 199 -8 1 -44 -9 -80 -21z"/>
<path d="M12822 12073 c-49 -107 -66 -185 -65 -303 0 -86 5 -120 27 -185 54
-166 168 -323 314 -433 83 -62 230 -142 262 -142 13 0 24 16 38 53 42 112 54
166 59 273 6 127 -11 232 -58 354 -75 195 -253 362 -454 426 -42 13 -79 24
-84 24 -4 0 -22 -30 -39 -67z"/>
<path d="M20613 12115 c-146 -38 -283 -123 -360 -223 -32 -42 -32 -44 -18 -72
27 -52 138 -162 213 -211 88 -58 156 -85 282 -111 118 -25 293 -20 410 11 143
38 370 173 370 220 0 28 -91 151 -155 209 -191 175 -482 244 -742 177z"/>
<path d="M6072 11854 c-157 -34 -287 -106 -402 -223 -133 -135 -208 -302 -213
-473 l-2 -72 38 -13 c65 -22 201 -33 285 -23 229 26 455 161 608 363 81 106
163 305 164 394 0 51 -316 83 -478 47z"/>
<path d="M6951 11714 c-193 -42 -382 -194 -462 -372 -49 -108 -63 -175 -62
-307 0 -100 5 -135 27 -210 15 -49 31 -94 36 -99 15 -15 149 22 232 66 248
129 378 407 347 738 -10 106 -30 193 -44 196 -6 1 -39 -4 -74 -12z"/>
<path d="M11646 11713 l-39 -4 6 -92 c24 -361 229 -647 517 -722 66 -17 254
-25 268 -11 14 15 6 239 -11 306 -81 306 -320 503 -632 523 -38 3 -88 3 -109
0z"/>
<path d="M15140 11713 c-19 -2 -77 -12 -127 -24 -109 -24 -107 -21 -72 -155
43 -166 129 -313 267 -456 259 -269 615 -377 930 -283 l52 16 0 50 c0 114 -58
309 -126 422 -56 92 -222 252 -317 306 -179 100 -397 145 -607 124z"/>
<path d="M7204 11507 c-88 -193 -85 -425 8 -615 43 -89 196 -244 286 -291 55
-28 193 -81 213 -81 11 0 65 138 78 198 64 308 -121 632 -455 797 -50 25 -94
45 -98 45 -4 0 -18 -24 -32 -53z"/>
<path d="M14451 11511 c-23 -42 -51 -175 -51 -240 0 -262 206 -525 487 -622
83 -28 88 -27 102 34 34 146 21 293 -38 442 -63 157 -177 282 -323 355 -105
52 -161 62 -177 31z"/>
<path d="M9645 11293 c-25 -96 -31 -308 -12 -398 49 -230 166 -390 354 -484
65 -32 187 -66 203 -56 5 3 21 43 36 88 22 66 28 107 31 207 6 151 -9 226 -69
350 -74 154 -242 292 -417 344 -30 9 -67 16 -82 16 -24 0 -28 -5 -44 -67z"/>
<path d="M19355 11310 c-232 -36 -476 -165 -603 -318 -71 -85 -71 -80 11 -159
96 -92 155 -134 268 -187 154 -74 235 -91 429 -90 146 0 176 4 265 27 119 33
313 126 405 196 82 62 210 187 210 206 0 33 -187 166 -319 227 -141 66 -289
99 -461 103 -80 2 -172 0 -205 -5z"/>
<path d="M20427 11295 c-38 -8 -85 -19 -104 -26 l-35 -11 6 -52 c10 -72 61
-219 102 -296 138 -254 396 -458 663 -527 76 -19 122 -24 217 -24 113 0 156 5
242 32 l32 11 0 86 c0 284 -207 589 -494 727 -137 65 -232 87 -406 91 -108 2
-176 -1 -223 -11z"/>
<path d="M2430 11159 c-84 -13 -230 -62 -300 -101 -85 -47 -200 -138 -200
-158 0 -24 127 -141 213 -198 160 -103 301 -146 487 -146 230 0 409 74 563
232 59 60 60 58 -51 164 -92 88 -215 155 -347 189 -94 24 -270 33 -365 18z"/>
<path d="M11668 10854 c-14 -14 -8 -138 11 -229 46 -224 157 -400 320 -507
103 -67 179 -90 327 -95 l121 -5 7 64 c13 116 -18 287 -71 393 -119 237 -326
369 -598 382 -60 3 -113 2 -117 -3z"/>
<path d="M1006 10802 c-2 -4 -9 -34 -16 -67 -18 -86 -15 -237 5 -320 90 -363
450 -657 849 -694 50 -4 94 -6 99 -4 15 8 7 218 -12 308 -75 365 -352 664
-694 749 -98 25 -224 40 -231 28z"/>
<path d="M3194 10574 c-209 -473 -49 -1006 390 -1299 81 -54 229 -126 288
-140 33 -8 40 3 73 129 102 396 10 829 -234 1088 -119 127 -235 200 -399 252
-46 14 -85 26 -88 26 -3 0 -16 -25 -30 -56z"/>
<path d="M18600 10597 c-291 -98 -509 -328 -598 -632 -71 -237 -70 -532 1
-756 23 -73 24 -74 56 -72 45 2 260 111 342 172 83 63 203 189 260 272 55 81
110 208 140 324 33 124 33 360 1 478 -26 96 -84 240 -97 244 -5 1 -53 -12
-105 -30z"/>
<path d="M16344 10565 c-84 -18 -168 -53 -236 -98 -63 -42 -169 -151 -194
-198 -15 -30 -15 -32 8 -56 35 -38 146 -99 213 -119 78 -22 237 -23 325 0 101
25 236 97 309 163 78 70 152 168 144 189 -8 23 -179 100 -260 118 -86 19 -225
19 -309 1z"/>
<path d="M5335 10495 c-132 -28 -282 -111 -364 -200 l-42 -45 29 -43 c40 -57
137 -147 195 -181 26 -16 80 -40 120 -54 64 -23 88 -26 212 -26 163 -1 220 12
364 80 93 44 221 127 221 144 0 20 -100 138 -156 183 -74 61 -197 120 -291
141 -85 19 -205 19 -288 1z"/>
<path d="M9622 10393 c-68 -218 -48 -473 49 -628 70 -112 187 -206 305 -245
50 -17 68 -19 79 -10 22 19 73 171 84 256 18 132 -13 293 -77 403 -39 67 -146
176 -213 216 -58 36 -157 75 -189 75 -12 0 -23 -19 -38 -67z"/>
<path d="M4021 10424 l-64 -16 7 -75 c7 -89 50 -221 97 -299 46 -76 148 -185
224 -239 159 -114 351 -175 548 -175 128 0 246 17 254 36 17 44 -73 268 -151
377 -51 72 -170 189 -240 236 -75 51 -214 118 -297 141 -101 29 -289 36 -378
14z"/>
<path d="M17655 10429 c-103 -13 -197 -44 -315 -105 -180 -92 -322 -234 -410
-409 -45 -88 -99 -259 -87 -271 12 -12 168 -34 242 -34 280 0 551 123 721 329
99 119 169 298 162 414 l-3 51 -45 11 c-69 18 -187 24 -265 14z"/>
<path d="M2040 10348 c-36 -5 -69 -14 -75 -19 -15 -15 -10 -244 8 -324 68
-306 271 -566 547 -702 145 -72 242 -95 416 -100 l151 -5 7 70 c14 141 -29
386 -93 526 -105 231 -315 432 -537 512 -131 48 -280 63 -424 42z"/>
<path d="M19655 10350 c-195 -27 -349 -100 -489 -231 -217 -203 -326 -465
-326 -787 l0 -130 63 -4 c93 -8 244 9 342 37 338 98 612 379 702 721 21 80 26
124 27 231 0 72 -2 134 -6 138 -21 21 -225 37 -313 25z"/>
<path d="M11636 10159 c-114 -115 -172 -203 -219 -333 -39 -106 -49 -292 -22
-396 29 -114 140 -290 181 -290 28 0 131 78 201 153 78 85 142 200 170 307 37
146 13 348 -59 481 -33 63 -116 170 -136 177 -7 2 -59 -43 -116 -99z"/>
<path d="M10466 10148 c-270 -243 -363 -616 -221 -887 33 -63 107 -162 125
-169 18 -7 128 73 195 142 83 85 136 171 172 281 33 102 38 272 10 375 -34
126 -152 320 -195 320 -9 0 -48 -28 -86 -62z"/>
<path d="M20340 10133 c-109 -381 114 -801 527 -995 99 -46 254 -88 328 -88
51 0 53 1 59 31 11 56 6 194 -9 284 -20 112 -69 243 -131 347 -67 114 -230
277 -337 337 -124 70 -288 121 -387 121 -37 0 -40 -2 -50 -37z"/>
<path d="M6504 9901 c-141 -42 -250 -106 -363 -215 -143 -139 -224 -275 -278
-472 -24 -87 -27 -117 -28 -249 0 -111 5 -170 18 -227 10 -43 22 -80 26 -82
17 -11 162 39 262 91 113 58 232 152 312 245 154 181 241 440 216 651 -12 106
-67 266 -94 273 -5 1 -37 -6 -71 -15z"/>
<path d="M7262 9865 c-196 -105 -334 -252 -433 -458 -69 -144 -83 -216 -83
-422 -1 -166 1 -188 26 -277 42 -149 170 -388 210 -388 23 0 161 104 232 175
167 169 282 390 322 618 22 124 15 340 -15 452 -23 88 -106 263 -149 313 l-27
32 -83 -45z"/>
<path d="M15342 9838 c-41 -99 -52 -161 -52 -281 0 -172 50 -329 154 -486 48
-72 192 -217 266 -268 97 -66 301 -153 359 -153 42 0 76 295 51 447 -59 370
-303 676 -626 784 -47 16 -93 29 -104 29 -13 0 -26 -19 -48 -72z"/>
<path d="M14570 9855 c-48 -70 -108 -202 -131 -290 -29 -112 -37 -329 -15
-450 52 -297 226 -575 466 -744 79 -55 96 -60 116 -33 40 50 117 188 145 257
90 225 93 525 8 745 -60 157 -163 302 -289 407 -77 65 -223 153 -252 153 -9 0
-31 -20 -48 -45z"/>
<path d="M7736 9710 c-99 -312 -20 -633 210 -851 33 -30 80 -70 106 -87 127
-87 366 -168 388 -132 34 55 44 331 16 457 -73 334 -313 602 -607 678 -87 23
-85 24 -113 -65z"/>
<path d="M14076 9695 c-117 -41 -218 -109 -325 -221 -84 -86 -105 -116 -149
-205 -62 -126 -97 -243 -112 -375 -12 -114 -7 -202 22 -326 23 -105 20 -103
161 -58 206 66 411 232 506 409 45 86 88 225 102 329 15 118 1 240 -44 372
-31 90 -34 95 -62 97 -17 1 -61 -9 -99 -22z"/>
<path d="M1945 9406 c-145 -33 -256 -88 -380 -187 -41 -32 -75 -67 -75 -76 0
-10 42 -59 93 -109 188 -185 393 -263 637 -243 148 13 290 85 390 197 64 72
69 92 37 140 -79 118 -207 215 -342 258 -99 32 -267 41 -360 20z"/>
<path d="M5350 9386 c-142 -42 -257 -114 -366 -227 -86 -91 -124 -146 -176
-255 -77 -165 -112 -376 -88 -542 20 -145 87 -332 119 -332 35 0 166 42 229
74 398 200 599 714 451 1148 -30 87 -67 158 -82 157 -6 0 -46 -10 -87 -23z"/>
<path d="M16467 9313 c-51 -130 -69 -220 -69 -358 -1 -223 51 -393 174 -572
103 -150 271 -278 428 -327 143 -45 132 -47 168 33 60 133 77 219 77 386 0
125 -4 164 -23 235 -92 338 -308 577 -606 669 -110 34 -109 34 -149 -66z"/>
<path d="M19713 9340 c-92 -24 -162 -59 -244 -120 -67 -50 -179 -180 -179
-207 0 -8 16 -37 35 -63 237 -322 735 -333 1075 -23 38 35 83 82 101 104 l32
40 -29 30 c-48 51 -156 126 -242 169 -171 86 -385 113 -549 70z"/>
<path d="M8780 9213 c-80 -86 -132 -166 -169 -262 -43 -113 -55 -183 -54 -316
1 -98 6 -136 27 -208 42 -143 105 -253 201 -356 60 -65 142 -131 161 -131 17
0 106 125 149 210 69 139 99 270 98 435 -1 250 -93 473 -258 624 -89 81 -84
80 -155 4z"/>
<path d="M13050 9071 c-116 -85 -205 -200 -267 -345 -48 -113 -64 -193 -70
-341 -8 -224 34 -389 147 -573 28 -45 55 -84 61 -88 18 -11 142 82 222 165
303 317 328 802 59 1140 -33 40 -66 77 -74 82 -9 5 -35 -8 -78 -40z"/>
<path d="M4243 8865 c-326 -59 -595 -289 -695 -595 -27 -83 -31 -113 -36 -236
l-4 -142 38 -6 c48 -8 208 9 289 31 146 39 307 133 415 242 166 168 250 374
250 616 0 75 -3 94 -16 99 -26 10 -164 5 -241 -9z"/>
<path d="M17508 8872 c-34 -3 -38 -6 -44 -39 -10 -52 4 -201 26 -290 41 -160
146 -328 272 -436 166 -141 395 -227 610 -227 l76 0 7 66 c9 84 -8 220 -41
321 -90 278 -336 505 -625 577 -93 23 -209 35 -281 28z"/>
<path d="M2950 8838 c-318 -22 -615 -210 -744 -470 -47 -96 -76 -189 -76 -244
0 -30 4 -34 58 -54 124 -47 202 -61 332 -62 160 0 255 23 403 99 215 110 391
323 466 563 36 117 35 109 4 121 -104 40 -280 59 -443 47z"/>
<path d="M18770 8834 c-115 -20 -212 -48 -217 -61 -16 -41 81 -275 161 -387
24 -34 85 -101 134 -148 77 -73 108 -94 204 -141 135 -66 208 -86 348 -94 125
-7 243 12 363 59 l78 30 -6 42 c-46 274 -240 507 -524 629 -115 49 -212 68
-371 72 -80 2 -156 2 -170 -1z"/>
<path d="M6387 8758 c-190 -233 -220 -584 -76 -873 22 -44 59 -104 82 -133 44
-58 144 -152 162 -152 16 0 91 101 135 183 62 115 92 244 93 397 0 144 -15
212 -72 336 -44 94 -146 209 -226 255 -27 16 -53 29 -57 29 -4 0 -22 -19 -41
-42z"/>
<path d="M15461 8764 c-123 -81 -220 -222 -262 -381 -16 -59 -21 -109 -21
-203 0 -152 30 -282 91 -396 47 -87 119 -184 136 -184 24 0 146 124 195 198
101 153 146 322 137 507 -6 122 -31 224 -76 313 -37 73 -117 182 -133 181 -7
0 -37 -16 -67 -35z"/>
<path d="M7492 8702 c-128 -128 -200 -266 -238 -452 -25 -123 -16 -323 21
-445 29 -100 86 -216 142 -289 60 -77 63 -78 130 -20 142 123 245 294 300 496
25 90 25 339 0 423 -26 88 -46 132 -92 205 -41 64 -144 170 -165 170 -6 0 -50
-40 -98 -88z"/>
<path d="M1661 8619 c-315 -62 -588 -303 -680 -602 -29 -94 -45 -232 -36 -311
l7 -66 76 0 c215 0 444 86 610 227 126 108 231 276 272 436 22 89 36 238 26
291 l-7 36 -112 -1 c-62 -1 -132 -5 -156 -10z"/>
<path d="M5900 8506 c-155 -46 -283 -128 -406 -259 -116 -123 -186 -254 -236
-437 -36 -136 -29 -453 12 -520 11 -17 166 28 262 76 147 74 299 200 384 320
58 81 129 232 150 319 22 87 24 269 5 345 -24 95 -61 180 -80 179 -9 0 -50
-10 -91 -23z"/>
</g>
</svg>
